  0
SECTION
  2
HEADER
  9
$ACADVER
  1
AC1014
  9
$HANDSEED
  5
FFFF
  9
$MEASUREMENT
 70
     1
  0
ENDSEC
  0
SECTION
  2
TABLES
  0
TABLE
  2
VPORT
  5
8
330
0
100
AcDbSymbolTable
 70
     4
  0
VPORT
  5
2E
330
8
100
AcDbSymbolTableRecord
100
AcDbViewportTableRecord
  2
*ACTIVE
 70
     0
 10
0.0
 20
0.0
 11
1.0
 21
1.0
 12
210.0
 22
148.5
 13
0.0
 23
0.0
 14
10.0
 24
10.0
 15
10.0
 25
10.0
 16
0.0
 26
0.0
 36
1.0
 17
0.0
 27
0.0
 37
0.0
 40
341.0
 41
1.24
 42
50.0
 43
0.0
 44
0.0
 50
0.0
 51
0.0
 71
     0
 72
   100
 73
     1
 74
     3
 75
     0
 76
     0
 77
     0
 78
     0
  0
ENDTAB
  0
TABLE
  2
LTYPE
  5
5
330
0
100
AcDbSymbolTable
 70
     1
  0
LTYPE
  5
14
330
5
100
AcDbSymbolTableRecord
100
AcDbLinetypeTableRecord
  2
BYBLOCK
 70
     0
  3

 72
    65
 73
     0
 40
0.0
  0
LTYPE
  5
15
330
5
100
AcDbSymbolTableRecord
100
AcDbLinetypeTableRecord
  2
BYLAYER
 70
     0
  3

 72
    65
 73
     0
 40
0.0
  0
LTYPE
  5
16
330
5
100
AcDbSymbolTableRecord
100
AcDbLinetypeTableRecord
  2
CONTINUOUS
 70
     0
  3
Solid line
 72
    65
 73
     0
 40
0.0
  0
ENDTAB
  0
TABLE
  2
LAYER
  5
2
100
AcDbSymbolTable
 70
2
  0
LAYER
  5
50
100
AcDbSymbolTableRecord
100
AcDbLayerTableRecord
  2
0
 70
0
  6
CONTINUOUS
  0
LAYER
  5
51
100
AcDbSymbolTableRecord
100
AcDbLayerTableRecord
  2
Layer_1
 70
0
  6
CONTINUOUS
  0
ENDTAB
  0
TABLE
  2
STYLE
  5
3
330
0
100
AcDbSymbolTable
 70
     1
  0
STYLE
  5
11
330
3
100
AcDbSymbolTableRecord
100
AcDbTextStyleTableRecord
  2
STANDARD
 70
     0
 40
0.0
 41
1.0
 50
0.0
 71
     0
 42
2.5
  3
txt
  4

  0
ENDTAB
  0
TABLE
  2
VIEW
  5
6
330
0
100
AcDbSymbolTable
 70
     0
  0
ENDTAB
  0
TABLE
  2
UCS
  5
7
330
0
100
AcDbSymbolTable
 70
     0
  0
ENDTAB
  0
TABLE
  2
APPID
  5
9
330
0
100
AcDbSymbolTable
 70
     2
  0
APPID
  5
12
330
9
100
AcDbSymbolTableRecord
100
AcDbRegAppTableRecord
  2
ACAD
 70
     0
  0
ENDTAB
  0
TABLE
  2
DIMSTYLE
  5
A
330
0
100
AcDbSymbolTable
 70
     1
  0
DIMSTYLE
105
27
330
A
100
AcDbSymbolTableRecord
100
AcDbDimStyleTableRecord
  2
ISO-25
 70
     0
  3

  4

  5

  6

  7

 40
1.0
 41
2.5
 42
0.625
 43
3.75
 44
1.25
 45
0.0
 46
0.0
 47
0.0
 48
0.0
140
2.5
141
2.5
142
0.0
143
0.03937007874016
144
1.0
145
0.0
146
1.0
147
0.625
 71
     0
 72
     0
 73
     0
 74
     0
 75
     0
 76
     0
 77
     1
 78
     8
170
     0
171
     3
172
     1
173
     0
174
     0
175
     0
176
     0
177
     0
178
     0
270
     2
271
     2
272
     2
273
     2
274
     3
340
11
275
     0
280
     0
281
     0
282
     0
283
     0
284
     8
285
     0
286
     0
287
     3
288
     0
  0
ENDTAB
  0
TABLE
  2
BLOCK_RECORD
  5
1
330
0
100
AcDbSymbolTable
 70
     1
  0
BLOCK_RECORD
  5
1F
330
1
100
AcDbSymbolTableRecord
100
AcDbBlockTableRecord
  2
*MODEL_SPACE
  0
BLOCK_RECORD
  5
1B
330
1
100
AcDbSymbolTableRecord
100
AcDbBlockTableRecord
  2
*PAPER_SPACE
  0
ENDTAB
  0
ENDSEC
  0
SECTION
  2
BLOCKS
  0
BLOCK
  5
20
330
1F
100
AcDbEntity
  8
0
100
AcDbBlockBegin
  2
*MODEL_SPACE
 70
     0
 10
0.0
 20
0.0
 30
0.0
  3
*MODEL_SPACE
  1

  0
ENDBLK
  5
21
330
1F
100
AcDbEntity
  8
0
100
AcDbBlockEnd
  0
BLOCK
  5
1C
330
1B
100
AcDbEntity
 67
     1
  8
0
100
AcDbBlockBegin
  2
*PAPER_SPACE
  1

  0
ENDBLK
  5
1D
330
1B
100
AcDbEntity
 67
     1
  8
0
100
AcDbBlockEnd
  0
ENDSEC
  0
SECTION
  2
ENTITIES
  0
SPLINE
  5
100
100
AcDbEntity
  8
Layer_1
 62
5
100
AcDbSpline
 70
8
 71
3
 72
8
 73
4
 74
0
 40
0
 40
0
 40
0
 40
0
 40
1
 40
1
 40
1
 40
1
 10
28.266305
 20
288.413484
 30
0.0
 10
28.365873
 20
288.418423
 30
0.0
 10
28.474162
 20
288.413484
 30
0.0
 10
28.575000
 20
288.413484
 30
0.0
  0
SPLINE
  5
101
100
AcDbEntity
  8
Layer_1
 62
5
100
AcDbSpline
 70
8
 71
3
 72
8
 73
4
 74
0
 40
0
 40
0
 40
0
 40
0
 40
1
 40
1
 40
1
 40
1
 10
28.575000
 20
288.413484
 30
0.0
 10
31.801421
 20
288.413484
 30
0.0
 10
34.413444
 20
285.801447
 30
0.0
 10
34.413444
 20
282.575012
 30
0.0
  0
SPLINE
  5
102
100
AcDbEntity
  8
Layer_1
 62
5
100
AcDbSpline
 70
8
 71
3
 72
8
 73
4
 74
0
 40
0
 40
0
 40
0
 40
0
 40
1
 40
1
 40
1
 40
1
 10
34.413444
 20
282.575012
 30
0.0
 10
34.413444
 20
279.348605
 30
0.0
 10
31.801421
 20
276.736537
 30
0.0
 10
28.575000
 20
276.736537
 30
0.0
  0
SPLINE
  5
103
100
AcDbEntity
  8
Layer_1
 62
5
100
AcDbSpline
 70
8
 71
3
 72
8
 73
4
 74
0
 40
0
 40
0
 40
0
 40
0
 40
1
 40
1
 40
1
 40
1
 10
28.575000
 20
276.736537
 30
0.0
 10
25.348522
 20
276.736537
 30
0.0
 10
22.727693
 20
279.348605
 30
0.0
 10
22.727693
 20
282.575012
 30
0.0
  0
SPLINE
  5
104
100
AcDbEntity
  8
Layer_1
 62
5
100
AcDbSpline
 70
8
 71
3
 72
8
 73
4
 74
0
 40
0
 40
0
 40
0
 40
0
 40
1
 40
1
 40
1
 40
1
 10
22.727693
 20
282.575012
 30
0.0
 10
22.727693
 20
285.700623
 30
0.0
 10
25.179555
 20
288.257026
 30
0.0
 10
28.266305
 20
288.413484
 30
0.0
  0
LWPOLYLINE
  5
105
100
AcDbEntity
  8
Layer_1
 62
5
100
AcDbPolyline
 90
134
 70
0
 10
39.943250
 20
311.150012
 30
0.0
 10
39.943250
 20
307.975012
 30
0.0
 10
3.166166
 20
307.975012
 30
0.0
 10
3.166166
 20
270.933342
 30
0.0
 10
0.000000
 20
270.933342
 30
0.0
 10
0.000000
 20
245.533343
 30
0.0
 10
3.166166
 20
245.533343
 30
0.0
 10
3.166166
 20
219.604165
 30
0.0
 10
0.000000
 20
219.604165
 30
0.0
 10
0.000000
 20
194.204165
 30
0.0
 10
3.166166
 20
194.204165
 30
0.0
 10
3.166166
 20
168.274999
 30
0.0
 10
0.000000
 20
168.274999
 30
0.0
 10
0.000000
 20
142.874999
 30
0.0
 10
3.166166
 20
142.874999
 30
0.0
 10
3.166166
 20
116.945840
 30
0.0
 10
0.000000
 20
116.945840
 30
0.0
 10
0.000000
 20
91.545840
 30
0.0
 10
3.166166
 20
91.545840
 30
0.0
 10
3.166166
 20
65.616674
 30
0.0
 10
0.000000
 20
65.616674
 30
0.0
 10
0.000000
 20
40.216674
 30
0.0
 10
3.166166
 20
40.216674
 30
0.0
 10
3.166166
 20
3.175001
 30
0.0
 10
39.952055
 20
3.175001
 30
0.0
 10
39.952055
 20
0.000001
 30
0.0
 10
65.352055
 20
0.000001
 30
0.0
 10
65.352055
 20
3.175001
 30
0.0
 10
91.016667
 20
3.175001
 30
0.0
 10
91.016667
 20
0.000001
 30
0.0
 10
116.416667
 20
0.000001
 30
0.0
 10
116.416667
 20
3.175001
 30
0.0
 10
142.081225
 20
3.175001
 30
0.0
 10
142.081225
 20
0.000001
 30
0.0
 10
167.481225
 20
0.000001
 30
0.0
 10
167.481225
 20
3.175001
 30
0.0
 10
193.145836
 20
3.175001
 30
0.0
 10
193.145836
 20
0.000001
 30
0.0
 10
218.545836
 20
0.000001
 30
0.0
 10
218.545836
 20
3.175001
 30
0.0
 10
244.201592
 20
3.175001
 30
0.0
 10
244.201592
 20
0.000001
 30
0.0
 10
269.601592
 20
0.000001
 30
0.0
 10
269.601592
 20
3.175001
 30
0.0
 10
295.266166
 20
3.175001
 30
0.0
 10
295.266166
 20
0.000001
 30
0.0
 10
320.675000
 20
0.000001
 30
0.0
 10
320.675000
 20
3.175001
 30
0.0
 10
346.339583
 20
3.175001
 30
0.0
 10
346.339583
 20
0.000001
 30
0.0
 10
371.739583
 20
0.000001
 30
0.0
 10
371.739583
 20
3.175001
 30
0.0
 10
397.404195
 20
3.175001
 30
0.0
 10
397.404195
 20
0.000001
 30
0.0
 10
422.804195
 20
0.000001
 30
0.0
 10
422.804195
 20
3.175001
 30
0.0
 10
448.468750
 20
3.175001
 30
0.0
 10
448.468750
 20
0.000001
 30
0.0
 10
473.868750
 20
0.000001
 30
0.0
 10
473.868750
 20
3.175001
 30
0.0
 10
499.533333
 20
3.175001
 30
0.0
 10
499.533333
 20
0.000001
 30
0.0
 10
524.933333
 20
0.000001
 30
0.0
 10
524.933333
 20
3.175001
 30
0.0
 10
550.597917
 20
3.175001
 30
0.0
 10
550.597917
 20
0.000001
 30
0.0
 10
575.997888
 20
0.000001
 30
0.0
 10
575.997888
 20
3.175001
 30
0.0
 10
612.774972
 20
3.175001
 30
0.0
 10
612.774972
 20
40.216674
 30
0.0
 10
615.949972
 20
40.216674
 30
0.0
 10
615.949972
 20
65.616674
 30
0.0
 10
612.774972
 20
65.616674
 30
0.0
 10
612.774972
 20
91.545840
 30
0.0
 10
615.949972
 20
91.545840
 30
0.0
 10
615.949972
 20
116.945840
 30
0.0
 10
612.774972
 20
116.945840
 30
0.0
 10
612.774972
 20
142.874999
 30
0.0
 10
615.949972
 20
142.874999
 30
0.0
 10
615.949972
 20
168.274999
 30
0.0
 10
612.774972
 20
168.274999
 30
0.0
 10
612.774972
 20
194.204165
 30
0.0
 10
615.949972
 20
194.204165
 30
0.0
 10
615.949972
 20
219.604165
 30
0.0
 10
612.774972
 20
219.604165
 30
0.0
 10
612.774972
 20
245.533343
 30
0.0
 10
615.949972
 20
245.533343
 30
0.0
 10
615.949972
 20
270.933342
 30
0.0
 10
612.774972
 20
270.933342
 30
0.0
 10
612.774972
 20
307.975012
 30
0.0
 10
575.997888
 20
307.975012
 30
0.0
 10
575.997888
 20
311.150012
 30
0.0
 10
550.597917
 20
311.150012
 30
0.0
 10
550.597917
 20
307.975012
 30
0.0
 10
524.933333
 20
307.975012
 30
0.0
 10
524.933333
 20
311.150012
 30
0.0
 10
499.533333
 20
311.150012
 30
0.0
 10
499.533333
 20
307.975012
 30
0.0
 10
473.868750
 20
307.975012
 30
0.0
 10
473.868750
 20
311.150012
 30
0.0
 10
448.468750
 20
311.150012
 30
0.0
 10
448.468750
 20
307.975012
 30
0.0
 10
422.804195
 20
307.975012
 30
0.0
 10
422.804195
 20
311.150012
 30
0.0
 10
397.404195
 20
311.150012
 30
0.0
 10
397.404195
 20
307.975012
 30
0.0
 10
371.739583
 20
307.975012
 30
0.0
 10
371.739583
 20
311.150012
 30
0.0
 10
346.339583
 20
311.150012
 30
0.0
 10
346.339583
 20
307.975012
 30
0.0
 10
320.675000
 20
307.975012
 30
0.0
 10
320.675000
 20
311.150012
 30
0.0
 10
295.266166
 20
311.150012
 30
0.0
 10
295.266166
 20
307.975012
 30
0.0
 10
269.601592
 20
307.975012
 30
0.0
 10
269.601592
 20
311.150012
 30
0.0
 10
244.201592
 20
311.150012
 30
0.0
 10
244.201592
 20
307.975012
 30
0.0
 10
218.537003
 20
307.975012
 30
0.0
 10
218.537003
 20
311.150012
 30
0.0
 10
193.137003
 20
311.150012
 30
0.0
 10
193.137003
 20
307.975012
 30
0.0
 10
167.472419
 20
307.975012
 30
0.0
 10
167.472419
 20
311.150012
 30
0.0
 10
142.072419
 20
311.150012
 30
0.0
 10
142.072419
 20
307.975012
 30
0.0
 10
116.407833
 20
307.975012
 30
0.0
 10
116.407833
 20
311.150012
 30
0.0
 10
91.007833
 20
311.150012
 30
0.0
 10
91.007833
 20
307.975012
 30
0.0
 10
65.343250
 20
307.975012
 30
0.0
 10
65.343250
 20
311.150012
 30
0.0
 10
39.943250
 20
311.150012
 30
0.0
 10
39.943250
 20
311.150012
 30
0.0
  0
SPLINE
  5
106
100
AcDbEntity
  8
Layer_1
 62
5
100
AcDbSpline
 70
8
 71
3
 72
8
 73
4
 74
0
 40
0
 40
0
 40
0
 40
0
 40
1
 40
1
 40
1
 40
1
 10
79.066305
 20
288.413484
 30
0.0
 10
79.165873
 20
288.418423
 30
0.0
 10
79.274162
 20
288.413484
 30
0.0
 10
79.375000
 20
288.413484
 30
0.0
  0
SPLINE
  5
107
100
AcDbEntity
  8
Layer_1
 62
5
100
AcDbSpline
 70
8
 71
3
 72
8
 73
4
 74
0
 40
0
 40
0
 40
0
 40
0
 40
1
 40
1
 40
1
 40
1
 10
79.375000
 20
288.413484
 30
0.0
 10
82.601421
 20
288.413484
 30
0.0
 10
85.213444
 20
285.801447
 30
0.0
 10
85.213444
 20
282.575012
 30
0.0
  0
SPLINE
  5
108
100
AcDbEntity
  8
Layer_1
 62
5
100
AcDbSpline
 70
8
 71
3
 72
8
 73
4
 74
0
 40
0
 40
0
 40
0
 40
0
 40
1
 40
1
 40
1
 40
1
 10
85.213444
 20
282.575012
 30
0.0
 10
85.213444
 20
279.348605
 30
0.0
 10
82.601421
 20
276.736537
 30
0.0
 10
79.375000
 20
276.736537
 30
0.0
  0
SPLINE
  5
109
100
AcDbEntity
  8
Layer_1
 62
5
100
AcDbSpline
 70
8
 71
3
 72
8
 73
4
 74
0
 40
0
 40
0
 40
0
 40
0
 40
1
 40
1
 40
1
 40
1
 10
79.375000
 20
276.736537
 30
0.0
 10
76.148523
 20
276.736537
 30
0.0
 10
73.527694
 20
279.348605
 30
0.0
 10
73.527694
 20
282.575012
 30
0.0
  0
SPLINE
  5
10a
100
AcDbEntity
  8
Layer_1
 62
5
100
AcDbSpline
 70
8
 71
3
 72
8
 73
4
 74
0
 40
0
 40
0
 40
0
 40
0
 40
1
 40
1
 40
1
 40
1
 10
73.527694
 20
282.575012
 30
0.0
 10
73.527694
 20
285.700623
 30
0.0
 10
75.979556
 20
288.257026
 30
0.0
 10
79.066305
 20
288.413484
 30
0.0
  0
LWPOLYLINE
  5
10b
100
AcDbEntity
  8
Layer_1
 62
5
100
AcDbPolyline
 90
2
 70
0
 10
28.266305
 20
288.413484
 30
0.0
 10
28.266305
 20
288.413484
 30
0.0
  0
SPLINE
  5
10c
100
AcDbEntity
  8
Layer_1
 62
5
100
AcDbSpline
 70
8
 71
3
 72
8
 73
4
 74
0
 40
0
 40
0
 40
0
 40
0
 40
1
 40
1
 40
1
 40
1
 10
129.866308
 20
288.413484
 30
0.0
 10
129.965876
 20
288.418423
 30
0.0
 10
130.074165
 20
288.413484
 30
0.0
 10
130.175003
 20
288.413484
 30
0.0
  0
SPLINE
  5
10d
100
AcDbEntity
  8
Layer_1
 62
5
100
AcDbSpline
 70
8
 71
3
 72
8
 73
4
 74
0
 40
0
 40
0
 40
0
 40
0
 40
1
 40
1
 40
1
 40
1
 10
130.175003
 20
288.413484
 30
0.0
 10
133.401424
 20
288.413484
 30
0.0
 10
136.013475
 20
285.801447
 30
0.0
 10
136.013447
 20
282.575012
 30
0.0
  0
SPLINE
  5
10e
100
AcDbEntity
  8
Layer_1
 62
5
100
AcDbSpline
 70
8
 71
3
 72
8
 73
4
 74
0
 40
0
 40
0
 40
0
 40
0
 40
1
 40
1
 40
1
 40
1
 10
136.013447
 20
282.575012
 30
0.0
 10
136.013447
 20
279.348605
 30
0.0
 10
133.401424
 20
276.736537
 30
0.0
 10
130.175003
 20
276.736537
 30
0.0
  0
SPLINE
  5
10f
100
AcDbEntity
  8
Layer_1
 62
5
100
AcDbSpline
 70
8
 71
3
 72
8
 73
4
 74
0
 40
0
 40
0
 40
0
 40
0
 40
1
 40
1
 40
1
 40
1
 10
130.175003
 20
276.736537
 30
0.0
 10
126.948551
 20
276.736537
 30
0.0
 10
124.327694
 20
279.348605
 30
0.0
 10
124.327694
 20
282.575012
 30
0.0
  0
SPLINE
  5
110
100
AcDbEntity
  8
Layer_1
 62
5
100
AcDbSpline
 70
8
 71
3
 72
8
 73
4
 74
0
 40
0
 40
0
 40
0
 40
0
 40
1
 40
1
 40
1
 40
1
 10
124.327694
 20
282.575012
 30
0.0
 10
124.327694
 20
285.700623
 30
0.0
 10
126.779584
 20
288.257026
 30
0.0
 10
129.866308
 20
288.413484
 30
0.0
  0
LWPOLYLINE
  5
111
100
AcDbEntity
  8
Layer_1
 62
5
100
AcDbPolyline
 90
2
 70
0
 10
79.066305
 20
288.413484
 30
0.0
 10
79.066305
 20
288.413484
 30
0.0
  0
SPLINE
  5
112
100
AcDbEntity
  8
Layer_1
 62
5
100
AcDbSpline
 70
8
 71
3
 72
8
 73
4
 74
0
 40
0
 40
0
 40
0
 40
0
 40
1
 40
1
 40
1
 40
1
 10
180.666308
 20
288.413484
 30
0.0
 10
180.765876
 20
288.418423
 30
0.0
 10
180.865331
 20
288.413484
 30
0.0
 10
180.966169
 20
288.413484
 30
0.0
  0
SPLINE
  5
113
100
AcDbEntity
  8
Layer_1
 62
5
100
AcDbSpline
 70
8
 71
3
 72
8
 73
4
 74
0
 40
0
 40
0
 40
0
 40
0
 40
1
 40
1
 40
1
 40
1
 10
180.966169
 20
288.413484
 30
0.0
 10
184.192647
 20
288.413484
 30
0.0
 10
186.813478
 20
285.801447
 30
0.0
 10
186.813447
 20
282.575012
 30
0.0
  0
SPLINE
  5
114
100
AcDbEntity
  8
Layer_1
 62
5
100
AcDbSpline
 70
8
 71
3
 72
8
 73
4
 74
0
 40
0
 40
0
 40
0
 40
0
 40
1
 40
1
 40
1
 40
1
 10
186.813447
 20
282.575012
 30
0.0
 10
186.813447
 20
279.348605
 30
0.0
 10
184.192647
 20
276.736537
 30
0.0
 10
180.966169
 20
276.736537
 30
0.0
  0
SPLINE
  5
115
100
AcDbEntity
  8
Layer_1
 62
5
100
AcDbSpline
 70
8
 71
3
 72
8
 73
4
 74
0
 40
0
 40
0
 40
0
 40
0
 40
1
 40
1
 40
1
 40
1
 10
180.966169
 20
276.736537
 30
0.0
 10
177.739748
 20
276.736537
 30
0.0
 10
175.127697
 20
279.348605
 30
0.0
 10
175.127697
 20
282.575012
 30
0.0
  0
SPLINE
  5
116
100
AcDbEntity
  8
Layer_1
 62
5
100
AcDbSpline
 70
8
 71
3
 72
8
 73
4
 74
0
 40
0
 40
0
 40
0
 40
0
 40
1
 40
1
 40
1
 40
1
 10
175.127697
 20
282.575012
 30
0.0
 10
175.127697
 20
285.700623
 30
0.0
 10
177.579587
 20
288.257026
 30
0.0
 10
180.666308
 20
288.413484
 30
0.0
  0
LWPOLYLINE
  5
117
100
AcDbEntity
  8
Layer_1
 62
5
100
AcDbPolyline
 90
2
 70
0
 10
129.866308
 20
288.413484
 30
0.0
 10
129.866308
 20
288.413484
 30
0.0
  0
SPLINE
  5
118
100
AcDbEntity
  8
Layer_1
 62
5
100
AcDbSpline
 70
8
 71
3
 72
8
 73
4
 74
0
 40
0
 40
0
 40
0
 40
0
 40
1
 40
1
 40
1
 40
1
 10
231.466314
 20
288.413484
 30
0.0
 10
231.565882
 20
288.418423
 30
0.0
 10
231.674170
 20
288.413484
 30
0.0
 10
231.775008
 20
288.413484
 30
0.0
  0
SPLINE
  5
119
100
AcDbEntity
  8
Layer_1
 62
5
100
AcDbSpline
 70
8
 71
3
 72
8
 73
4
 74
0
 40
0
 40
0
 40
0
 40
0
 40
1
 40
1
 40
1
 40
1
 10
231.775008
 20
288.413484
 30
0.0
 10
235.001458
 20
288.413484
 30
0.0
 10
237.613481
 20
285.801447
 30
0.0
 10
237.613452
 20
282.575012
 30
0.0
  0
SPLINE
  5
11a
100
AcDbEntity
  8
Layer_1
 62
5
100
AcDbSpline
 70
8
 71
3
 72
8
 73
4
 74
0
 40
0
 40
0
 40
0
 40
0
 40
1
 40
1
 40
1
 40
1
 10
237.613452
 20
282.575012
 30
0.0
 10
237.613452
 20
279.348605
 30
0.0
 10
235.001458
 20
276.736537
 30
0.0
 10
231.775008
 20
276.736537
 30
0.0
  0
SPLINE
  5
11b
100
AcDbEntity
  8
Layer_1
 62
5
100
AcDbSpline
 70
8
 71
3
 72
8
 73
4
 74
0
 40
0
 40
0
 40
0
 40
0
 40
1
 40
1
 40
1
 40
1
 10
231.775008
 20
276.736537
 30
0.0
 10
228.548559
 20
276.736537
 30
0.0
 10
225.927703
 20
279.348605
 30
0.0
 10
225.927703
 20
282.575012
 30
0.0
  0
SPLINE
  5
11c
100
AcDbEntity
  8
Layer_1
 62
5
100
AcDbSpline
 70
8
 71
3
 72
8
 73
4
 74
0
 40
0
 40
0
 40
0
 40
0
 40
1
 40
1
 40
1
 40
1
 10
225.927703
 20
282.575012
 30
0.0
 10
225.927703
 20
285.700623
 30
0.0
 10
228.379593
 20
288.257026
 30
0.0
 10
231.466314
 20
288.413484
 30
0.0
  0
LWPOLYLINE
  5
11d
100
AcDbEntity
  8
Layer_1
 62
5
100
AcDbPolyline
 90
2
 70
0
 10
180.666308
 20
288.413484
 30
0.0
 10
180.666308
 20
288.413484
 30
0.0
  0
SPLINE
  5
11e
100
AcDbEntity
  8
Layer_1
 62
5
100
AcDbSpline
 70
8
 71
3
 72
8
 73
4
 74
0
 40
0
 40
0
 40
0
 40
0
 40
1
 40
1
 40
1
 40
1
 10
282.266305
 20
288.413484
 30
0.0
 10
282.365873
 20
288.418423
 30
0.0
 10
282.474162
 20
288.413484
 30
0.0
 10
282.575000
 20
288.413484
 30
0.0
  0
SPLINE
  5
11f
100
AcDbEntity
  8
Layer_1
 62
5
100
AcDbSpline
 70
8
 71
3
 72
8
 73
4
 74
0
 40
0
 40
0
 40
0
 40
0
 40
1
 40
1
 40
1
 40
1
 10
282.575000
 20
288.413484
 30
0.0
 10
285.801449
 20
288.413484
 30
0.0
 10
288.413444
 20
285.801447
 30
0.0
 10
288.413444
 20
282.575012
 30
0.0
  0
SPLINE
  5
120
100
AcDbEntity
  8
Layer_1
 62
5
100
AcDbSpline
 70
8
 71
3
 72
8
 73
4
 74
0
 40
0
 40
0
 40
0
 40
0
 40
1
 40
1
 40
1
 40
1
 10
288.413444
 20
282.575012
 30
0.0
 10
288.413444
 20
279.348605
 30
0.0
 10
285.801449
 20
276.736537
 30
0.0
 10
282.575000
 20
276.736537
 30
0.0
  0
SPLINE
  5
121
100
AcDbEntity
  8
Layer_1
 62
5
100
AcDbSpline
 70
8
 71
3
 72
8
 73
4
 74
0
 40
0
 40
0
 40
0
 40
0
 40
1
 40
1
 40
1
 40
1
 10
282.575000
 20
276.736537
 30
0.0
 10
279.348559
 20
276.736537
 30
0.0
 10
276.727703
 20
279.348605
 30
0.0
 10
276.727703
 20
282.575012
 30
0.0
  0
SPLINE
  5
122
100
AcDbEntity
  8
Layer_1
 62
5
100
AcDbSpline
 70
8
 71
3
 72
8
 73
4
 74
0
 40
0
 40
0
 40
0
 40
0
 40
1
 40
1
 40
1
 40
1
 10
276.727703
 20
282.575012
 30
0.0
 10
276.727703
 20
285.700623
 30
0.0
 10
279.179593
 20
288.257026
 30
0.0
 10
282.266305
 20
288.413484
 30
0.0
  0
LWPOLYLINE
  5
123
100
AcDbEntity
  8
Layer_1
 62
5
100
AcDbPolyline
 90
2
 70
0
 10
231.466314
 20
288.413484
 30
0.0
 10
231.466314
 20
288.413484
 30
0.0
  0
SPLINE
  5
124
100
AcDbEntity
  8
Layer_1
 62
5
100
AcDbSpline
 70
8
 71
3
 72
8
 73
4
 74
0
 40
0
 40
0
 40
0
 40
0
 40
1
 40
1
 40
1
 40
1
 10
333.066334
 20
288.413484
 30
0.0
 10
333.165873
 20
288.418423
 30
0.0
 10
333.274190
 20
288.413484
 30
0.0
 10
333.375000
 20
288.413484
 30
0.0
  0
SPLINE
  5
125
100
AcDbEntity
  8
Layer_1
 62
5
100
AcDbSpline
 70
8
 71
3
 72
8
 73
4
 74
0
 40
0
 40
0
 40
0
 40
0
 40
1
 40
1
 40
1
 40
1
 10
333.375000
 20
288.413484
 30
0.0
 10
336.601449
 20
288.413484
 30
0.0
 10
339.213472
 20
285.801447
 30
0.0
 10
339.213472
 20
282.575012
 30
0.0
  0
SPLINE
  5
126
100
AcDbEntity
  8
Layer_1
 62
5
100
AcDbSpline
 70
8
 71
3
 72
8
 73
4
 74
0
 40
0
 40
0
 40
0
 40
0
 40
1
 40
1
 40
1
 40
1
 10
339.213472
 20
282.575012
 30
0.0
 10
339.213472
 20
279.348605
 30
0.0
 10
336.601449
 20
276.736537
 30
0.0
 10
333.375000
 20
276.736537
 30
0.0
  0
SPLINE
  5
127
100
AcDbEntity
  8
Layer_1
 62
5
100
AcDbSpline
 70
8
 71
3
 72
8
 73
4
 74
0
 40
0
 40
0
 40
0
 40
0
 40
1
 40
1
 40
1
 40
1
 10
333.375000
 20
276.736537
 30
0.0
 10
330.148523
 20
276.736537
 30
0.0
 10
327.527722
 20
279.348605
 30
0.0
 10
327.527722
 20
282.575012
 30
0.0
  0
SPLINE
  5
128
100
AcDbEntity
  8
Layer_1
 62
5
100
AcDbSpline
 70
8
 71
3
 72
8
 73
4
 74
0
 40
0
 40
0
 40
0
 40
0
 40
1
 40
1
 40
1
 40
1
 10
327.527722
 20
282.575012
 30
0.0
 10
327.527722
 20
285.700623
 30
0.0
 10
329.979584
 20
288.257026
 30
0.0
 10
333.066334
 20
288.413484
 30
0.0
  0
LWPOLYLINE
  5
129
100
AcDbEntity
  8
Layer_1
 62
5
100
AcDbPolyline
 90
2
 70
0
 10
282.266305
 20
288.413484
 30
0.0
 10
282.266305
 20
288.413484
 30
0.0
  0
SPLINE
  5
12a
100
AcDbEntity
  8
Layer_1
 62
5
100
AcDbSpline
 70
8
 71
3
 72
8
 73
4
 74
0
 40
0
 40
0
 40
0
 40
0
 40
1
 40
1
 40
1
 40
1
 10
383.866305
 20
288.413484
 30
0.0
 10
383.965902
 20
288.418423
 30
0.0
 10
384.065357
 20
288.413484
 30
0.0
 10
384.166166
 20
288.413484
 30
0.0
  0
SPLINE
  5
12b
100
AcDbEntity
  8
Layer_1
 62
5
100
AcDbSpline
 70
8
 71
3
 72
8
 73
4
 74
0
 40
0
 40
0
 40
0
 40
0
 40
1
 40
1
 40
1
 40
1
 10
384.166166
 20
288.413484
 30
0.0
 10
387.392616
 20
288.413484
 30
0.0
 10
390.013472
 20
285.801447
 30
0.0
 10
390.013472
 20
282.575012
 30
0.0
  0
SPLINE
  5
12c
100
AcDbEntity
  8
Layer_1
 62
5
100
AcDbSpline
 70
8
 71
3
 72
8
 73
4
 74
0
 40
0
 40
0
 40
0
 40
0
 40
1
 40
1
 40
1
 40
1
 10
390.013472
 20
282.575012
 30
0.0
 10
390.013472
 20
279.348605
 30
0.0
 10
387.392616
 20
276.736537
 30
0.0
 10
384.166166
 20
276.736537
 30
0.0
  0
SPLINE
  5
12d
100
AcDbEntity
  8
Layer_1
 62
5
100
AcDbSpline
 70
8
 71
3
 72
8
 73
4
 74
0
 40
0
 40
0
 40
0
 40
0
 40
1
 40
1
 40
1
 40
1
 10
384.166166
 20
276.736537
 30
0.0
 10
380.939689
 20
276.736537
 30
0.0
 10
378.327694
 20
279.348605
 30
0.0
 10
378.327694
 20
282.575012
 30
0.0
  0
SPLINE
  5
12e
100
AcDbEntity
  8
Layer_1
 62
5
100
AcDbSpline
 70
8
 71
3
 72
8
 73
4
 74
0
 40
0
 40
0
 40
0
 40
0
 40
1
 40
1
 40
1
 40
1
 10
378.327694
 20
282.575012
 30
0.0
 10
378.327694
 20
285.700623
 30
0.0
 10
380.779584
 20
288.257026
 30
0.0
 10
383.866305
 20
288.413484
 30
0.0
  0
LWPOLYLINE
  5
12f
100
AcDbEntity
  8
Layer_1
 62
5
100
AcDbPolyline
 90
2
 70
0
 10
333.066334
 20
288.413484
 30
0.0
 10
333.066334
 20
288.413484
 30
0.0
  0
SPLINE
  5
130
100
AcDbEntity
  8
Layer_1
 62
5
100
AcDbSpline
 70
8
 71
3
 72
8
 73
4
 74
0
 40
0
 40
0
 40
0
 40
0
 40
1
 40
1
 40
1
 40
1
 10
434.666305
 20
288.413484
 30
0.0
 10
434.765902
 20
288.418423
 30
0.0
 10
434.874162
 20
288.413484
 30
0.0
 10
434.975028
 20
288.413484
 30
0.0
  0
SPLINE
  5
131
100
AcDbEntity
  8
Layer_1
 62
5
100
AcDbSpline
 70
8
 71
3
 72
8
 73
4
 74
0
 40
0
 40
0
 40
0
 40
0
 40
1
 40
1
 40
1
 40
1
 10
434.975028
 20
288.413484
 30
0.0
 10
438.201421
 20
288.413484
 30
0.0
 10
440.813472
 20
285.801447
 30
0.0
 10
440.813472
 20
282.575012
 30
0.0
  0
SPLINE
  5
132
100
AcDbEntity
  8
Layer_1
 62
5
100
AcDbSpline
 70
8
 71
3
 72
8
 73
4
 74
0
 40
0
 40
0
 40
0
 40
0
 40
1
 40
1
 40
1
 40
1
 10
440.813472
 20
282.575012
 30
0.0
 10
440.813472
 20
279.348605
 30
0.0
 10
438.201421
 20
276.736537
 30
0.0
 10
434.975028
 20
276.736537
 30
0.0
  0
SPLINE
  5
133
100
AcDbEntity
  8
Layer_1
 62
5
100
AcDbSpline
 70
8
 71
3
 72
8
 73
4
 74
0
 40
0
 40
0
 40
0
 40
0
 40
1
 40
1
 40
1
 40
1
 10
434.975028
 20
276.736537
 30
0.0
 10
431.748523
 20
276.736537
 30
0.0
 10
429.127694
 20
279.348605
 30
0.0
 10
429.127694
 20
282.575012
 30
0.0
  0
SPLINE
  5
134
100
AcDbEntity
  8
Layer_1
 62
5
100
AcDbSpline
 70
8
 71
3
 72
8
 73
4
 74
0
 40
0
 40
0
 40
0
 40
0
 40
1
 40
1
 40
1
 40
1
 10
429.127694
 20
282.575012
 30
0.0
 10
429.127694
 20
285.700623
 30
0.0
 10
431.579584
 20
288.257026
 30
0.0
 10
434.666305
 20
288.413484
 30
0.0
  0
LWPOLYLINE
  5
135
100
AcDbEntity
  8
Layer_1
 62
5
100
AcDbPolyline
 90
2
 70
0
 10
383.866305
 20
288.413484
 30
0.0
 10
383.866305
 20
288.413484
 30
0.0
  0
SPLINE
  5
136
100
AcDbEntity
  8
Layer_1
 62
5
100
AcDbSpline
 70
8
 71
3
 72
8
 73
4
 74
0
 40
0
 40
0
 40
0
 40
0
 40
1
 40
1
 40
1
 40
1
 10
485.466305
 20
288.413484
 30
0.0
 10
485.565902
 20
288.418423
 30
0.0
 10
485.674162
 20
288.413484
 30
0.0
 10
485.775028
 20
288.413484
 30
0.0
  0
SPLINE
  5
137
100
AcDbEntity
  8
Layer_1
 62
5
100
AcDbSpline
 70
8
 71
3
 72
8
 73
4
 74
0
 40
0
 40
0
 40
0
 40
0
 40
1
 40
1
 40
1
 40
1
 10
485.775028
 20
288.413484
 30
0.0
 10
489.001421
 20
288.413484
 30
0.0
 10
491.613472
 20
285.801447
 30
0.0
 10
491.613472
 20
282.575012
 30
0.0
  0
SPLINE
  5
138
100
AcDbEntity
  8
Layer_1
 62
5
100
AcDbSpline
 70
8
 71
3
 72
8
 73
4
 74
0
 40
0
 40
0
 40
0
 40
0
 40
1
 40
1
 40
1
 40
1
 10
491.613472
 20
282.575012
 30
0.0
 10
491.613472
 20
279.348605
 30
0.0
 10
489.001421
 20
276.736537
 30
0.0
 10
485.775028
 20
276.736537
 30
0.0
  0
SPLINE
  5
139
100
AcDbEntity
  8
Layer_1
 62
5
100
AcDbSpline
 70
8
 71
3
 72
8
 73
4
 74
0
 40
0
 40
0
 40
0
 40
0
 40
1
 40
1
 40
1
 40
1
 10
485.775028
 20
276.736537
 30
0.0
 10
482.548523
 20
276.736537
 30
0.0
 10
479.927694
 20
279.348605
 30
0.0
 10
479.927694
 20
282.575012
 30
0.0
  0
SPLINE
  5
13a
100
AcDbEntity
  8
Layer_1
 62
5
100
AcDbSpline
 70
8
 71
3
 72
8
 73
4
 74
0
 40
0
 40
0
 40
0
 40
0
 40
1
 40
1
 40
1
 40
1
 10
479.927694
 20
282.575012
 30
0.0
 10
479.927694
 20
285.700623
 30
0.0
 10
482.379584
 20
288.257026
 30
0.0
 10
485.466305
 20
288.413484
 30
0.0
  0
LWPOLYLINE
  5
13b
100
AcDbEntity
  8
Layer_1
 62
5
100
AcDbPolyline
 90
2
 70
0
 10
434.666305
 20
288.413484
 30
0.0
 10
434.666305
 20
288.413484
 30
0.0
  0
SPLINE
  5
13c
100
AcDbEntity
  8
Layer_1
 62
5
100
AcDbSpline
 70
8
 71
3
 72
8
 73
4
 74
0
 40
0
 40
0
 40
0
 40
0
 40
1
 40
1
 40
1
 40
1
 10
536.266305
 20
288.413484
 30
0.0
 10
536.365902
 20
288.418423
 30
0.0
 10
536.474162
 20
288.413484
 30
0.0
 10
536.575000
 20
288.413484
 30
0.0
  0
SPLINE
  5
13d
100
AcDbEntity
  8
Layer_1
 62
5
100
AcDbSpline
 70
8
 71
3
 72
8
 73
4
 74
0
 40
0
 40
0
 40
0
 40
0
 40
1
 40
1
 40
1
 40
1
 10
536.575000
 20
288.413484
 30
0.0
 10
539.801421
 20
288.413484
 30
0.0
 10
542.413472
 20
285.801447
 30
0.0
 10
542.413472
 20
282.575012
 30
0.0
  0
SPLINE
  5
13e
100
AcDbEntity
  8
Layer_1
 62
5
100
AcDbSpline
 70
8
 71
3
 72
8
 73
4
 74
0
 40
0
 40
0
 40
0
 40
0
 40
1
 40
1
 40
1
 40
1
 10
542.413472
 20
282.575012
 30
0.0
 10
542.413472
 20
279.348605
 30
0.0
 10
539.801421
 20
276.736537
 30
0.0
 10
536.575000
 20
276.736537
 30
0.0
  0
SPLINE
  5
13f
100
AcDbEntity
  8
Layer_1
 62
5
100
AcDbSpline
 70
8
 71
3
 72
8
 73
4
 74
0
 40
0
 40
0
 40
0
 40
0
 40
1
 40
1
 40
1
 40
1
 10
536.575000
 20
276.736537
 30
0.0
 10
533.348523
 20
276.736537
 30
0.0
 10
530.727694
 20
279.348605
 30
0.0
 10
530.727694
 20
282.575012
 30
0.0
  0
SPLINE
  5
140
100
AcDbEntity
  8
Layer_1
 62
5
100
AcDbSpline
 70
8
 71
3
 72
8
 73
4
 74
0
 40
0
 40
0
 40
0
 40
0
 40
1
 40
1
 40
1
 40
1
 10
530.727694
 20
282.575012
 30
0.0
 10
530.727694
 20
285.700623
 30
0.0
 10
533.179584
 20
288.257026
 30
0.0
 10
536.266305
 20
288.413484
 30
0.0
  0
LWPOLYLINE
  5
141
100
AcDbEntity
  8
Layer_1
 62
5
100
AcDbPolyline
 90
2
 70
0
 10
485.466305
 20
288.413484
 30
0.0
 10
485.466305
 20
288.413484
 30
0.0
  0
SPLINE
  5
142
100
AcDbEntity
  8
Layer_1
 62
5
100
AcDbSpline
 70
8
 71
3
 72
8
 73
4
 74
0
 40
0
 40
0
 40
0
 40
0
 40
1
 40
1
 40
1
 40
1
 10
587.066277
 20
288.413484
 30
0.0
 10
587.165873
 20
288.418423
 30
0.0
 10
587.274134
 20
288.413484
 30
0.0
 10
587.374972
 20
288.413484
 30
0.0
  0
SPLINE
  5
143
100
AcDbEntity
  8
Layer_1
 62
5
100
AcDbSpline
 70
8
 71
3
 72
8
 73
4
 74
0
 40
0
 40
0
 40
0
 40
0
 40
1
 40
1
 40
1
 40
1
 10
587.374972
 20
288.413484
 30
0.0
 10
590.601393
 20
288.413484
 30
0.0
 10
593.213444
 20
285.801447
 30
0.0
 10
593.213444
 20
282.575012
 30
0.0
  0
SPLINE
  5
144
100
AcDbEntity
  8
Layer_1
 62
5
100
AcDbSpline
 70
8
 71
3
 72
8
 73
4
 74
0
 40
0
 40
0
 40
0
 40
0
 40
1
 40
1
 40
1
 40
1
 10
593.213444
 20
282.575012
 30
0.0
 10
593.213444
 20
279.348605
 30
0.0
 10
590.601393
 20
276.736537
 30
0.0
 10
587.374972
 20
276.736537
 30
0.0
  0
SPLINE
  5
145
100
AcDbEntity
  8
Layer_1
 62
5
100
AcDbSpline
 70
8
 71
3
 72
8
 73
4
 74
0
 40
0
 40
0
 40
0
 40
0
 40
1
 40
1
 40
1
 40
1
 10
587.374972
 20
276.736537
 30
0.0
 10
584.148494
 20
276.736537
 30
0.0
 10
581.527666
 20
279.348605
 30
0.0
 10
581.527666
 20
282.575012
 30
0.0
  0
SPLINE
  5
146
100
AcDbEntity
  8
Layer_1
 62
5
100
AcDbSpline
 70
8
 71
3
 72
8
 73
4
 74
0
 40
0
 40
0
 40
0
 40
0
 40
1
 40
1
 40
1
 40
1
 10
581.527666
 20
282.575012
 30
0.0
 10
581.527666
 20
285.700623
 30
0.0
 10
583.979556
 20
288.257026
 30
0.0
 10
587.066277
 20
288.413484
 30
0.0
  0
LWPOLYLINE
  5
147
100
AcDbEntity
  8
Layer_1
 62
5
100
AcDbPolyline
 90
2
 70
0
 10
536.266305
 20
288.413484
 30
0.0
 10
536.266305
 20
288.413484
 30
0.0
  0
SPLINE
  5
148
100
AcDbEntity
  8
Layer_1
 62
5
100
AcDbSpline
 70
8
 71
3
 72
8
 73
4
 74
0
 40
0
 40
0
 40
0
 40
0
 40
1
 40
1
 40
1
 40
1
 10
28.266305
 20
237.613479
 30
0.0
 10
28.365873
 20
237.618418
 30
0.0
 10
28.474162
 20
237.613479
 30
0.0
 10
28.575000
 20
237.613479
 30
0.0
  0
SPLINE
  5
149
100
AcDbEntity
  8
Layer_1
 62
5
100
AcDbSpline
 70
8
 71
3
 72
8
 73
4
 74
0
 40
0
 40
0
 40
0
 40
0
 40
1
 40
1
 40
1
 40
1
 10
28.575000
 20
237.613479
 30
0.0
 10
31.801421
 20
237.613479
 30
0.0
 10
34.413444
 20
235.001442
 30
0.0
 10
34.413444
 20
231.774999
 30
0.0
  0
SPLINE
  5
14a
100
AcDbEntity
  8
Layer_1
 62
5
100
AcDbSpline
 70
8
 71
3
 72
8
 73
4
 74
0
 40
0
 40
0
 40
0
 40
0
 40
1
 40
1
 40
1
 40
1
 10
34.413444
 20
231.774999
 30
0.0
 10
34.413444
 20
228.548606
 30
0.0
 10
31.801421
 20
225.936526
 30
0.0
 10
28.575000
 20
225.936526
 30
0.0
  0
SPLINE
  5
14b
100
AcDbEntity
  8
Layer_1
 62
5
100
AcDbSpline
 70
8
 71
3
 72
8
 73
4
 74
0
 40
0
 40
0
 40
0
 40
0
 40
1
 40
1
 40
1
 40
1
 10
28.575000
 20
225.936526
 30
0.0
 10
25.348522
 20
225.936526
 30
0.0
 10
22.727693
 20
228.548606
 30
0.0
 10
22.727693
 20
231.774999
 30
0.0
  0
SPLINE
  5
14c
100
AcDbEntity
  8
Layer_1
 62
5
100
AcDbSpline
 70
8
 71
3
 72
8
 73
4
 74
0
 40
0
 40
0
 40
0
 40
0
 40
1
 40
1
 40
1
 40
1
 10
22.727693
 20
231.774999
 30
0.0
 10
22.727693
 20
234.900618
 30
0.0
 10
25.179555
 20
237.457026
 30
0.0
 10
28.266305
 20
237.613479
 30
0.0
  0
LWPOLYLINE
  5
14d
100
AcDbEntity
  8
Layer_1
 62
5
100
AcDbPolyline
 90
2
 70
0
 10
587.066277
 20
288.413484
 30
0.0
 10
587.066277
 20
288.413484
 30
0.0
  0
SPLINE
  5
14e
100
AcDbEntity
  8
Layer_1
 62
5
100
AcDbSpline
 70
8
 71
3
 72
8
 73
4
 74
0
 40
0
 40
0
 40
0
 40
0
 40
1
 40
1
 40
1
 40
1
 10
79.066305
 20
237.613479
 30
0.0
 10
79.165873
 20
237.618418
 30
0.0
 10
79.274162
 20
237.613479
 30
0.0
 10
79.375000
 20
237.613479
 30
0.0
  0
SPLINE
  5
14f
100
AcDbEntity
  8
Layer_1
 62
5
100
AcDbSpline
 70
8
 71
3
 72
8
 73
4
 74
0
 40
0
 40
0
 40
0
 40
0
 40
1
 40
1
 40
1
 40
1
 10
79.375000
 20
237.613479
 30
0.0
 10
82.601421
 20
237.613479
 30
0.0
 10
85.213444
 20
235.001442
 30
0.0
 10
85.213444
 20
231.774999
 30
0.0
  0
SPLINE
  5
150
100
AcDbEntity
  8
Layer_1
 62
5
100
AcDbSpline
 70
8
 71
3
 72
8
 73
4
 74
0
 40
0
 40
0
 40
0
 40
0
 40
1
 40
1
 40
1
 40
1
 10
85.213444
 20
231.774999
 30
0.0
 10
85.213444
 20
228.548606
 30
0.0
 10
82.601421
 20
225.936526
 30
0.0
 10
79.375000
 20
225.936526
 30
0.0
  0
SPLINE
  5
151
100
AcDbEntity
  8
Layer_1
 62
5
100
AcDbSpline
 70
8
 71
3
 72
8
 73
4
 74
0
 40
0
 40
0
 40
0
 40
0
 40
1
 40
1
 40
1
 40
1
 10
79.375000
 20
225.936526
 30
0.0
 10
76.148523
 20
225.936526
 30
0.0
 10
73.527694
 20
228.548606
 30
0.0
 10
73.527694
 20
231.774999
 30
0.0
  0
SPLINE
  5
152
100
AcDbEntity
  8
Layer_1
 62
5
100
AcDbSpline
 70
8
 71
3
 72
8
 73
4
 74
0
 40
0
 40
0
 40
0
 40
0
 40
1
 40
1
 40
1
 40
1
 10
73.527694
 20
231.774999
 30
0.0
 10
73.527694
 20
234.900618
 30
0.0
 10
75.979556
 20
237.457026
 30
0.0
 10
79.066305
 20
237.613479
 30
0.0
  0
LWPOLYLINE
  5
153
100
AcDbEntity
  8
Layer_1
 62
5
100
AcDbPolyline
 90
2
 70
0
 10
28.266305
 20
237.613479
 30
0.0
 10
28.266305
 20
237.613479
 30
0.0
  0
SPLINE
  5
154
100
AcDbEntity
  8
Layer_1
 62
5
100
AcDbSpline
 70
8
 71
3
 72
8
 73
4
 74
0
 40
0
 40
0
 40
0
 40
0
 40
1
 40
1
 40
1
 40
1
 10
129.866308
 20
237.613479
 30
0.0
 10
129.965876
 20
237.618418
 30
0.0
 10
130.074165
 20
237.613479
 30
0.0
 10
130.175003
 20
237.613479
 30
0.0
  0
SPLINE
  5
155
100
AcDbEntity
  8
Layer_1
 62
5
100
AcDbSpline
 70
8
 71
3
 72
8
 73
4
 74
0
 40
0
 40
0
 40
0
 40
0
 40
1
 40
1
 40
1
 40
1
 10
130.175003
 20
237.613479
 30
0.0
 10
133.401424
 20
237.613479
 30
0.0
 10
136.013475
 20
235.001442
 30
0.0
 10
136.013447
 20
231.774999
 30
0.0
  0
SPLINE
  5
156
100
AcDbEntity
  8
Layer_1
 62
5
100
AcDbSpline
 70
8
 71
3
 72
8
 73
4
 74
0
 40
0
 40
0
 40
0
 40
0
 40
1
 40
1
 40
1
 40
1
 10
136.013447
 20
231.774999
 30
0.0
 10
136.013447
 20
228.548606
 30
0.0
 10
133.401424
 20
225.936526
 30
0.0
 10
130.175003
 20
225.936526
 30
0.0
  0
SPLINE
  5
157
100
AcDbEntity
  8
Layer_1
 62
5
100
AcDbSpline
 70
8
 71
3
 72
8
 73
4
 74
0
 40
0
 40
0
 40
0
 40
0
 40
1
 40
1
 40
1
 40
1
 10
130.175003
 20
225.936526
 30
0.0
 10
126.948551
 20
225.936526
 30
0.0
 10
124.327694
 20
228.548606
 30
0.0
 10
124.327694
 20
231.774999
 30
0.0
  0
SPLINE
  5
158
100
AcDbEntity
  8
Layer_1
 62
5
100
AcDbSpline
 70
8
 71
3
 72
8
 73
4
 74
0
 40
0
 40
0
 40
0
 40
0
 40
1
 40
1
 40
1
 40
1
 10
124.327694
 20
231.774999
 30
0.0
 10
124.327694
 20
234.900618
 30
0.0
 10
126.779584
 20
237.457026
 30
0.0
 10
129.866308
 20
237.613479
 30
0.0
  0
LWPOLYLINE
  5
159
100
AcDbEntity
  8
Layer_1
 62
5
100
AcDbPolyline
 90
2
 70
0
 10
79.066305
 20
237.613479
 30
0.0
 10
79.066305
 20
237.613479
 30
0.0
  0
SPLINE
  5
15a
100
AcDbEntity
  8
Layer_1
 62
5
100
AcDbSpline
 70
8
 71
3
 72
8
 73
4
 74
0
 40
0
 40
0
 40
0
 40
0
 40
1
 40
1
 40
1
 40
1
 10
180.666308
 20
237.613479
 30
0.0
 10
180.765876
 20
237.618418
 30
0.0
 10
180.865331
 20
237.613479
 30
0.0
 10
180.966169
 20
237.613479
 30
0.0
  0
SPLINE
  5
15b
100
AcDbEntity
  8
Layer_1
 62
5
100
AcDbSpline
 70
8
 71
3
 72
8
 73
4
 74
0
 40
0
 40
0
 40
0
 40
0
 40
1
 40
1
 40
1
 40
1
 10
180.966169
 20
237.613479
 30
0.0
 10
184.192647
 20
237.613479
 30
0.0
 10
186.813478
 20
235.001442
 30
0.0
 10
186.813447
 20
231.774999
 30
0.0
  0
SPLINE
  5
15c
100
AcDbEntity
  8
Layer_1
 62
5
100
AcDbSpline
 70
8
 71
3
 72
8
 73
4
 74
0
 40
0
 40
0
 40
0
 40
0
 40
1
 40
1
 40
1
 40
1
 10
186.813447
 20
231.774999
 30
0.0
 10
186.813447
 20
228.548606
 30
0.0
 10
184.192647
 20
225.936526
 30
0.0
 10
180.966169
 20
225.936526
 30
0.0
  0
SPLINE
  5
15d
100
AcDbEntity
  8
Layer_1
 62
5
100
AcDbSpline
 70
8
 71
3
 72
8
 73
4
 74
0
 40
0
 40
0
 40
0
 40
0
 40
1
 40
1
 40
1
 40
1
 10
180.966169
 20
225.936526
 30
0.0
 10
177.739748
 20
225.936526
 30
0.0
 10
175.127697
 20
228.548606
 30
0.0
 10
175.127697
 20
231.774999
 30
0.0
  0
SPLINE
  5
15e
100
AcDbEntity
  8
Layer_1
 62
5
100
AcDbSpline
 70
8
 71
3
 72
8
 73
4
 74
0
 40
0
 40
0
 40
0
 40
0
 40
1
 40
1
 40
1
 40
1
 10
175.127697
 20
231.774999
 30
0.0
 10
175.127697
 20
234.900618
 30
0.0
 10
177.579587
 20
237.457026
 30
0.0
 10
180.666308
 20
237.613479
 30
0.0
  0
LWPOLYLINE
  5
15f
100
AcDbEntity
  8
Layer_1
 62
5
100
AcDbPolyline
 90
2
 70
0
 10
129.866308
 20
237.613479
 30
0.0
 10
129.866308
 20
237.613479
 30
0.0
  0
SPLINE
  5
160
100
AcDbEntity
  8
Layer_1
 62
5
100
AcDbSpline
 70
8
 71
3
 72
8
 73
4
 74
0
 40
0
 40
0
 40
0
 40
0
 40
1
 40
1
 40
1
 40
1
 10
231.466314
 20
237.613479
 30
0.0
 10
231.565882
 20
237.618418
 30
0.0
 10
231.674170
 20
237.613479
 30
0.0
 10
231.775008
 20
237.613479
 30
0.0
  0
SPLINE
  5
161
100
AcDbEntity
  8
Layer_1
 62
5
100
AcDbSpline
 70
8
 71
3
 72
8
 73
4
 74
0
 40
0
 40
0
 40
0
 40
0
 40
1
 40
1
 40
1
 40
1
 10
231.775008
 20
237.613479
 30
0.0
 10
235.001458
 20
237.613479
 30
0.0
 10
237.613481
 20
235.001442
 30
0.0
 10
237.613452
 20
231.774999
 30
0.0
  0
SPLINE
  5
162
100
AcDbEntity
  8
Layer_1
 62
5
100
AcDbSpline
 70
8
 71
3
 72
8
 73
4
 74
0
 40
0
 40
0
 40
0
 40
0
 40
1
 40
1
 40
1
 40
1
 10
237.613452
 20
231.774999
 30
0.0
 10
237.613452
 20
228.548606
 30
0.0
 10
235.001458
 20
225.936526
 30
0.0
 10
231.775008
 20
225.936526
 30
0.0
  0
SPLINE
  5
163
100
AcDbEntity
  8
Layer_1
 62
5
100
AcDbSpline
 70
8
 71
3
 72
8
 73
4
 74
0
 40
0
 40
0
 40
0
 40
0
 40
1
 40
1
 40
1
 40
1
 10
231.775008
 20
225.936526
 30
0.0
 10
228.548559
 20
225.936526
 30
0.0
 10
225.927703
 20
228.548606
 30
0.0
 10
225.927703
 20
231.774999
 30
0.0
  0
SPLINE
  5
164
100
AcDbEntity
  8
Layer_1
 62
5
100
AcDbSpline
 70
8
 71
3
 72
8
 73
4
 74
0
 40
0
 40
0
 40
0
 40
0
 40
1
 40
1
 40
1
 40
1
 10
225.927703
 20
231.774999
 30
0.0
 10
225.927703
 20
234.900618
 30
0.0
 10
228.379593
 20
237.457026
 30
0.0
 10
231.466314
 20
237.613479
 30
0.0
  0
LWPOLYLINE
  5
165
100
AcDbEntity
  8
Layer_1
 62
5
100
AcDbPolyline
 90
2
 70
0
 10
180.666308
 20
237.613479
 30
0.0
 10
180.666308
 20
237.613479
 30
0.0
  0
SPLINE
  5
166
100
AcDbEntity
  8
Layer_1
 62
5
100
AcDbSpline
 70
8
 71
3
 72
8
 73
4
 74
0
 40
0
 40
0
 40
0
 40
0
 40
1
 40
1
 40
1
 40
1
 10
282.266305
 20
237.613479
 30
0.0
 10
282.365873
 20
237.618418
 30
0.0
 10
282.474162
 20
237.613479
 30
0.0
 10
282.575000
 20
237.613479
 30
0.0
  0
SPLINE
  5
167
100
AcDbEntity
  8
Layer_1
 62
5
100
AcDbSpline
 70
8
 71
3
 72
8
 73
4
 74
0
 40
0
 40
0
 40
0
 40
0
 40
1
 40
1
 40
1
 40
1
 10
282.575000
 20
237.613479
 30
0.0
 10
285.801449
 20
237.613479
 30
0.0
 10
288.413444
 20
235.001442
 30
0.0
 10
288.413444
 20
231.774999
 30
0.0
  0
SPLINE
  5
168
100
AcDbEntity
  8
Layer_1
 62
5
100
AcDbSpline
 70
8
 71
3
 72
8
 73
4
 74
0
 40
0
 40
0
 40
0
 40
0
 40
1
 40
1
 40
1
 40
1
 10
288.413444
 20
231.774999
 30
0.0
 10
288.413444
 20
228.548606
 30
0.0
 10
285.801449
 20
225.936526
 30
0.0
 10
282.575000
 20
225.936526
 30
0.0
  0
SPLINE
  5
169
100
AcDbEntity
  8
Layer_1
 62
5
100
AcDbSpline
 70
8
 71
3
 72
8
 73
4
 74
0
 40
0
 40
0
 40
0
 40
0
 40
1
 40
1
 40
1
 40
1
 10
282.575000
 20
225.936526
 30
0.0
 10
279.348559
 20
225.936526
 30
0.0
 10
276.727703
 20
228.548606
 30
0.0
 10
276.727703
 20
231.774999
 30
0.0
  0
SPLINE
  5
16a
100
AcDbEntity
  8
Layer_1
 62
5
100
AcDbSpline
 70
8
 71
3
 72
8
 73
4
 74
0
 40
0
 40
0
 40
0
 40
0
 40
1
 40
1
 40
1
 40
1
 10
276.727703
 20
231.774999
 30
0.0
 10
276.727703
 20
234.900618
 30
0.0
 10
279.179593
 20
237.457026
 30
0.0
 10
282.266305
 20
237.613479
 30
0.0
  0
LWPOLYLINE
  5
16b
100
AcDbEntity
  8
Layer_1
 62
5
100
AcDbPolyline
 90
2
 70
0
 10
231.466314
 20
237.613479
 30
0.0
 10
231.466314
 20
237.613479
 30
0.0
  0
SPLINE
  5
16c
100
AcDbEntity
  8
Layer_1
 62
5
100
AcDbSpline
 70
8
 71
3
 72
8
 73
4
 74
0
 40
0
 40
0
 40
0
 40
0
 40
1
 40
1
 40
1
 40
1
 10
333.066334
 20
237.613479
 30
0.0
 10
333.165873
 20
237.618418
 30
0.0
 10
333.274190
 20
237.613479
 30
0.0
 10
333.375000
 20
237.613479
 30
0.0
  0
SPLINE
  5
16d
100
AcDbEntity
  8
Layer_1
 62
5
100
AcDbSpline
 70
8
 71
3
 72
8
 73
4
 74
0
 40
0
 40
0
 40
0
 40
0
 40
1
 40
1
 40
1
 40
1
 10
333.375000
 20
237.613479
 30
0.0
 10
336.601449
 20
237.613479
 30
0.0
 10
339.213472
 20
235.001442
 30
0.0
 10
339.213472
 20
231.774999
 30
0.0
  0
SPLINE
  5
16e
100
AcDbEntity
  8
Layer_1
 62
5
100
AcDbSpline
 70
8
 71
3
 72
8
 73
4
 74
0
 40
0
 40
0
 40
0
 40
0
 40
1
 40
1
 40
1
 40
1
 10
339.213472
 20
231.774999
 30
0.0
 10
339.213472
 20
228.548606
 30
0.0
 10
336.601449
 20
225.936526
 30
0.0
 10
333.375000
 20
225.936526
 30
0.0
  0
SPLINE
  5
16f
100
AcDbEntity
  8
Layer_1
 62
5
100
AcDbSpline
 70
8
 71
3
 72
8
 73
4
 74
0
 40
0
 40
0
 40
0
 40
0
 40
1
 40
1
 40
1
 40
1
 10
333.375000
 20
225.936526
 30
0.0
 10
330.148523
 20
225.936526
 30
0.0
 10
327.527722
 20
228.548606
 30
0.0
 10
327.527722
 20
231.774999
 30
0.0
  0
SPLINE
  5
170
100
AcDbEntity
  8
Layer_1
 62
5
100
AcDbSpline
 70
8
 71
3
 72
8
 73
4
 74
0
 40
0
 40
0
 40
0
 40
0
 40
1
 40
1
 40
1
 40
1
 10
327.527722
 20
231.774999
 30
0.0
 10
327.527722
 20
234.900618
 30
0.0
 10
329.979584
 20
237.457026
 30
0.0
 10
333.066334
 20
237.613479
 30
0.0
  0
LWPOLYLINE
  5
171
100
AcDbEntity
  8
Layer_1
 62
5
100
AcDbPolyline
 90
2
 70
0
 10
282.266305
 20
237.613479
 30
0.0
 10
282.266305
 20
237.613479
 30
0.0
  0
SPLINE
  5
172
100
AcDbEntity
  8
Layer_1
 62
5
100
AcDbSpline
 70
8
 71
3
 72
8
 73
4
 74
0
 40
0
 40
0
 40
0
 40
0
 40
1
 40
1
 40
1
 40
1
 10
383.866305
 20
237.613479
 30
0.0
 10
383.965902
 20
237.618418
 30
0.0
 10
384.065357
 20
237.613479
 30
0.0
 10
384.166166
 20
237.613479
 30
0.0
  0
SPLINE
  5
173
100
AcDbEntity
  8
Layer_1
 62
5
100
AcDbSpline
 70
8
 71
3
 72
8
 73
4
 74
0
 40
0
 40
0
 40
0
 40
0
 40
1
 40
1
 40
1
 40
1
 10
384.166166
 20
237.613479
 30
0.0
 10
387.392616
 20
237.613479
 30
0.0
 10
390.013472
 20
235.001442
 30
0.0
 10
390.013472
 20
231.774999
 30
0.0
  0
SPLINE
  5
174
100
AcDbEntity
  8
Layer_1
 62
5
100
AcDbSpline
 70
8
 71
3
 72
8
 73
4
 74
0
 40
0
 40
0
 40
0
 40
0
 40
1
 40
1
 40
1
 40
1
 10
390.013472
 20
231.774999
 30
0.0
 10
390.013472
 20
228.548606
 30
0.0
 10
387.392616
 20
225.936526
 30
0.0
 10
384.166166
 20
225.936526
 30
0.0
  0
SPLINE
  5
175
100
AcDbEntity
  8
Layer_1
 62
5
100
AcDbSpline
 70
8
 71
3
 72
8
 73
4
 74
0
 40
0
 40
0
 40
0
 40
0
 40
1
 40
1
 40
1
 40
1
 10
384.166166
 20
225.936526
 30
0.0
 10
380.939689
 20
225.936526
 30
0.0
 10
378.327694
 20
228.548606
 30
0.0
 10
378.327694
 20
231.774999
 30
0.0
  0
SPLINE
  5
176
100
AcDbEntity
  8
Layer_1
 62
5
100
AcDbSpline
 70
8
 71
3
 72
8
 73
4
 74
0
 40
0
 40
0
 40
0
 40
0
 40
1
 40
1
 40
1
 40
1
 10
378.327694
 20
231.774999
 30
0.0
 10
378.327694
 20
234.900618
 30
0.0
 10
380.779584
 20
237.457026
 30
0.0
 10
383.866305
 20
237.613479
 30
0.0
  0
LWPOLYLINE
  5
177
100
AcDbEntity
  8
Layer_1
 62
5
100
AcDbPolyline
 90
2
 70
0
 10
333.066334
 20
237.613479
 30
0.0
 10
333.066334
 20
237.613479
 30
0.0
  0
SPLINE
  5
178
100
AcDbEntity
  8
Layer_1
 62
5
100
AcDbSpline
 70
8
 71
3
 72
8
 73
4
 74
0
 40
0
 40
0
 40
0
 40
0
 40
1
 40
1
 40
1
 40
1
 10
434.666305
 20
237.613479
 30
0.0
 10
434.765902
 20
237.618418
 30
0.0
 10
434.874162
 20
237.613479
 30
0.0
 10
434.975028
 20
237.613479
 30
0.0
  0
SPLINE
  5
179
100
AcDbEntity
  8
Layer_1
 62
5
100
AcDbSpline
 70
8
 71
3
 72
8
 73
4
 74
0
 40
0
 40
0
 40
0
 40
0
 40
1
 40
1
 40
1
 40
1
 10
434.975028
 20
237.613479
 30
0.0
 10
438.201421
 20
237.613479
 30
0.0
 10
440.813472
 20
235.001442
 30
0.0
 10
440.813472
 20
231.774999
 30
0.0
  0
SPLINE
  5
17a
100
AcDbEntity
  8
Layer_1
 62
5
100
AcDbSpline
 70
8
 71
3
 72
8
 73
4
 74
0
 40
0
 40
0
 40
0
 40
0
 40
1
 40
1
 40
1
 40
1
 10
440.813472
 20
231.774999
 30
0.0
 10
440.813472
 20
228.548606
 30
0.0
 10
438.201421
 20
225.936526
 30
0.0
 10
434.975028
 20
225.936526
 30
0.0
  0
SPLINE
  5
17b
100
AcDbEntity
  8
Layer_1
 62
5
100
AcDbSpline
 70
8
 71
3
 72
8
 73
4
 74
0
 40
0
 40
0
 40
0
 40
0
 40
1
 40
1
 40
1
 40
1
 10
434.975028
 20
225.936526
 30
0.0
 10
431.748523
 20
225.936526
 30
0.0
 10
429.127694
 20
228.548606
 30
0.0
 10
429.127694
 20
231.774999
 30
0.0
  0
SPLINE
  5
17c
100
AcDbEntity
  8
Layer_1
 62
5
100
AcDbSpline
 70
8
 71
3
 72
8
 73
4
 74
0
 40
0
 40
0
 40
0
 40
0
 40
1
 40
1
 40
1
 40
1
 10
429.127694
 20
231.774999
 30
0.0
 10
429.127694
 20
234.900618
 30
0.0
 10
431.579584
 20
237.457026
 30
0.0
 10
434.666305
 20
237.613479
 30
0.0
  0
LWPOLYLINE
  5
17d
100
AcDbEntity
  8
Layer_1
 62
5
100
AcDbPolyline
 90
2
 70
0
 10
383.866305
 20
237.613479
 30
0.0
 10
383.866305
 20
237.613479
 30
0.0
  0
SPLINE
  5
17e
100
AcDbEntity
  8
Layer_1
 62
5
100
AcDbSpline
 70
8
 71
3
 72
8
 73
4
 74
0
 40
0
 40
0
 40
0
 40
0
 40
1
 40
1
 40
1
 40
1
 10
485.466305
 20
237.613479
 30
0.0
 10
485.565902
 20
237.618418
 30
0.0
 10
485.674162
 20
237.613479
 30
0.0
 10
485.775028
 20
237.613479
 30
0.0
  0
SPLINE
  5
17f
100
AcDbEntity
  8
Layer_1
 62
5
100
AcDbSpline
 70
8
 71
3
 72
8
 73
4
 74
0
 40
0
 40
0
 40
0
 40
0
 40
1
 40
1
 40
1
 40
1
 10
485.775028
 20
237.613479
 30
0.0
 10
489.001421
 20
237.613479
 30
0.0
 10
491.613472
 20
235.001442
 30
0.0
 10
491.613472
 20
231.774999
 30
0.0
  0
SPLINE
  5
180
100
AcDbEntity
  8
Layer_1
 62
5
100
AcDbSpline
 70
8
 71
3
 72
8
 73
4
 74
0
 40
0
 40
0
 40
0
 40
0
 40
1
 40
1
 40
1
 40
1
 10
491.613472
 20
231.774999
 30
0.0
 10
491.613472
 20
228.548606
 30
0.0
 10
489.001421
 20
225.936526
 30
0.0
 10
485.775028
 20
225.936526
 30
0.0
  0
SPLINE
  5
181
100
AcDbEntity
  8
Layer_1
 62
5
100
AcDbSpline
 70
8
 71
3
 72
8
 73
4
 74
0
 40
0
 40
0
 40
0
 40
0
 40
1
 40
1
 40
1
 40
1
 10
485.775028
 20
225.936526
 30
0.0
 10
482.548523
 20
225.936526
 30
0.0
 10
479.927694
 20
228.548606
 30
0.0
 10
479.927694
 20
231.774999
 30
0.0
  0
SPLINE
  5
182
100
AcDbEntity
  8
Layer_1
 62
5
100
AcDbSpline
 70
8
 71
3
 72
8
 73
4
 74
0
 40
0
 40
0
 40
0
 40
0
 40
1
 40
1
 40
1
 40
1
 10
479.927694
 20
231.774999
 30
0.0
 10
479.927694
 20
234.900618
 30
0.0
 10
482.379584
 20
237.457026
 30
0.0
 10
485.466305
 20
237.613479
 30
0.0
  0
LWPOLYLINE
  5
183
100
AcDbEntity
  8
Layer_1
 62
5
100
AcDbPolyline
 90
2
 70
0
 10
434.666305
 20
237.613479
 30
0.0
 10
434.666305
 20
237.613479
 30
0.0
  0
SPLINE
  5
184
100
AcDbEntity
  8
Layer_1
 62
5
100
AcDbSpline
 70
8
 71
3
 72
8
 73
4
 74
0
 40
0
 40
0
 40
0
 40
0
 40
1
 40
1
 40
1
 40
1
 10
536.266305
 20
237.613479
 30
0.0
 10
536.365902
 20
237.618418
 30
0.0
 10
536.474162
 20
237.613479
 30
0.0
 10
536.575000
 20
237.613479
 30
0.0
  0
SPLINE
  5
185
100
AcDbEntity
  8
Layer_1
 62
5
100
AcDbSpline
 70
8
 71
3
 72
8
 73
4
 74
0
 40
0
 40
0
 40
0
 40
0
 40
1
 40
1
 40
1
 40
1
 10
536.575000
 20
237.613479
 30
0.0
 10
539.801421
 20
237.613479
 30
0.0
 10
542.413472
 20
235.001442
 30
0.0
 10
542.413472
 20
231.774999
 30
0.0
  0
SPLINE
  5
186
100
AcDbEntity
  8
Layer_1
 62
5
100
AcDbSpline
 70
8
 71
3
 72
8
 73
4
 74
0
 40
0
 40
0
 40
0
 40
0
 40
1
 40
1
 40
1
 40
1
 10
542.413472
 20
231.774999
 30
0.0
 10
542.413472
 20
228.548606
 30
0.0
 10
539.801421
 20
225.936526
 30
0.0
 10
536.575000
 20
225.936526
 30
0.0
  0
SPLINE
  5
187
100
AcDbEntity
  8
Layer_1
 62
5
100
AcDbSpline
 70
8
 71
3
 72
8
 73
4
 74
0
 40
0
 40
0
 40
0
 40
0
 40
1
 40
1
 40
1
 40
1
 10
536.575000
 20
225.936526
 30
0.0
 10
533.348523
 20
225.936526
 30
0.0
 10
530.727694
 20
228.548606
 30
0.0
 10
530.727694
 20
231.774999
 30
0.0
  0
SPLINE
  5
188
100
AcDbEntity
  8
Layer_1
 62
5
100
AcDbSpline
 70
8
 71
3
 72
8
 73
4
 74
0
 40
0
 40
0
 40
0
 40
0
 40
1
 40
1
 40
1
 40
1
 10
530.727694
 20
231.774999
 30
0.0
 10
530.727694
 20
234.900618
 30
0.0
 10
533.179584
 20
237.457026
 30
0.0
 10
536.266305
 20
237.613479
 30
0.0
  0
LWPOLYLINE
  5
189
100
AcDbEntity
  8
Layer_1
 62
5
100
AcDbPolyline
 90
2
 70
0
 10
485.466305
 20
237.613479
 30
0.0
 10
485.466305
 20
237.613479
 30
0.0
  0
SPLINE
  5
18a
100
AcDbEntity
  8
Layer_1
 62
5
100
AcDbSpline
 70
8
 71
3
 72
8
 73
4
 74
0
 40
0
 40
0
 40
0
 40
0
 40
1
 40
1
 40
1
 40
1
 10
587.066277
 20
237.613479
 30
0.0
 10
587.165873
 20
237.618418
 30
0.0
 10
587.274134
 20
237.613479
 30
0.0
 10
587.374972
 20
237.613479
 30
0.0
  0
SPLINE
  5
18b
100
AcDbEntity
  8
Layer_1
 62
5
100
AcDbSpline
 70
8
 71
3
 72
8
 73
4
 74
0
 40
0
 40
0
 40
0
 40
0
 40
1
 40
1
 40
1
 40
1
 10
587.374972
 20
237.613479
 30
0.0
 10
590.601393
 20
237.613479
 30
0.0
 10
593.213444
 20
235.001442
 30
0.0
 10
593.213444
 20
231.774999
 30
0.0
  0
SPLINE
  5
18c
100
AcDbEntity
  8
Layer_1
 62
5
100
AcDbSpline
 70
8
 71
3
 72
8
 73
4
 74
0
 40
0
 40
0
 40
0
 40
0
 40
1
 40
1
 40
1
 40
1
 10
593.213444
 20
231.774999
 30
0.0
 10
593.213444
 20
228.548606
 30
0.0
 10
590.601393
 20
225.936526
 30
0.0
 10
587.374972
 20
225.936526
 30
0.0
  0
SPLINE
  5
18d
100
AcDbEntity
  8
Layer_1
 62
5
100
AcDbSpline
 70
8
 71
3
 72
8
 73
4
 74
0
 40
0
 40
0
 40
0
 40
0
 40
1
 40
1
 40
1
 40
1
 10
587.374972
 20
225.936526
 30
0.0
 10
584.148494
 20
225.936526
 30
0.0
 10
581.527666
 20
228.548606
 30
0.0
 10
581.527666
 20
231.774999
 30
0.0
  0
SPLINE
  5
18e
100
AcDbEntity
  8
Layer_1
 62
5
100
AcDbSpline
 70
8
 71
3
 72
8
 73
4
 74
0
 40
0
 40
0
 40
0
 40
0
 40
1
 40
1
 40
1
 40
1
 10
581.527666
 20
231.774999
 30
0.0
 10
581.527666
 20
234.900618
 30
0.0
 10
583.979556
 20
237.457026
 30
0.0
 10
587.066277
 20
237.613479
 30
0.0
  0
LWPOLYLINE
  5
18f
100
AcDbEntity
  8
Layer_1
 62
5
100
AcDbPolyline
 90
2
 70
0
 10
536.266305
 20
237.613479
 30
0.0
 10
536.266305
 20
237.613479
 30
0.0
  0
SPLINE
  5
190
100
AcDbEntity
  8
Layer_1
 62
5
100
AcDbSpline
 70
8
 71
3
 72
8
 73
4
 74
0
 40
0
 40
0
 40
0
 40
0
 40
1
 40
1
 40
1
 40
1
 10
28.266305
 20
186.813471
 30
0.0
 10
28.365873
 20
186.818551
 30
0.0
 10
28.474162
 20
186.813471
 30
0.0
 10
28.575000
 20
186.813471
 30
0.0
  0
SPLINE
  5
191
100
AcDbEntity
  8
Layer_1
 62
5
100
AcDbSpline
 70
8
 71
3
 72
8
 73
4
 74
0
 40
0
 40
0
 40
0
 40
0
 40
1
 40
1
 40
1
 40
1
 10
28.575000
 20
186.813471
 30
0.0
 10
31.801421
 20
186.813471
 30
0.0
 10
34.413444
 20
184.201476
 30
0.0
 10
34.413444
 20
180.974999
 30
0.0
  0
SPLINE
  5
192
100
AcDbEntity
  8
Layer_1
 62
5
100
AcDbSpline
 70
8
 71
3
 72
8
 73
4
 74
0
 40
0
 40
0
 40
0
 40
0
 40
1
 40
1
 40
1
 40
1
 10
34.413444
 20
180.974999
 30
0.0
 10
34.413444
 20
177.748606
 30
0.0
 10
31.801421
 20
175.136526
 30
0.0
 10
28.575000
 20
175.136526
 30
0.0
  0
SPLINE
  5
193
100
AcDbEntity
  8
Layer_1
 62
5
100
AcDbSpline
 70
8
 71
3
 72
8
 73
4
 74
0
 40
0
 40
0
 40
0
 40
0
 40
1
 40
1
 40
1
 40
1
 10
28.575000
 20
175.136526
 30
0.0
 10
25.348522
 20
175.136526
 30
0.0
 10
22.727693
 20
177.748606
 30
0.0
 10
22.727693
 20
180.974999
 30
0.0
  0
SPLINE
  5
194
100
AcDbEntity
  8
Layer_1
 62
5
100
AcDbSpline
 70
8
 71
3
 72
8
 73
4
 74
0
 40
0
 40
0
 40
0
 40
0
 40
1
 40
1
 40
1
 40
1
 10
22.727693
 20
180.974999
 30
0.0
 10
22.727693
 20
184.100666
 30
0.0
 10
25.179555
 20
186.657035
 30
0.0
 10
28.266305
 20
186.813471
 30
0.0
  0
LWPOLYLINE
  5
195
100
AcDbEntity
  8
Layer_1
 62
5
100
AcDbPolyline
 90
2
 70
0
 10
587.066277
 20
237.613479
 30
0.0
 10
587.066277
 20
237.613479
 30
0.0
  0
SPLINE
  5
196
100
AcDbEntity
  8
Layer_1
 62
5
100
AcDbSpline
 70
8
 71
3
 72
8
 73
4
 74
0
 40
0
 40
0
 40
0
 40
0
 40
1
 40
1
 40
1
 40
1
 10
79.066305
 20
186.813471
 30
0.0
 10
79.165873
 20
186.818551
 30
0.0
 10
79.274162
 20
186.813471
 30
0.0
 10
79.375000
 20
186.813471
 30
0.0
  0
SPLINE
  5
197
100
AcDbEntity
  8
Layer_1
 62
5
100
AcDbSpline
 70
8
 71
3
 72
8
 73
4
 74
0
 40
0
 40
0
 40
0
 40
0
 40
1
 40
1
 40
1
 40
1
 10
79.375000
 20
186.813471
 30
0.0
 10
82.601421
 20
186.813471
 30
0.0
 10
85.213444
 20
184.201476
 30
0.0
 10
85.213444
 20
180.974999
 30
0.0
  0
SPLINE
  5
198
100
AcDbEntity
  8
Layer_1
 62
5
100
AcDbSpline
 70
8
 71
3
 72
8
 73
4
 74
0
 40
0
 40
0
 40
0
 40
0
 40
1
 40
1
 40
1
 40
1
 10
85.213444
 20
180.974999
 30
0.0
 10
85.213444
 20
177.748606
 30
0.0
 10
82.601421
 20
175.136526
 30
0.0
 10
79.375000
 20
175.136526
 30
0.0
  0
SPLINE
  5
199
100
AcDbEntity
  8
Layer_1
 62
5
100
AcDbSpline
 70
8
 71
3
 72
8
 73
4
 74
0
 40
0
 40
0
 40
0
 40
0
 40
1
 40
1
 40
1
 40
1
 10
79.375000
 20
175.136526
 30
0.0
 10
76.148523
 20
175.136526
 30
0.0
 10
73.527694
 20
177.748606
 30
0.0
 10
73.527694
 20
180.974999
 30
0.0
  0
SPLINE
  5
19a
100
AcDbEntity
  8
Layer_1
 62
5
100
AcDbSpline
 70
8
 71
3
 72
8
 73
4
 74
0
 40
0
 40
0
 40
0
 40
0
 40
1
 40
1
 40
1
 40
1
 10
73.527694
 20
180.974999
 30
0.0
 10
73.527694
 20
184.100666
 30
0.0
 10
75.979556
 20
186.657035
 30
0.0
 10
79.066305
 20
186.813471
 30
0.0
  0
LWPOLYLINE
  5
19b
100
AcDbEntity
  8
Layer_1
 62
5
100
AcDbPolyline
 90
2
 70
0
 10
28.266305
 20
186.813471
 30
0.0
 10
28.266305
 20
186.813471
 30
0.0
  0
SPLINE
  5
19c
100
AcDbEntity
  8
Layer_1
 62
5
100
AcDbSpline
 70
8
 71
3
 72
8
 73
4
 74
0
 40
0
 40
0
 40
0
 40
0
 40
1
 40
1
 40
1
 40
1
 10
129.866308
 20
186.813471
 30
0.0
 10
129.965876
 20
186.818551
 30
0.0
 10
130.074165
 20
186.813471
 30
0.0
 10
130.175003
 20
186.813471
 30
0.0
  0
SPLINE
  5
19d
100
AcDbEntity
  8
Layer_1
 62
5
100
AcDbSpline
 70
8
 71
3
 72
8
 73
4
 74
0
 40
0
 40
0
 40
0
 40
0
 40
1
 40
1
 40
1
 40
1
 10
130.175003
 20
186.813471
 30
0.0
 10
133.401424
 20
186.813471
 30
0.0
 10
136.013475
 20
184.201476
 30
0.0
 10
136.013447
 20
180.974999
 30
0.0
  0
SPLINE
  5
19e
100
AcDbEntity
  8
Layer_1
 62
5
100
AcDbSpline
 70
8
 71
3
 72
8
 73
4
 74
0
 40
0
 40
0
 40
0
 40
0
 40
1
 40
1
 40
1
 40
1
 10
136.013447
 20
180.974999
 30
0.0
 10
136.013447
 20
177.748606
 30
0.0
 10
133.401424
 20
175.136526
 30
0.0
 10
130.175003
 20
175.136526
 30
0.0
  0
SPLINE
  5
19f
100
AcDbEntity
  8
Layer_1
 62
5
100
AcDbSpline
 70
8
 71
3
 72
8
 73
4
 74
0
 40
0
 40
0
 40
0
 40
0
 40
1
 40
1
 40
1
 40
1
 10
130.175003
 20
175.136526
 30
0.0
 10
126.948551
 20
175.136526
 30
0.0
 10
124.327694
 20
177.748606
 30
0.0
 10
124.327694
 20
180.974999
 30
0.0
  0
SPLINE
  5
1a0
100
AcDbEntity
  8
Layer_1
 62
5
100
AcDbSpline
 70
8
 71
3
 72
8
 73
4
 74
0
 40
0
 40
0
 40
0
 40
0
 40
1
 40
1
 40
1
 40
1
 10
124.327694
 20
180.974999
 30
0.0
 10
124.327694
 20
184.100666
 30
0.0
 10
126.779584
 20
186.657035
 30
0.0
 10
129.866308
 20
186.813471
 30
0.0
  0
LWPOLYLINE
  5
1a1
100
AcDbEntity
  8
Layer_1
 62
5
100
AcDbPolyline
 90
2
 70
0
 10
79.066305
 20
186.813471
 30
0.0
 10
79.066305
 20
186.813471
 30
0.0
  0
SPLINE
  5
1a2
100
AcDbEntity
  8
Layer_1
 62
5
100
AcDbSpline
 70
8
 71
3
 72
8
 73
4
 74
0
 40
0
 40
0
 40
0
 40
0
 40
1
 40
1
 40
1
 40
1
 10
180.666308
 20
186.813471
 30
0.0
 10
180.765876
 20
186.818551
 30
0.0
 10
180.865331
 20
186.813471
 30
0.0
 10
180.966169
 20
186.813471
 30
0.0
  0
SPLINE
  5
1a3
100
AcDbEntity
  8
Layer_1
 62
5
100
AcDbSpline
 70
8
 71
3
 72
8
 73
4
 74
0
 40
0
 40
0
 40
0
 40
0
 40
1
 40
1
 40
1
 40
1
 10
180.966169
 20
186.813471
 30
0.0
 10
184.192647
 20
186.813471
 30
0.0
 10
186.813478
 20
184.201476
 30
0.0
 10
186.813447
 20
180.974999
 30
0.0
  0
SPLINE
  5
1a4
100
AcDbEntity
  8
Layer_1
 62
5
100
AcDbSpline
 70
8
 71
3
 72
8
 73
4
 74
0
 40
0
 40
0
 40
0
 40
0
 40
1
 40
1
 40
1
 40
1
 10
186.813447
 20
180.974999
 30
0.0
 10
186.813447
 20
177.748606
 30
0.0
 10
184.192647
 20
175.136526
 30
0.0
 10
180.966169
 20
175.136526
 30
0.0
  0
SPLINE
  5
1a5
100
AcDbEntity
  8
Layer_1
 62
5
100
AcDbSpline
 70
8
 71
3
 72
8
 73
4
 74
0
 40
0
 40
0
 40
0
 40
0
 40
1
 40
1
 40
1
 40
1
 10
180.966169
 20
175.136526
 30
0.0
 10
177.739748
 20
175.136526
 30
0.0
 10
175.127697
 20
177.748606
 30
0.0
 10
175.127697
 20
180.974999
 30
0.0
  0
SPLINE
  5
1a6
100
AcDbEntity
  8
Layer_1
 62
5
100
AcDbSpline
 70
8
 71
3
 72
8
 73
4
 74
0
 40
0
 40
0
 40
0
 40
0
 40
1
 40
1
 40
1
 40
1
 10
175.127697
 20
180.974999
 30
0.0
 10
175.127697
 20
184.100666
 30
0.0
 10
177.579587
 20
186.657035
 30
0.0
 10
180.666308
 20
186.813471
 30
0.0
  0
LWPOLYLINE
  5
1a7
100
AcDbEntity
  8
Layer_1
 62
5
100
AcDbPolyline
 90
2
 70
0
 10
129.866308
 20
186.813471
 30
0.0
 10
129.866308
 20
186.813471
 30
0.0
  0
SPLINE
  5
1a8
100
AcDbEntity
  8
Layer_1
 62
5
100
AcDbSpline
 70
8
 71
3
 72
8
 73
4
 74
0
 40
0
 40
0
 40
0
 40
0
 40
1
 40
1
 40
1
 40
1
 10
231.466314
 20
186.813471
 30
0.0
 10
231.565882
 20
186.818551
 30
0.0
 10
231.674170
 20
186.813471
 30
0.0
 10
231.775008
 20
186.813471
 30
0.0
  0
SPLINE
  5
1a9
100
AcDbEntity
  8
Layer_1
 62
5
100
AcDbSpline
 70
8
 71
3
 72
8
 73
4
 74
0
 40
0
 40
0
 40
0
 40
0
 40
1
 40
1
 40
1
 40
1
 10
231.775008
 20
186.813471
 30
0.0
 10
235.001458
 20
186.813471
 30
0.0
 10
237.613481
 20
184.201476
 30
0.0
 10
237.613452
 20
180.974999
 30
0.0
  0
SPLINE
  5
1aa
100
AcDbEntity
  8
Layer_1
 62
5
100
AcDbSpline
 70
8
 71
3
 72
8
 73
4
 74
0
 40
0
 40
0
 40
0
 40
0
 40
1
 40
1
 40
1
 40
1
 10
237.613452
 20
180.974999
 30
0.0
 10
237.613452
 20
177.748606
 30
0.0
 10
235.001458
 20
175.136526
 30
0.0
 10
231.775008
 20
175.136526
 30
0.0
  0
SPLINE
  5
1ab
100
AcDbEntity
  8
Layer_1
 62
5
100
AcDbSpline
 70
8
 71
3
 72
8
 73
4
 74
0
 40
0
 40
0
 40
0
 40
0
 40
1
 40
1
 40
1
 40
1
 10
231.775008
 20
175.136526
 30
0.0
 10
228.548559
 20
175.136526
 30
0.0
 10
225.927703
 20
177.748606
 30
0.0
 10
225.927703
 20
180.974999
 30
0.0
  0
SPLINE
  5
1ac
100
AcDbEntity
  8
Layer_1
 62
5
100
AcDbSpline
 70
8
 71
3
 72
8
 73
4
 74
0
 40
0
 40
0
 40
0
 40
0
 40
1
 40
1
 40
1
 40
1
 10
225.927703
 20
180.974999
 30
0.0
 10
225.927703
 20
184.100666
 30
0.0
 10
228.379593
 20
186.657035
 30
0.0
 10
231.466314
 20
186.813471
 30
0.0
  0
LWPOLYLINE
  5
1ad
100
AcDbEntity
  8
Layer_1
 62
5
100
AcDbPolyline
 90
2
 70
0
 10
180.666308
 20
186.813471
 30
0.0
 10
180.666308
 20
186.813471
 30
0.0
  0
SPLINE
  5
1ae
100
AcDbEntity
  8
Layer_1
 62
5
100
AcDbSpline
 70
8
 71
3
 72
8
 73
4
 74
0
 40
0
 40
0
 40
0
 40
0
 40
1
 40
1
 40
1
 40
1
 10
282.266305
 20
186.813471
 30
0.0
 10
282.365873
 20
186.818551
 30
0.0
 10
282.474162
 20
186.813471
 30
0.0
 10
282.575000
 20
186.813471
 30
0.0
  0
SPLINE
  5
1af
100
AcDbEntity
  8
Layer_1
 62
5
100
AcDbSpline
 70
8
 71
3
 72
8
 73
4
 74
0
 40
0
 40
0
 40
0
 40
0
 40
1
 40
1
 40
1
 40
1
 10
282.575000
 20
186.813471
 30
0.0
 10
285.801449
 20
186.813471
 30
0.0
 10
288.413444
 20
184.201476
 30
0.0
 10
288.413444
 20
180.974999
 30
0.0
  0
SPLINE
  5
1b0
100
AcDbEntity
  8
Layer_1
 62
5
100
AcDbSpline
 70
8
 71
3
 72
8
 73
4
 74
0
 40
0
 40
0
 40
0
 40
0
 40
1
 40
1
 40
1
 40
1
 10
288.413444
 20
180.974999
 30
0.0
 10
288.413444
 20
177.748606
 30
0.0
 10
285.801449
 20
175.136526
 30
0.0
 10
282.575000
 20
175.136526
 30
0.0
  0
SPLINE
  5
1b1
100
AcDbEntity
  8
Layer_1
 62
5
100
AcDbSpline
 70
8
 71
3
 72
8
 73
4
 74
0
 40
0
 40
0
 40
0
 40
0
 40
1
 40
1
 40
1
 40
1
 10
282.575000
 20
175.136526
 30
0.0
 10
279.348559
 20
175.136526
 30
0.0
 10
276.727703
 20
177.748606
 30
0.0
 10
276.727703
 20
180.974999
 30
0.0
  0
SPLINE
  5
1b2
100
AcDbEntity
  8
Layer_1
 62
5
100
AcDbSpline
 70
8
 71
3
 72
8
 73
4
 74
0
 40
0
 40
0
 40
0
 40
0
 40
1
 40
1
 40
1
 40
1
 10
276.727703
 20
180.974999
 30
0.0
 10
276.727703
 20
184.100666
 30
0.0
 10
279.179593
 20
186.657035
 30
0.0
 10
282.266305
 20
186.813471
 30
0.0
  0
LWPOLYLINE
  5
1b3
100
AcDbEntity
  8
Layer_1
 62
5
100
AcDbPolyline
 90
2
 70
0
 10
231.466314
 20
186.813471
 30
0.0
 10
231.466314
 20
186.813471
 30
0.0
  0
SPLINE
  5
1b4
100
AcDbEntity
  8
Layer_1
 62
5
100
AcDbSpline
 70
8
 71
3
 72
8
 73
4
 74
0
 40
0
 40
0
 40
0
 40
0
 40
1
 40
1
 40
1
 40
1
 10
333.066334
 20
186.813471
 30
0.0
 10
333.165873
 20
186.818551
 30
0.0
 10
333.274190
 20
186.813471
 30
0.0
 10
333.375000
 20
186.813471
 30
0.0
  0
SPLINE
  5
1b5
100
AcDbEntity
  8
Layer_1
 62
5
100
AcDbSpline
 70
8
 71
3
 72
8
 73
4
 74
0
 40
0
 40
0
 40
0
 40
0
 40
1
 40
1
 40
1
 40
1
 10
333.375000
 20
186.813471
 30
0.0
 10
336.601449
 20
186.813471
 30
0.0
 10
339.213472
 20
184.201476
 30
0.0
 10
339.213472
 20
180.974999
 30
0.0
  0
SPLINE
  5
1b6
100
AcDbEntity
  8
Layer_1
 62
5
100
AcDbSpline
 70
8
 71
3
 72
8
 73
4
 74
0
 40
0
 40
0
 40
0
 40
0
 40
1
 40
1
 40
1
 40
1
 10
339.213472
 20
180.974999
 30
0.0
 10
339.213472
 20
177.748606
 30
0.0
 10
336.601449
 20
175.136526
 30
0.0
 10
333.375000
 20
175.136526
 30
0.0
  0
SPLINE
  5
1b7
100
AcDbEntity
  8
Layer_1
 62
5
100
AcDbSpline
 70
8
 71
3
 72
8
 73
4
 74
0
 40
0
 40
0
 40
0
 40
0
 40
1
 40
1
 40
1
 40
1
 10
333.375000
 20
175.136526
 30
0.0
 10
330.148523
 20
175.136526
 30
0.0
 10
327.527722
 20
177.748606
 30
0.0
 10
327.527722
 20
180.974999
 30
0.0
  0
SPLINE
  5
1b8
100
AcDbEntity
  8
Layer_1
 62
5
100
AcDbSpline
 70
8
 71
3
 72
8
 73
4
 74
0
 40
0
 40
0
 40
0
 40
0
 40
1
 40
1
 40
1
 40
1
 10
327.527722
 20
180.974999
 30
0.0
 10
327.527722
 20
184.100666
 30
0.0
 10
329.979584
 20
186.657035
 30
0.0
 10
333.066334
 20
186.813471
 30
0.0
  0
LWPOLYLINE
  5
1b9
100
AcDbEntity
  8
Layer_1
 62
5
100
AcDbPolyline
 90
2
 70
0
 10
282.266305
 20
186.813471
 30
0.0
 10
282.266305
 20
186.813471
 30
0.0
  0
SPLINE
  5
1ba
100
AcDbEntity
  8
Layer_1
 62
5
100
AcDbSpline
 70
8
 71
3
 72
8
 73
4
 74
0
 40
0
 40
0
 40
0
 40
0
 40
1
 40
1
 40
1
 40
1
 10
383.866305
 20
186.813471
 30
0.0
 10
383.965902
 20
186.818551
 30
0.0
 10
384.065357
 20
186.813471
 30
0.0
 10
384.166166
 20
186.813471
 30
0.0
  0
SPLINE
  5
1bb
100
AcDbEntity
  8
Layer_1
 62
5
100
AcDbSpline
 70
8
 71
3
 72
8
 73
4
 74
0
 40
0
 40
0
 40
0
 40
0
 40
1
 40
1
 40
1
 40
1
 10
384.166166
 20
186.813471
 30
0.0
 10
387.392616
 20
186.813471
 30
0.0
 10
390.013472
 20
184.201476
 30
0.0
 10
390.013472
 20
180.974999
 30
0.0
  0
SPLINE
  5
1bc
100
AcDbEntity
  8
Layer_1
 62
5
100
AcDbSpline
 70
8
 71
3
 72
8
 73
4
 74
0
 40
0
 40
0
 40
0
 40
0
 40
1
 40
1
 40
1
 40
1
 10
390.013472
 20
180.974999
 30
0.0
 10
390.013472
 20
177.748606
 30
0.0
 10
387.392616
 20
175.136526
 30
0.0
 10
384.166166
 20
175.136526
 30
0.0
  0
SPLINE
  5
1bd
100
AcDbEntity
  8
Layer_1
 62
5
100
AcDbSpline
 70
8
 71
3
 72
8
 73
4
 74
0
 40
0
 40
0
 40
0
 40
0
 40
1
 40
1
 40
1
 40
1
 10
384.166166
 20
175.136526
 30
0.0
 10
380.939689
 20
175.136526
 30
0.0
 10
378.327694
 20
177.748606
 30
0.0
 10
378.327694
 20
180.974999
 30
0.0
  0
SPLINE
  5
1be
100
AcDbEntity
  8
Layer_1
 62
5
100
AcDbSpline
 70
8
 71
3
 72
8
 73
4
 74
0
 40
0
 40
0
 40
0
 40
0
 40
1
 40
1
 40
1
 40
1
 10
378.327694
 20
180.974999
 30
0.0
 10
378.327694
 20
184.100666
 30
0.0
 10
380.779584
 20
186.657035
 30
0.0
 10
383.866305
 20
186.813471
 30
0.0
  0
LWPOLYLINE
  5
1bf
100
AcDbEntity
  8
Layer_1
 62
5
100
AcDbPolyline
 90
2
 70
0
 10
333.066334
 20
186.813471
 30
0.0
 10
333.066334
 20
186.813471
 30
0.0
  0
SPLINE
  5
1c0
100
AcDbEntity
  8
Layer_1
 62
5
100
AcDbSpline
 70
8
 71
3
 72
8
 73
4
 74
0
 40
0
 40
0
 40
0
 40
0
 40
1
 40
1
 40
1
 40
1
 10
434.666305
 20
186.813471
 30
0.0
 10
434.765902
 20
186.818551
 30
0.0
 10
434.874162
 20
186.813471
 30
0.0
 10
434.975028
 20
186.813471
 30
0.0
  0
SPLINE
  5
1c1
100
AcDbEntity
  8
Layer_1
 62
5
100
AcDbSpline
 70
8
 71
3
 72
8
 73
4
 74
0
 40
0
 40
0
 40
0
 40
0
 40
1
 40
1
 40
1
 40
1
 10
434.975028
 20
186.813471
 30
0.0
 10
438.201421
 20
186.813471
 30
0.0
 10
440.813472
 20
184.201476
 30
0.0
 10
440.813472
 20
180.974999
 30
0.0
  0
SPLINE
  5
1c2
100
AcDbEntity
  8
Layer_1
 62
5
100
AcDbSpline
 70
8
 71
3
 72
8
 73
4
 74
0
 40
0
 40
0
 40
0
 40
0
 40
1
 40
1
 40
1
 40
1
 10
440.813472
 20
180.974999
 30
0.0
 10
440.813472
 20
177.748606
 30
0.0
 10
438.201421
 20
175.136526
 30
0.0
 10
434.975028
 20
175.136526
 30
0.0
  0
SPLINE
  5
1c3
100
AcDbEntity
  8
Layer_1
 62
5
100
AcDbSpline
 70
8
 71
3
 72
8
 73
4
 74
0
 40
0
 40
0
 40
0
 40
0
 40
1
 40
1
 40
1
 40
1
 10
434.975028
 20
175.136526
 30
0.0
 10
431.748523
 20
175.136526
 30
0.0
 10
429.127694
 20
177.748606
 30
0.0
 10
429.127694
 20
180.974999
 30
0.0
  0
SPLINE
  5
1c4
100
AcDbEntity
  8
Layer_1
 62
5
100
AcDbSpline
 70
8
 71
3
 72
8
 73
4
 74
0
 40
0
 40
0
 40
0
 40
0
 40
1
 40
1
 40
1
 40
1
 10
429.127694
 20
180.974999
 30
0.0
 10
429.127694
 20
184.100666
 30
0.0
 10
431.579584
 20
186.657035
 30
0.0
 10
434.666305
 20
186.813471
 30
0.0
  0
LWPOLYLINE
  5
1c5
100
AcDbEntity
  8
Layer_1
 62
5
100
AcDbPolyline
 90
2
 70
0
 10
383.866305
 20
186.813471
 30
0.0
 10
383.866305
 20
186.813471
 30
0.0
  0
SPLINE
  5
1c6
100
AcDbEntity
  8
Layer_1
 62
5
100
AcDbSpline
 70
8
 71
3
 72
8
 73
4
 74
0
 40
0
 40
0
 40
0
 40
0
 40
1
 40
1
 40
1
 40
1
 10
485.466305
 20
186.813471
 30
0.0
 10
485.565902
 20
186.818551
 30
0.0
 10
485.674162
 20
186.813471
 30
0.0
 10
485.775028
 20
186.813471
 30
0.0
  0
SPLINE
  5
1c7
100
AcDbEntity
  8
Layer_1
 62
5
100
AcDbSpline
 70
8
 71
3
 72
8
 73
4
 74
0
 40
0
 40
0
 40
0
 40
0
 40
1
 40
1
 40
1
 40
1
 10
485.775028
 20
186.813471
 30
0.0
 10
489.001421
 20
186.813471
 30
0.0
 10
491.613472
 20
184.201476
 30
0.0
 10
491.613472
 20
180.974999
 30
0.0
  0
SPLINE
  5
1c8
100
AcDbEntity
  8
Layer_1
 62
5
100
AcDbSpline
 70
8
 71
3
 72
8
 73
4
 74
0
 40
0
 40
0
 40
0
 40
0
 40
1
 40
1
 40
1
 40
1
 10
491.613472
 20
180.974999
 30
0.0
 10
491.613472
 20
177.748606
 30
0.0
 10
489.001421
 20
175.136526
 30
0.0
 10
485.775028
 20
175.136526
 30
0.0
  0
SPLINE
  5
1c9
100
AcDbEntity
  8
Layer_1
 62
5
100
AcDbSpline
 70
8
 71
3
 72
8
 73
4
 74
0
 40
0
 40
0
 40
0
 40
0
 40
1
 40
1
 40
1
 40
1
 10
485.775028
 20
175.136526
 30
0.0
 10
482.548523
 20
175.136526
 30
0.0
 10
479.927694
 20
177.748606
 30
0.0
 10
479.927694
 20
180.974999
 30
0.0
  0
SPLINE
  5
1ca
100
AcDbEntity
  8
Layer_1
 62
5
100
AcDbSpline
 70
8
 71
3
 72
8
 73
4
 74
0
 40
0
 40
0
 40
0
 40
0
 40
1
 40
1
 40
1
 40
1
 10
479.927694
 20
180.974999
 30
0.0
 10
479.927694
 20
184.100666
 30
0.0
 10
482.379584
 20
186.657035
 30
0.0
 10
485.466305
 20
186.813471
 30
0.0
  0
LWPOLYLINE
  5
1cb
100
AcDbEntity
  8
Layer_1
 62
5
100
AcDbPolyline
 90
2
 70
0
 10
434.666305
 20
186.813471
 30
0.0
 10
434.666305
 20
186.813471
 30
0.0
  0
SPLINE
  5
1cc
100
AcDbEntity
  8
Layer_1
 62
5
100
AcDbSpline
 70
8
 71
3
 72
8
 73
4
 74
0
 40
0
 40
0
 40
0
 40
0
 40
1
 40
1
 40
1
 40
1
 10
536.266305
 20
186.813471
 30
0.0
 10
536.365902
 20
186.818551
 30
0.0
 10
536.474162
 20
186.813471
 30
0.0
 10
536.575000
 20
186.813471
 30
0.0
  0
SPLINE
  5
1cd
100
AcDbEntity
  8
Layer_1
 62
5
100
AcDbSpline
 70
8
 71
3
 72
8
 73
4
 74
0
 40
0
 40
0
 40
0
 40
0
 40
1
 40
1
 40
1
 40
1
 10
536.575000
 20
186.813471
 30
0.0
 10
539.801421
 20
186.813471
 30
0.0
 10
542.413472
 20
184.201476
 30
0.0
 10
542.413472
 20
180.974999
 30
0.0
  0
SPLINE
  5
1ce
100
AcDbEntity
  8
Layer_1
 62
5
100
AcDbSpline
 70
8
 71
3
 72
8
 73
4
 74
0
 40
0
 40
0
 40
0
 40
0
 40
1
 40
1
 40
1
 40
1
 10
542.413472
 20
180.974999
 30
0.0
 10
542.413472
 20
177.748606
 30
0.0
 10
539.801421
 20
175.136526
 30
0.0
 10
536.575000
 20
175.136526
 30
0.0
  0
SPLINE
  5
1cf
100
AcDbEntity
  8
Layer_1
 62
5
100
AcDbSpline
 70
8
 71
3
 72
8
 73
4
 74
0
 40
0
 40
0
 40
0
 40
0
 40
1
 40
1
 40
1
 40
1
 10
536.575000
 20
175.136526
 30
0.0
 10
533.348523
 20
175.136526
 30
0.0
 10
530.727694
 20
177.748606
 30
0.0
 10
530.727694
 20
180.974999
 30
0.0
  0
SPLINE
  5
1d0
100
AcDbEntity
  8
Layer_1
 62
5
100
AcDbSpline
 70
8
 71
3
 72
8
 73
4
 74
0
 40
0
 40
0
 40
0
 40
0
 40
1
 40
1
 40
1
 40
1
 10
530.727694
 20
180.974999
 30
0.0
 10
530.727694
 20
184.100666
 30
0.0
 10
533.179584
 20
186.657035
 30
0.0
 10
536.266305
 20
186.813471
 30
0.0
  0
LWPOLYLINE
  5
1d1
100
AcDbEntity
  8
Layer_1
 62
5
100
AcDbPolyline
 90
2
 70
0
 10
485.466305
 20
186.813471
 30
0.0
 10
485.466305
 20
186.813471
 30
0.0
  0
SPLINE
  5
1d2
100
AcDbEntity
  8
Layer_1
 62
5
100
AcDbSpline
 70
8
 71
3
 72
8
 73
4
 74
0
 40
0
 40
0
 40
0
 40
0
 40
1
 40
1
 40
1
 40
1
 10
587.066277
 20
186.813471
 30
0.0
 10
587.165873
 20
186.818551
 30
0.0
 10
587.274134
 20
186.813471
 30
0.0
 10
587.374972
 20
186.813471
 30
0.0
  0
SPLINE
  5
1d3
100
AcDbEntity
  8
Layer_1
 62
5
100
AcDbSpline
 70
8
 71
3
 72
8
 73
4
 74
0
 40
0
 40
0
 40
0
 40
0
 40
1
 40
1
 40
1
 40
1
 10
587.374972
 20
186.813471
 30
0.0
 10
590.601393
 20
186.813471
 30
0.0
 10
593.213444
 20
184.201476
 30
0.0
 10
593.213444
 20
180.974999
 30
0.0
  0
SPLINE
  5
1d4
100
AcDbEntity
  8
Layer_1
 62
5
100
AcDbSpline
 70
8
 71
3
 72
8
 73
4
 74
0
 40
0
 40
0
 40
0
 40
0
 40
1
 40
1
 40
1
 40
1
 10
593.213444
 20
180.974999
 30
0.0
 10
593.213444
 20
177.748606
 30
0.0
 10
590.601393
 20
175.136526
 30
0.0
 10
587.374972
 20
175.136526
 30
0.0
  0
SPLINE
  5
1d5
100
AcDbEntity
  8
Layer_1
 62
5
100
AcDbSpline
 70
8
 71
3
 72
8
 73
4
 74
0
 40
0
 40
0
 40
0
 40
0
 40
1
 40
1
 40
1
 40
1
 10
587.374972
 20
175.136526
 30
0.0
 10
584.148494
 20
175.136526
 30
0.0
 10
581.527666
 20
177.748606
 30
0.0
 10
581.527666
 20
180.974999
 30
0.0
  0
SPLINE
  5
1d6
100
AcDbEntity
  8
Layer_1
 62
5
100
AcDbSpline
 70
8
 71
3
 72
8
 73
4
 74
0
 40
0
 40
0
 40
0
 40
0
 40
1
 40
1
 40
1
 40
1
 10
581.527666
 20
180.974999
 30
0.0
 10
581.527666
 20
184.100666
 30
0.0
 10
583.979556
 20
186.657035
 30
0.0
 10
587.066277
 20
186.813471
 30
0.0
  0
LWPOLYLINE
  5
1d7
100
AcDbEntity
  8
Layer_1
 62
5
100
AcDbPolyline
 90
2
 70
0
 10
536.266305
 20
186.813471
 30
0.0
 10
536.266305
 20
186.813471
 30
0.0
  0
SPLINE
  5
1d8
100
AcDbEntity
  8
Layer_1
 62
5
100
AcDbSpline
 70
8
 71
3
 72
8
 73
4
 74
0
 40
0
 40
0
 40
0
 40
0
 40
1
 40
1
 40
1
 40
1
 10
28.266305
 20
136.013479
 30
0.0
 10
28.365873
 20
136.018559
 30
0.0
 10
28.474162
 20
136.013479
 30
0.0
 10
28.575000
 20
136.013479
 30
0.0
  0
SPLINE
  5
1d9
100
AcDbEntity
  8
Layer_1
 62
5
100
AcDbSpline
 70
8
 71
3
 72
8
 73
4
 74
0
 40
0
 40
0
 40
0
 40
0
 40
1
 40
1
 40
1
 40
1
 10
28.575000
 20
136.013479
 30
0.0
 10
31.801421
 20
136.013479
 30
0.0
 10
34.413444
 20
133.401428
 30
0.0
 10
34.413444
 20
130.175007
 30
0.0
  0
SPLINE
  5
1da
100
AcDbEntity
  8
Layer_1
 62
5
100
AcDbSpline
 70
8
 71
3
 72
8
 73
4
 74
0
 40
0
 40
0
 40
0
 40
0
 40
1
 40
1
 40
1
 40
1
 10
34.413444
 20
130.175007
 30
0.0
 10
34.413444
 20
126.948530
 30
0.0
 10
31.801421
 20
124.336535
 30
0.0
 10
28.575000
 20
124.336535
 30
0.0
  0
SPLINE
  5
1db
100
AcDbEntity
  8
Layer_1
 62
5
100
AcDbSpline
 70
8
 71
3
 72
8
 73
4
 74
0
 40
0
 40
0
 40
0
 40
0
 40
1
 40
1
 40
1
 40
1
 10
28.575000
 20
124.336535
 30
0.0
 10
25.348522
 20
124.336535
 30
0.0
 10
22.727693
 20
126.948530
 30
0.0
 10
22.727693
 20
130.175007
 30
0.0
  0
SPLINE
  5
1dc
100
AcDbEntity
  8
Layer_1
 62
5
100
AcDbSpline
 70
8
 71
3
 72
8
 73
4
 74
0
 40
0
 40
0
 40
0
 40
0
 40
1
 40
1
 40
1
 40
1
 10
22.727693
 20
130.175007
 30
0.0
 10
22.727693
 20
133.300618
 30
0.0
 10
25.179555
 20
135.857015
 30
0.0
 10
28.266305
 20
136.013479
 30
0.0
  0
LWPOLYLINE
  5
1dd
100
AcDbEntity
  8
Layer_1
 62
5
100
AcDbPolyline
 90
2
 70
0
 10
587.066277
 20
186.813471
 30
0.0
 10
587.066277
 20
186.813471
 30
0.0
  0
SPLINE
  5
1de
100
AcDbEntity
  8
Layer_1
 62
5
100
AcDbSpline
 70
8
 71
3
 72
8
 73
4
 74
0
 40
0
 40
0
 40
0
 40
0
 40
1
 40
1
 40
1
 40
1
 10
79.066305
 20
136.013479
 30
0.0
 10
79.165873
 20
136.018559
 30
0.0
 10
79.274162
 20
136.013479
 30
0.0
 10
79.375000
 20
136.013479
 30
0.0
  0
SPLINE
  5
1df
100
AcDbEntity
  8
Layer_1
 62
5
100
AcDbSpline
 70
8
 71
3
 72
8
 73
4
 74
0
 40
0
 40
0
 40
0
 40
0
 40
1
 40
1
 40
1
 40
1
 10
79.375000
 20
136.013479
 30
0.0
 10
82.601421
 20
136.013479
 30
0.0
 10
85.213444
 20
133.401428
 30
0.0
 10
85.213444
 20
130.175007
 30
0.0
  0
SPLINE
  5
1e0
100
AcDbEntity
  8
Layer_1
 62
5
100
AcDbSpline
 70
8
 71
3
 72
8
 73
4
 74
0
 40
0
 40
0
 40
0
 40
0
 40
1
 40
1
 40
1
 40
1
 10
85.213444
 20
130.175007
 30
0.0
 10
85.213444
 20
126.948530
 30
0.0
 10
82.601421
 20
124.336535
 30
0.0
 10
79.375000
 20
124.336535
 30
0.0
  0
SPLINE
  5
1e1
100
AcDbEntity
  8
Layer_1
 62
5
100
AcDbSpline
 70
8
 71
3
 72
8
 73
4
 74
0
 40
0
 40
0
 40
0
 40
0
 40
1
 40
1
 40
1
 40
1
 10
79.375000
 20
124.336535
 30
0.0
 10
76.148523
 20
124.336535
 30
0.0
 10
73.527694
 20
126.948530
 30
0.0
 10
73.527694
 20
130.175007
 30
0.0
  0
SPLINE
  5
1e2
100
AcDbEntity
  8
Layer_1
 62
5
100
AcDbSpline
 70
8
 71
3
 72
8
 73
4
 74
0
 40
0
 40
0
 40
0
 40
0
 40
1
 40
1
 40
1
 40
1
 10
73.527694
 20
130.175007
 30
0.0
 10
73.527694
 20
133.300618
 30
0.0
 10
75.979556
 20
135.857015
 30
0.0
 10
79.066305
 20
136.013479
 30
0.0
  0
LWPOLYLINE
  5
1e3
100
AcDbEntity
  8
Layer_1
 62
5
100
AcDbPolyline
 90
2
 70
0
 10
28.266305
 20
136.013479
 30
0.0
 10
28.266305
 20
136.013479
 30
0.0
  0
SPLINE
  5
1e4
100
AcDbEntity
  8
Layer_1
 62
5
100
AcDbSpline
 70
8
 71
3
 72
8
 73
4
 74
0
 40
0
 40
0
 40
0
 40
0
 40
1
 40
1
 40
1
 40
1
 10
129.866308
 20
136.013479
 30
0.0
 10
129.965876
 20
136.018559
 30
0.0
 10
130.074165
 20
136.013479
 30
0.0
 10
130.175003
 20
136.013479
 30
0.0
  0
SPLINE
  5
1e5
100
AcDbEntity
  8
Layer_1
 62
5
100
AcDbSpline
 70
8
 71
3
 72
8
 73
4
 74
0
 40
0
 40
0
 40
0
 40
0
 40
1
 40
1
 40
1
 40
1
 10
130.175003
 20
136.013479
 30
0.0
 10
133.401424
 20
136.013479
 30
0.0
 10
136.013475
 20
133.401428
 30
0.0
 10
136.013447
 20
130.175007
 30
0.0
  0
SPLINE
  5
1e6
100
AcDbEntity
  8
Layer_1
 62
5
100
AcDbSpline
 70
8
 71
3
 72
8
 73
4
 74
0
 40
0
 40
0
 40
0
 40
0
 40
1
 40
1
 40
1
 40
1
 10
136.013447
 20
130.175007
 30
0.0
 10
136.013447
 20
126.948586
 30
0.0
 10
133.401424
 20
124.336535
 30
0.0
 10
130.175003
 20
124.336535
 30
0.0
  0
SPLINE
  5
1e7
100
AcDbEntity
  8
Layer_1
 62
5
100
AcDbSpline
 70
8
 71
3
 72
8
 73
4
 74
0
 40
0
 40
0
 40
0
 40
0
 40
1
 40
1
 40
1
 40
1
 10
130.175003
 20
124.336535
 30
0.0
 10
126.948551
 20
124.336535
 30
0.0
 10
124.327694
 20
126.948586
 30
0.0
 10
124.327694
 20
130.175007
 30
0.0
  0
SPLINE
  5
1e8
100
AcDbEntity
  8
Layer_1
 62
5
100
AcDbSpline
 70
8
 71
3
 72
8
 73
4
 74
0
 40
0
 40
0
 40
0
 40
0
 40
1
 40
1
 40
1
 40
1
 10
124.327694
 20
130.175007
 30
0.0
 10
124.327694
 20
133.300618
 30
0.0
 10
126.779584
 20
135.857015
 30
0.0
 10
129.866308
 20
136.013479
 30
0.0
  0
LWPOLYLINE
  5
1e9
100
AcDbEntity
  8
Layer_1
 62
5
100
AcDbPolyline
 90
2
 70
0
 10
79.066305
 20
136.013479
 30
0.0
 10
79.066305
 20
136.013479
 30
0.0
  0
SPLINE
  5
1ea
100
AcDbEntity
  8
Layer_1
 62
5
100
AcDbSpline
 70
8
 71
3
 72
8
 73
4
 74
0
 40
0
 40
0
 40
0
 40
0
 40
1
 40
1
 40
1
 40
1
 10
180.666308
 20
136.013479
 30
0.0
 10
180.765876
 20
136.018559
 30
0.0
 10
180.865331
 20
136.013479
 30
0.0
 10
180.966169
 20
136.013479
 30
0.0
  0
SPLINE
  5
1eb
100
AcDbEntity
  8
Layer_1
 62
5
100
AcDbSpline
 70
8
 71
3
 72
8
 73
4
 74
0
 40
0
 40
0
 40
0
 40
0
 40
1
 40
1
 40
1
 40
1
 10
180.966169
 20
136.013479
 30
0.0
 10
184.192647
 20
136.013479
 30
0.0
 10
186.813478
 20
133.401484
 30
0.0
 10
186.813447
 20
130.175007
 30
0.0
  0
SPLINE
  5
1ec
100
AcDbEntity
  8
Layer_1
 62
5
100
AcDbSpline
 70
8
 71
3
 72
8
 73
4
 74
0
 40
0
 40
0
 40
0
 40
0
 40
1
 40
1
 40
1
 40
1
 10
186.813447
 20
130.175007
 30
0.0
 10
186.813447
 20
126.948614
 30
0.0
 10
184.192647
 20
124.336535
 30
0.0
 10
180.966169
 20
124.336535
 30
0.0
  0
SPLINE
  5
1ed
100
AcDbEntity
  8
Layer_1
 62
5
100
AcDbSpline
 70
8
 71
3
 72
8
 73
4
 74
0
 40
0
 40
0
 40
0
 40
0
 40
1
 40
1
 40
1
 40
1
 10
180.966169
 20
124.336535
 30
0.0
 10
177.739748
 20
124.336535
 30
0.0
 10
175.127697
 20
126.948614
 30
0.0
 10
175.127697
 20
130.175007
 30
0.0
  0
SPLINE
  5
1ee
100
AcDbEntity
  8
Layer_1
 62
5
100
AcDbSpline
 70
8
 71
3
 72
8
 73
4
 74
0
 40
0
 40
0
 40
0
 40
0
 40
1
 40
1
 40
1
 40
1
 10
175.127697
 20
130.175007
 30
0.0
 10
175.127697
 20
133.300646
 30
0.0
 10
177.579587
 20
135.857015
 30
0.0
 10
180.666308
 20
136.013479
 30
0.0
  0
LWPOLYLINE
  5
1ef
100
AcDbEntity
  8
Layer_1
 62
5
100
AcDbPolyline
 90
2
 70
0
 10
129.866308
 20
136.013479
 30
0.0
 10
129.866308
 20
136.013479
 30
0.0
  0
SPLINE
  5
1f0
100
AcDbEntity
  8
Layer_1
 62
5
100
AcDbSpline
 70
8
 71
3
 72
8
 73
4
 74
0
 40
0
 40
0
 40
0
 40
0
 40
1
 40
1
 40
1
 40
1
 10
231.466314
 20
136.013479
 30
0.0
 10
231.565882
 20
136.018559
 30
0.0
 10
231.674170
 20
136.013479
 30
0.0
 10
231.775008
 20
136.013479
 30
0.0
  0
SPLINE
  5
1f1
100
AcDbEntity
  8
Layer_1
 62
5
100
AcDbSpline
 70
8
 71
3
 72
8
 73
4
 74
0
 40
0
 40
0
 40
0
 40
0
 40
1
 40
1
 40
1
 40
1
 10
231.775008
 20
136.013479
 30
0.0
 10
235.001458
 20
136.013479
 30
0.0
 10
237.613481
 20
133.401428
 30
0.0
 10
237.613452
 20
130.175007
 30
0.0
  0
SPLINE
  5
1f2
100
AcDbEntity
  8
Layer_1
 62
5
100
AcDbSpline
 70
8
 71
3
 72
8
 73
4
 74
0
 40
0
 40
0
 40
0
 40
0
 40
1
 40
1
 40
1
 40
1
 10
237.613452
 20
130.175007
 30
0.0
 10
237.613452
 20
126.948530
 30
0.0
 10
235.001458
 20
124.336535
 30
0.0
 10
231.775008
 20
124.336535
 30
0.0
  0
SPLINE
  5
1f3
100
AcDbEntity
  8
Layer_1
 62
5
100
AcDbSpline
 70
8
 71
3
 72
8
 73
4
 74
0
 40
0
 40
0
 40
0
 40
0
 40
1
 40
1
 40
1
 40
1
 10
231.775008
 20
124.336535
 30
0.0
 10
228.548559
 20
124.336535
 30
0.0
 10
225.927703
 20
126.948530
 30
0.0
 10
225.927703
 20
130.175007
 30
0.0
  0
SPLINE
  5
1f4
100
AcDbEntity
  8
Layer_1
 62
5
100
AcDbSpline
 70
8
 71
3
 72
8
 73
4
 74
0
 40
0
 40
0
 40
0
 40
0
 40
1
 40
1
 40
1
 40
1
 10
225.927703
 20
130.175007
 30
0.0
 10
225.927703
 20
133.300618
 30
0.0
 10
228.379593
 20
135.857015
 30
0.0
 10
231.466314
 20
136.013479
 30
0.0
  0
LWPOLYLINE
  5
1f5
100
AcDbEntity
  8
Layer_1
 62
5
100
AcDbPolyline
 90
2
 70
0
 10
180.666308
 20
136.013479
 30
0.0
 10
180.666308
 20
136.013479
 30
0.0
  0
SPLINE
  5
1f6
100
AcDbEntity
  8
Layer_1
 62
5
100
AcDbSpline
 70
8
 71
3
 72
8
 73
4
 74
0
 40
0
 40
0
 40
0
 40
0
 40
1
 40
1
 40
1
 40
1
 10
282.266305
 20
136.013479
 30
0.0
 10
282.365873
 20
136.018559
 30
0.0
 10
282.474162
 20
136.013479
 30
0.0
 10
282.575000
 20
136.013479
 30
0.0
  0
SPLINE
  5
1f7
100
AcDbEntity
  8
Layer_1
 62
5
100
AcDbSpline
 70
8
 71
3
 72
8
 73
4
 74
0
 40
0
 40
0
 40
0
 40
0
 40
1
 40
1
 40
1
 40
1
 10
282.575000
 20
136.013479
 30
0.0
 10
285.801449
 20
136.013479
 30
0.0
 10
288.413444
 20
133.401428
 30
0.0
 10
288.413444
 20
130.175007
 30
0.0
  0
SPLINE
  5
1f8
100
AcDbEntity
  8
Layer_1
 62
5
100
AcDbSpline
 70
8
 71
3
 72
8
 73
4
 74
0
 40
0
 40
0
 40
0
 40
0
 40
1
 40
1
 40
1
 40
1
 10
288.413444
 20
130.175007
 30
0.0
 10
288.413444
 20
126.948530
 30
0.0
 10
285.801449
 20
124.336535
 30
0.0
 10
282.575000
 20
124.336535
 30
0.0
  0
SPLINE
  5
1f9
100
AcDbEntity
  8
Layer_1
 62
5
100
AcDbSpline
 70
8
 71
3
 72
8
 73
4
 74
0
 40
0
 40
0
 40
0
 40
0
 40
1
 40
1
 40
1
 40
1
 10
282.575000
 20
124.336535
 30
0.0
 10
279.348559
 20
124.336535
 30
0.0
 10
276.727703
 20
126.948530
 30
0.0
 10
276.727703
 20
130.175007
 30
0.0
  0
SPLINE
  5
1fa
100
AcDbEntity
  8
Layer_1
 62
5
100
AcDbSpline
 70
8
 71
3
 72
8
 73
4
 74
0
 40
0
 40
0
 40
0
 40
0
 40
1
 40
1
 40
1
 40
1
 10
276.727703
 20
130.175007
 30
0.0
 10
276.727703
 20
133.300618
 30
0.0
 10
279.179593
 20
135.857015
 30
0.0
 10
282.266305
 20
136.013479
 30
0.0
  0
LWPOLYLINE
  5
1fb
100
AcDbEntity
  8
Layer_1
 62
5
100
AcDbPolyline
 90
2
 70
0
 10
231.466314
 20
136.013479
 30
0.0
 10
231.466314
 20
136.013479
 30
0.0
  0
SPLINE
  5
1fc
100
AcDbEntity
  8
Layer_1
 62
5
100
AcDbSpline
 70
8
 71
3
 72
8
 73
4
 74
0
 40
0
 40
0
 40
0
 40
0
 40
1
 40
1
 40
1
 40
1
 10
333.066334
 20
136.013479
 30
0.0
 10
333.165873
 20
136.018559
 30
0.0
 10
333.274190
 20
136.013479
 30
0.0
 10
333.375000
 20
136.013479
 30
0.0
  0
SPLINE
  5
1fd
100
AcDbEntity
  8
Layer_1
 62
5
100
AcDbSpline
 70
8
 71
3
 72
8
 73
4
 74
0
 40
0
 40
0
 40
0
 40
0
 40
1
 40
1
 40
1
 40
1
 10
333.375000
 20
136.013479
 30
0.0
 10
336.601449
 20
136.013479
 30
0.0
 10
339.213472
 20
133.401428
 30
0.0
 10
339.213472
 20
130.175007
 30
0.0
  0
SPLINE
  5
1fe
100
AcDbEntity
  8
Layer_1
 62
5
100
AcDbSpline
 70
8
 71
3
 72
8
 73
4
 74
0
 40
0
 40
0
 40
0
 40
0
 40
1
 40
1
 40
1
 40
1
 10
339.213472
 20
130.175007
 30
0.0
 10
339.213472
 20
126.948586
 30
0.0
 10
336.601449
 20
124.336535
 30
0.0
 10
333.375000
 20
124.336535
 30
0.0
  0
SPLINE
  5
1ff
100
AcDbEntity
  8
Layer_1
 62
5
100
AcDbSpline
 70
8
 71
3
 72
8
 73
4
 74
0
 40
0
 40
0
 40
0
 40
0
 40
1
 40
1
 40
1
 40
1
 10
333.375000
 20
124.336535
 30
0.0
 10
330.148523
 20
124.336535
 30
0.0
 10
327.527722
 20
126.948586
 30
0.0
 10
327.527722
 20
130.175007
 30
0.0
  0
SPLINE
  5
200
100
AcDbEntity
  8
Layer_1
 62
5
100
AcDbSpline
 70
8
 71
3
 72
8
 73
4
 74
0
 40
0
 40
0
 40
0
 40
0
 40
1
 40
1
 40
1
 40
1
 10
327.527722
 20
130.175007
 30
0.0
 10
327.527722
 20
133.300618
 30
0.0
 10
329.979584
 20
135.857015
 30
0.0
 10
333.066334
 20
136.013479
 30
0.0
  0
LWPOLYLINE
  5
201
100
AcDbEntity
  8
Layer_1
 62
5
100
AcDbPolyline
 90
2
 70
0
 10
282.266305
 20
136.013479
 30
0.0
 10
282.266305
 20
136.013479
 30
0.0
  0
SPLINE
  5
202
100
AcDbEntity
  8
Layer_1
 62
5
100
AcDbSpline
 70
8
 71
3
 72
8
 73
4
 74
0
 40
0
 40
0
 40
0
 40
0
 40
1
 40
1
 40
1
 40
1
 10
383.866305
 20
136.013479
 30
0.0
 10
383.965902
 20
136.018559
 30
0.0
 10
384.065357
 20
136.013479
 30
0.0
 10
384.166166
 20
136.013479
 30
0.0
  0
SPLINE
  5
203
100
AcDbEntity
  8
Layer_1
 62
5
100
AcDbSpline
 70
8
 71
3
 72
8
 73
4
 74
0
 40
0
 40
0
 40
0
 40
0
 40
1
 40
1
 40
1
 40
1
 10
384.166166
 20
136.013479
 30
0.0
 10
387.392616
 20
136.013479
 30
0.0
 10
390.013472
 20
133.401484
 30
0.0
 10
390.013472
 20
130.175007
 30
0.0
  0
SPLINE
  5
204
100
AcDbEntity
  8
Layer_1
 62
5
100
AcDbSpline
 70
8
 71
3
 72
8
 73
4
 74
0
 40
0
 40
0
 40
0
 40
0
 40
1
 40
1
 40
1
 40
1
 10
390.013472
 20
130.175007
 30
0.0
 10
390.013472
 20
126.948614
 30
0.0
 10
387.392616
 20
124.336535
 30
0.0
 10
384.166166
 20
124.336535
 30
0.0
  0
SPLINE
  5
205
100
AcDbEntity
  8
Layer_1
 62
5
100
AcDbSpline
 70
8
 71
3
 72
8
 73
4
 74
0
 40
0
 40
0
 40
0
 40
0
 40
1
 40
1
 40
1
 40
1
 10
384.166166
 20
124.336535
 30
0.0
 10
380.939689
 20
124.336535
 30
0.0
 10
378.327694
 20
126.948614
 30
0.0
 10
378.327694
 20
130.175007
 30
0.0
  0
SPLINE
  5
206
100
AcDbEntity
  8
Layer_1
 62
5
100
AcDbSpline
 70
8
 71
3
 72
8
 73
4
 74
0
 40
0
 40
0
 40
0
 40
0
 40
1
 40
1
 40
1
 40
1
 10
378.327694
 20
130.175007
 30
0.0
 10
378.327694
 20
133.300646
 30
0.0
 10
380.779584
 20
135.857015
 30
0.0
 10
383.866305
 20
136.013479
 30
0.0
  0
LWPOLYLINE
  5
207
100
AcDbEntity
  8
Layer_1
 62
5
100
AcDbPolyline
 90
2
 70
0
 10
333.066334
 20
136.013479
 30
0.0
 10
333.066334
 20
136.013479
 30
0.0
  0
SPLINE
  5
208
100
AcDbEntity
  8
Layer_1
 62
5
100
AcDbSpline
 70
8
 71
3
 72
8
 73
4
 74
0
 40
0
 40
0
 40
0
 40
0
 40
1
 40
1
 40
1
 40
1
 10
434.666305
 20
136.013479
 30
0.0
 10
434.765902
 20
136.018559
 30
0.0
 10
434.874162
 20
136.013479
 30
0.0
 10
434.975028
 20
136.013479
 30
0.0
  0
SPLINE
  5
209
100
AcDbEntity
  8
Layer_1
 62
5
100
AcDbSpline
 70
8
 71
3
 72
8
 73
4
 74
0
 40
0
 40
0
 40
0
 40
0
 40
1
 40
1
 40
1
 40
1
 10
434.975028
 20
136.013479
 30
0.0
 10
438.201421
 20
136.013479
 30
0.0
 10
440.813472
 20
133.401428
 30
0.0
 10
440.813472
 20
130.175007
 30
0.0
  0
SPLINE
  5
20a
100
AcDbEntity
  8
Layer_1
 62
5
100
AcDbSpline
 70
8
 71
3
 72
8
 73
4
 74
0
 40
0
 40
0
 40
0
 40
0
 40
1
 40
1
 40
1
 40
1
 10
440.813472
 20
130.175007
 30
0.0
 10
440.813472
 20
126.948530
 30
0.0
 10
438.201421
 20
124.336535
 30
0.0
 10
434.975028
 20
124.336535
 30
0.0
  0
SPLINE
  5
20b
100
AcDbEntity
  8
Layer_1
 62
5
100
AcDbSpline
 70
8
 71
3
 72
8
 73
4
 74
0
 40
0
 40
0
 40
0
 40
0
 40
1
 40
1
 40
1
 40
1
 10
434.975028
 20
124.336535
 30
0.0
 10
431.748523
 20
124.336535
 30
0.0
 10
429.127694
 20
126.948530
 30
0.0
 10
429.127694
 20
130.175007
 30
0.0
  0
SPLINE
  5
20c
100
AcDbEntity
  8
Layer_1
 62
5
100
AcDbSpline
 70
8
 71
3
 72
8
 73
4
 74
0
 40
0
 40
0
 40
0
 40
0
 40
1
 40
1
 40
1
 40
1
 10
429.127694
 20
130.175007
 30
0.0
 10
429.127694
 20
133.300618
 30
0.0
 10
431.579584
 20
135.857015
 30
0.0
 10
434.666305
 20
136.013479
 30
0.0
  0
LWPOLYLINE
  5
20d
100
AcDbEntity
  8
Layer_1
 62
5
100
AcDbPolyline
 90
2
 70
0
 10
383.866305
 20
136.013479
 30
0.0
 10
383.866305
 20
136.013479
 30
0.0
  0
SPLINE
  5
20e
100
AcDbEntity
  8
Layer_1
 62
5
100
AcDbSpline
 70
8
 71
3
 72
8
 73
4
 74
0
 40
0
 40
0
 40
0
 40
0
 40
1
 40
1
 40
1
 40
1
 10
485.466305
 20
136.013479
 30
0.0
 10
485.565902
 20
136.018559
 30
0.0
 10
485.674162
 20
136.013479
 30
0.0
 10
485.775028
 20
136.013479
 30
0.0
  0
SPLINE
  5
20f
100
AcDbEntity
  8
Layer_1
 62
5
100
AcDbSpline
 70
8
 71
3
 72
8
 73
4
 74
0
 40
0
 40
0
 40
0
 40
0
 40
1
 40
1
 40
1
 40
1
 10
485.775028
 20
136.013479
 30
0.0
 10
489.001421
 20
136.013479
 30
0.0
 10
491.613472
 20
133.401428
 30
0.0
 10
491.613472
 20
130.175007
 30
0.0
  0
SPLINE
  5
210
100
AcDbEntity
  8
Layer_1
 62
5
100
AcDbSpline
 70
8
 71
3
 72
8
 73
4
 74
0
 40
0
 40
0
 40
0
 40
0
 40
1
 40
1
 40
1
 40
1
 10
491.613472
 20
130.175007
 30
0.0
 10
491.613472
 20
126.948530
 30
0.0
 10
489.001421
 20
124.336535
 30
0.0
 10
485.775028
 20
124.336535
 30
0.0
  0
SPLINE
  5
211
100
AcDbEntity
  8
Layer_1
 62
5
100
AcDbSpline
 70
8
 71
3
 72
8
 73
4
 74
0
 40
0
 40
0
 40
0
 40
0
 40
1
 40
1
 40
1
 40
1
 10
485.775028
 20
124.336535
 30
0.0
 10
482.548523
 20
124.336535
 30
0.0
 10
479.927694
 20
126.948530
 30
0.0
 10
479.927694
 20
130.175007
 30
0.0
  0
SPLINE
  5
212
100
AcDbEntity
  8
Layer_1
 62
5
100
AcDbSpline
 70
8
 71
3
 72
8
 73
4
 74
0
 40
0
 40
0
 40
0
 40
0
 40
1
 40
1
 40
1
 40
1
 10
479.927694
 20
130.175007
 30
0.0
 10
479.927694
 20
133.300618
 30
0.0
 10
482.379584
 20
135.857015
 30
0.0
 10
485.466305
 20
136.013479
 30
0.0
  0
LWPOLYLINE
  5
213
100
AcDbEntity
  8
Layer_1
 62
5
100
AcDbPolyline
 90
2
 70
0
 10
434.666305
 20
136.013479
 30
0.0
 10
434.666305
 20
136.013479
 30
0.0
  0
SPLINE
  5
214
100
AcDbEntity
  8
Layer_1
 62
5
100
AcDbSpline
 70
8
 71
3
 72
8
 73
4
 74
0
 40
0
 40
0
 40
0
 40
0
 40
1
 40
1
 40
1
 40
1
 10
536.266305
 20
136.013479
 30
0.0
 10
536.365902
 20
136.018559
 30
0.0
 10
536.474162
 20
136.013479
 30
0.0
 10
536.575000
 20
136.013479
 30
0.0
  0
SPLINE
  5
215
100
AcDbEntity
  8
Layer_1
 62
5
100
AcDbSpline
 70
8
 71
3
 72
8
 73
4
 74
0
 40
0
 40
0
 40
0
 40
0
 40
1
 40
1
 40
1
 40
1
 10
536.575000
 20
136.013479
 30
0.0
 10
539.801421
 20
136.013479
 30
0.0
 10
542.413472
 20
133.401428
 30
0.0
 10
542.413472
 20
130.175007
 30
0.0
  0
SPLINE
  5
216
100
AcDbEntity
  8
Layer_1
 62
5
100
AcDbSpline
 70
8
 71
3
 72
8
 73
4
 74
0
 40
0
 40
0
 40
0
 40
0
 40
1
 40
1
 40
1
 40
1
 10
542.413472
 20
130.175007
 30
0.0
 10
542.413472
 20
126.948586
 30
0.0
 10
539.801421
 20
124.336535
 30
0.0
 10
536.575000
 20
124.336535
 30
0.0
  0
SPLINE
  5
217
100
AcDbEntity
  8
Layer_1
 62
5
100
AcDbSpline
 70
8
 71
3
 72
8
 73
4
 74
0
 40
0
 40
0
 40
0
 40
0
 40
1
 40
1
 40
1
 40
1
 10
536.575000
 20
124.336535
 30
0.0
 10
533.348523
 20
124.336535
 30
0.0
 10
530.727694
 20
126.948586
 30
0.0
 10
530.727694
 20
130.175007
 30
0.0
  0
SPLINE
  5
218
100
AcDbEntity
  8
Layer_1
 62
5
100
AcDbSpline
 70
8
 71
3
 72
8
 73
4
 74
0
 40
0
 40
0
 40
0
 40
0
 40
1
 40
1
 40
1
 40
1
 10
530.727694
 20
130.175007
 30
0.0
 10
530.727694
 20
133.300618
 30
0.0
 10
533.179584
 20
135.857015
 30
0.0
 10
536.266305
 20
136.013479
 30
0.0
  0
LWPOLYLINE
  5
219
100
AcDbEntity
  8
Layer_1
 62
5
100
AcDbPolyline
 90
2
 70
0
 10
485.466305
 20
136.013479
 30
0.0
 10
485.466305
 20
136.013479
 30
0.0
  0
SPLINE
  5
21a
100
AcDbEntity
  8
Layer_1
 62
5
100
AcDbSpline
 70
8
 71
3
 72
8
 73
4
 74
0
 40
0
 40
0
 40
0
 40
0
 40
1
 40
1
 40
1
 40
1
 10
587.066277
 20
136.013479
 30
0.0
 10
587.165873
 20
136.018559
 30
0.0
 10
587.274134
 20
136.013479
 30
0.0
 10
587.374972
 20
136.013479
 30
0.0
  0
SPLINE
  5
21b
100
AcDbEntity
  8
Layer_1
 62
5
100
AcDbSpline
 70
8
 71
3
 72
8
 73
4
 74
0
 40
0
 40
0
 40
0
 40
0
 40
1
 40
1
 40
1
 40
1
 10
587.374972
 20
136.013479
 30
0.0
 10
590.601393
 20
136.013479
 30
0.0
 10
593.213444
 20
133.401484
 30
0.0
 10
593.213444
 20
130.175007
 30
0.0
  0
SPLINE
  5
21c
100
AcDbEntity
  8
Layer_1
 62
5
100
AcDbSpline
 70
8
 71
3
 72
8
 73
4
 74
0
 40
0
 40
0
 40
0
 40
0
 40
1
 40
1
 40
1
 40
1
 10
593.213444
 20
130.175007
 30
0.0
 10
593.213444
 20
126.948614
 30
0.0
 10
590.601393
 20
124.336535
 30
0.0
 10
587.374972
 20
124.336535
 30
0.0
  0
SPLINE
  5
21d
100
AcDbEntity
  8
Layer_1
 62
5
100
AcDbSpline
 70
8
 71
3
 72
8
 73
4
 74
0
 40
0
 40
0
 40
0
 40
0
 40
1
 40
1
 40
1
 40
1
 10
587.374972
 20
124.336535
 30
0.0
 10
584.148494
 20
124.336535
 30
0.0
 10
581.527666
 20
126.948614
 30
0.0
 10
581.527666
 20
130.175007
 30
0.0
  0
SPLINE
  5
21e
100
AcDbEntity
  8
Layer_1
 62
5
100
AcDbSpline
 70
8
 71
3
 72
8
 73
4
 74
0
 40
0
 40
0
 40
0
 40
0
 40
1
 40
1
 40
1
 40
1
 10
581.527666
 20
130.175007
 30
0.0
 10
581.527666
 20
133.300646
 30
0.0
 10
583.979556
 20
135.857015
 30
0.0
 10
587.066277
 20
136.013479
 30
0.0
  0
LWPOLYLINE
  5
21f
100
AcDbEntity
  8
Layer_1
 62
5
100
AcDbPolyline
 90
2
 70
0
 10
536.266305
 20
136.013479
 30
0.0
 10
536.266305
 20
136.013479
 30
0.0
  0
SPLINE
  5
220
100
AcDbEntity
  8
Layer_1
 62
5
100
AcDbSpline
 70
8
 71
3
 72
8
 73
4
 74
0
 40
0
 40
0
 40
0
 40
0
 40
1
 40
1
 40
1
 40
1
 10
28.266305
 20
85.213479
 30
0.0
 10
28.365873
 20
85.218559
 30
0.0
 10
28.474162
 20
85.213479
 30
0.0
 10
28.575000
 20
85.213479
 30
0.0
  0
SPLINE
  5
221
100
AcDbEntity
  8
Layer_1
 62
5
100
AcDbSpline
 70
8
 71
3
 72
8
 73
4
 74
0
 40
0
 40
0
 40
0
 40
0
 40
1
 40
1
 40
1
 40
1
 10
28.575000
 20
85.213479
 30
0.0
 10
31.801421
 20
85.213479
 30
0.0
 10
34.413444
 20
82.601428
 30
0.0
 10
34.413444
 20
79.375007
 30
0.0
  0
SPLINE
  5
222
100
AcDbEntity
  8
Layer_1
 62
5
100
AcDbSpline
 70
8
 71
3
 72
8
 73
4
 74
0
 40
0
 40
0
 40
0
 40
0
 40
1
 40
1
 40
1
 40
1
 10
34.413444
 20
79.375007
 30
0.0
 10
34.413444
 20
76.148530
 30
0.0
 10
31.801421
 20
73.536535
 30
0.0
 10
28.575000
 20
73.536535
 30
0.0
  0
SPLINE
  5
223
100
AcDbEntity
  8
Layer_1
 62
5
100
AcDbSpline
 70
8
 71
3
 72
8
 73
4
 74
0
 40
0
 40
0
 40
0
 40
0
 40
1
 40
1
 40
1
 40
1
 10
28.575000
 20
73.536535
 30
0.0
 10
25.348522
 20
73.536535
 30
0.0
 10
22.727693
 20
76.148530
 30
0.0
 10
22.727693
 20
79.375007
 30
0.0
  0
SPLINE
  5
224
100
AcDbEntity
  8
Layer_1
 62
5
100
AcDbSpline
 70
8
 71
3
 72
8
 73
4
 74
0
 40
0
 40
0
 40
0
 40
0
 40
1
 40
1
 40
1
 40
1
 10
22.727693
 20
79.375007
 30
0.0
 10
22.727693
 20
82.500618
 30
0.0
 10
25.179555
 20
85.057015
 30
0.0
 10
28.266305
 20
85.213479
 30
0.0
  0
LWPOLYLINE
  5
225
100
AcDbEntity
  8
Layer_1
 62
5
100
AcDbPolyline
 90
2
 70
0
 10
587.066277
 20
136.013479
 30
0.0
 10
587.066277
 20
136.013479
 30
0.0
  0
SPLINE
  5
226
100
AcDbEntity
  8
Layer_1
 62
5
100
AcDbSpline
 70
8
 71
3
 72
8
 73
4
 74
0
 40
0
 40
0
 40
0
 40
0
 40
1
 40
1
 40
1
 40
1
 10
79.066305
 20
85.213479
 30
0.0
 10
79.165873
 20
85.218559
 30
0.0
 10
79.274162
 20
85.213479
 30
0.0
 10
79.375000
 20
85.213479
 30
0.0
  0
SPLINE
  5
227
100
AcDbEntity
  8
Layer_1
 62
5
100
AcDbSpline
 70
8
 71
3
 72
8
 73
4
 74
0
 40
0
 40
0
 40
0
 40
0
 40
1
 40
1
 40
1
 40
1
 10
79.375000
 20
85.213479
 30
0.0
 10
82.601421
 20
85.213479
 30
0.0
 10
85.213444
 20
82.601428
 30
0.0
 10
85.213444
 20
79.375007
 30
0.0
  0
SPLINE
  5
228
100
AcDbEntity
  8
Layer_1
 62
5
100
AcDbSpline
 70
8
 71
3
 72
8
 73
4
 74
0
 40
0
 40
0
 40
0
 40
0
 40
1
 40
1
 40
1
 40
1
 10
85.213444
 20
79.375007
 30
0.0
 10
85.213444
 20
76.148530
 30
0.0
 10
82.601421
 20
73.536535
 30
0.0
 10
79.375000
 20
73.536535
 30
0.0
  0
SPLINE
  5
229
100
AcDbEntity
  8
Layer_1
 62
5
100
AcDbSpline
 70
8
 71
3
 72
8
 73
4
 74
0
 40
0
 40
0
 40
0
 40
0
 40
1
 40
1
 40
1
 40
1
 10
79.375000
 20
73.536535
 30
0.0
 10
76.148523
 20
73.536535
 30
0.0
 10
73.527694
 20
76.148530
 30
0.0
 10
73.527694
 20
79.375007
 30
0.0
  0
SPLINE
  5
22a
100
AcDbEntity
  8
Layer_1
 62
5
100
AcDbSpline
 70
8
 71
3
 72
8
 73
4
 74
0
 40
0
 40
0
 40
0
 40
0
 40
1
 40
1
 40
1
 40
1
 10
73.527694
 20
79.375007
 30
0.0
 10
73.527694
 20
82.500618
 30
0.0
 10
75.979556
 20
85.057015
 30
0.0
 10
79.066305
 20
85.213479
 30
0.0
  0
LWPOLYLINE
  5
22b
100
AcDbEntity
  8
Layer_1
 62
5
100
AcDbPolyline
 90
2
 70
0
 10
28.266305
 20
85.213479
 30
0.0
 10
28.266305
 20
85.213479
 30
0.0
  0
SPLINE
  5
22c
100
AcDbEntity
  8
Layer_1
 62
5
100
AcDbSpline
 70
8
 71
3
 72
8
 73
4
 74
0
 40
0
 40
0
 40
0
 40
0
 40
1
 40
1
 40
1
 40
1
 10
129.866308
 20
85.213479
 30
0.0
 10
129.965876
 20
85.218559
 30
0.0
 10
130.074165
 20
85.213479
 30
0.0
 10
130.175003
 20
85.213479
 30
0.0
  0
SPLINE
  5
22d
100
AcDbEntity
  8
Layer_1
 62
5
100
AcDbSpline
 70
8
 71
3
 72
8
 73
4
 74
0
 40
0
 40
0
 40
0
 40
0
 40
1
 40
1
 40
1
 40
1
 10
130.175003
 20
85.213479
 30
0.0
 10
133.401424
 20
85.213479
 30
0.0
 10
136.013475
 20
82.601428
 30
0.0
 10
136.013447
 20
79.375007
 30
0.0
  0
SPLINE
  5
22e
100
AcDbEntity
  8
Layer_1
 62
5
100
AcDbSpline
 70
8
 71
3
 72
8
 73
4
 74
0
 40
0
 40
0
 40
0
 40
0
 40
1
 40
1
 40
1
 40
1
 10
136.013447
 20
79.375007
 30
0.0
 10
136.013447
 20
76.148586
 30
0.0
 10
133.401424
 20
73.536535
 30
0.0
 10
130.175003
 20
73.536535
 30
0.0
  0
SPLINE
  5
22f
100
AcDbEntity
  8
Layer_1
 62
5
100
AcDbSpline
 70
8
 71
3
 72
8
 73
4
 74
0
 40
0
 40
0
 40
0
 40
0
 40
1
 40
1
 40
1
 40
1
 10
130.175003
 20
73.536535
 30
0.0
 10
126.948551
 20
73.536535
 30
0.0
 10
124.327694
 20
76.148586
 30
0.0
 10
124.327694
 20
79.375007
 30
0.0
  0
SPLINE
  5
230
100
AcDbEntity
  8
Layer_1
 62
5
100
AcDbSpline
 70
8
 71
3
 72
8
 73
4
 74
0
 40
0
 40
0
 40
0
 40
0
 40
1
 40
1
 40
1
 40
1
 10
124.327694
 20
79.375007
 30
0.0
 10
124.327694
 20
82.500618
 30
0.0
 10
126.779584
 20
85.057015
 30
0.0
 10
129.866308
 20
85.213479
 30
0.0
  0
LWPOLYLINE
  5
231
100
AcDbEntity
  8
Layer_1
 62
5
100
AcDbPolyline
 90
2
 70
0
 10
79.066305
 20
85.213479
 30
0.0
 10
79.066305
 20
85.213479
 30
0.0
  0
SPLINE
  5
232
100
AcDbEntity
  8
Layer_1
 62
5
100
AcDbSpline
 70
8
 71
3
 72
8
 73
4
 74
0
 40
0
 40
0
 40
0
 40
0
 40
1
 40
1
 40
1
 40
1
 10
180.666308
 20
85.213479
 30
0.0
 10
180.765876
 20
85.218559
 30
0.0
 10
180.865331
 20
85.213479
 30
0.0
 10
180.966169
 20
85.213479
 30
0.0
  0
SPLINE
  5
233
100
AcDbEntity
  8
Layer_1
 62
5
100
AcDbSpline
 70
8
 71
3
 72
8
 73
4
 74
0
 40
0
 40
0
 40
0
 40
0
 40
1
 40
1
 40
1
 40
1
 10
180.966169
 20
85.213479
 30
0.0
 10
184.192647
 20
85.213479
 30
0.0
 10
186.813478
 20
82.601484
 30
0.0
 10
186.813447
 20
79.375007
 30
0.0
  0
SPLINE
  5
234
100
AcDbEntity
  8
Layer_1
 62
5
100
AcDbSpline
 70
8
 71
3
 72
8
 73
4
 74
0
 40
0
 40
0
 40
0
 40
0
 40
1
 40
1
 40
1
 40
1
 10
186.813447
 20
79.375007
 30
0.0
 10
186.813447
 20
76.148614
 30
0.0
 10
184.192647
 20
73.536535
 30
0.0
 10
180.966169
 20
73.536535
 30
0.0
  0
SPLINE
  5
235
100
AcDbEntity
  8
Layer_1
 62
5
100
AcDbSpline
 70
8
 71
3
 72
8
 73
4
 74
0
 40
0
 40
0
 40
0
 40
0
 40
1
 40
1
 40
1
 40
1
 10
180.966169
 20
73.536535
 30
0.0
 10
177.739748
 20
73.536535
 30
0.0
 10
175.127697
 20
76.148614
 30
0.0
 10
175.127697
 20
79.375007
 30
0.0
  0
SPLINE
  5
236
100
AcDbEntity
  8
Layer_1
 62
5
100
AcDbSpline
 70
8
 71
3
 72
8
 73
4
 74
0
 40
0
 40
0
 40
0
 40
0
 40
1
 40
1
 40
1
 40
1
 10
175.127697
 20
79.375007
 30
0.0
 10
175.127697
 20
82.500646
 30
0.0
 10
177.579587
 20
85.057015
 30
0.0
 10
180.666308
 20
85.213479
 30
0.0
  0
LWPOLYLINE
  5
237
100
AcDbEntity
  8
Layer_1
 62
5
100
AcDbPolyline
 90
2
 70
0
 10
129.866308
 20
85.213479
 30
0.0
 10
129.866308
 20
85.213479
 30
0.0
  0
SPLINE
  5
238
100
AcDbEntity
  8
Layer_1
 62
5
100
AcDbSpline
 70
8
 71
3
 72
8
 73
4
 74
0
 40
0
 40
0
 40
0
 40
0
 40
1
 40
1
 40
1
 40
1
 10
231.466314
 20
85.213479
 30
0.0
 10
231.565882
 20
85.218559
 30
0.0
 10
231.674170
 20
85.213479
 30
0.0
 10
231.775008
 20
85.213479
 30
0.0
  0
SPLINE
  5
239
100
AcDbEntity
  8
Layer_1
 62
5
100
AcDbSpline
 70
8
 71
3
 72
8
 73
4
 74
0
 40
0
 40
0
 40
0
 40
0
 40
1
 40
1
 40
1
 40
1
 10
231.775008
 20
85.213479
 30
0.0
 10
235.001458
 20
85.213479
 30
0.0
 10
237.613481
 20
82.601484
 30
0.0
 10
237.613452
 20
79.375007
 30
0.0
  0
SPLINE
  5
23a
100
AcDbEntity
  8
Layer_1
 62
5
100
AcDbSpline
 70
8
 71
3
 72
8
 73
4
 74
0
 40
0
 40
0
 40
0
 40
0
 40
1
 40
1
 40
1
 40
1
 10
237.613452
 20
79.375007
 30
0.0
 10
237.613452
 20
76.148614
 30
0.0
 10
235.001458
 20
73.536535
 30
0.0
 10
231.775008
 20
73.536535
 30
0.0
  0
SPLINE
  5
23b
100
AcDbEntity
  8
Layer_1
 62
5
100
AcDbSpline
 70
8
 71
3
 72
8
 73
4
 74
0
 40
0
 40
0
 40
0
 40
0
 40
1
 40
1
 40
1
 40
1
 10
231.775008
 20
73.536535
 30
0.0
 10
228.548559
 20
73.536535
 30
0.0
 10
225.927703
 20
76.148614
 30
0.0
 10
225.927703
 20
79.375007
 30
0.0
  0
SPLINE
  5
23c
100
AcDbEntity
  8
Layer_1
 62
5
100
AcDbSpline
 70
8
 71
3
 72
8
 73
4
 74
0
 40
0
 40
0
 40
0
 40
0
 40
1
 40
1
 40
1
 40
1
 10
225.927703
 20
79.375007
 30
0.0
 10
225.927703
 20
82.500646
 30
0.0
 10
228.379593
 20
85.057015
 30
0.0
 10
231.466314
 20
85.213479
 30
0.0
  0
LWPOLYLINE
  5
23d
100
AcDbEntity
  8
Layer_1
 62
5
100
AcDbPolyline
 90
2
 70
0
 10
180.666308
 20
85.213479
 30
0.0
 10
180.666308
 20
85.213479
 30
0.0
  0
SPLINE
  5
23e
100
AcDbEntity
  8
Layer_1
 62
5
100
AcDbSpline
 70
8
 71
3
 72
8
 73
4
 74
0
 40
0
 40
0
 40
0
 40
0
 40
1
 40
1
 40
1
 40
1
 10
282.266305
 20
85.213479
 30
0.0
 10
282.365873
 20
85.218559
 30
0.0
 10
282.474162
 20
85.213479
 30
0.0
 10
282.575000
 20
85.213479
 30
0.0
  0
SPLINE
  5
23f
100
AcDbEntity
  8
Layer_1
 62
5
100
AcDbSpline
 70
8
 71
3
 72
8
 73
4
 74
0
 40
0
 40
0
 40
0
 40
0
 40
1
 40
1
 40
1
 40
1
 10
282.575000
 20
85.213479
 30
0.0
 10
285.801449
 20
85.213479
 30
0.0
 10
288.413444
 20
82.601484
 30
0.0
 10
288.413444
 20
79.375007
 30
0.0
  0
SPLINE
  5
240
100
AcDbEntity
  8
Layer_1
 62
5
100
AcDbSpline
 70
8
 71
3
 72
8
 73
4
 74
0
 40
0
 40
0
 40
0
 40
0
 40
1
 40
1
 40
1
 40
1
 10
288.413444
 20
79.375007
 30
0.0
 10
288.413444
 20
76.148614
 30
0.0
 10
285.801449
 20
73.536535
 30
0.0
 10
282.575000
 20
73.536535
 30
0.0
  0
SPLINE
  5
241
100
AcDbEntity
  8
Layer_1
 62
5
100
AcDbSpline
 70
8
 71
3
 72
8
 73
4
 74
0
 40
0
 40
0
 40
0
 40
0
 40
1
 40
1
 40
1
 40
1
 10
282.575000
 20
73.536535
 30
0.0
 10
279.348559
 20
73.536535
 30
0.0
 10
276.727703
 20
76.148614
 30
0.0
 10
276.727703
 20
79.375007
 30
0.0
  0
SPLINE
  5
242
100
AcDbEntity
  8
Layer_1
 62
5
100
AcDbSpline
 70
8
 71
3
 72
8
 73
4
 74
0
 40
0
 40
0
 40
0
 40
0
 40
1
 40
1
 40
1
 40
1
 10
276.727703
 20
79.375007
 30
0.0
 10
276.727703
 20
82.500646
 30
0.0
 10
279.179593
 20
85.057015
 30
0.0
 10
282.266305
 20
85.213479
 30
0.0
  0
LWPOLYLINE
  5
243
100
AcDbEntity
  8
Layer_1
 62
5
100
AcDbPolyline
 90
2
 70
0
 10
231.466314
 20
85.213479
 30
0.0
 10
231.466314
 20
85.213479
 30
0.0
  0
SPLINE
  5
244
100
AcDbEntity
  8
Layer_1
 62
5
100
AcDbSpline
 70
8
 71
3
 72
8
 73
4
 74
0
 40
0
 40
0
 40
0
 40
0
 40
1
 40
1
 40
1
 40
1
 10
333.066334
 20
85.213479
 30
0.0
 10
333.165873
 20
85.218559
 30
0.0
 10
333.274190
 20
85.213479
 30
0.0
 10
333.375000
 20
85.213479
 30
0.0
  0
SPLINE
  5
245
100
AcDbEntity
  8
Layer_1
 62
5
100
AcDbSpline
 70
8
 71
3
 72
8
 73
4
 74
0
 40
0
 40
0
 40
0
 40
0
 40
1
 40
1
 40
1
 40
1
 10
333.375000
 20
85.213479
 30
0.0
 10
336.601449
 20
85.213479
 30
0.0
 10
339.213472
 20
82.601428
 30
0.0
 10
339.213472
 20
79.375007
 30
0.0
  0
SPLINE
  5
246
100
AcDbEntity
  8
Layer_1
 62
5
100
AcDbSpline
 70
8
 71
3
 72
8
 73
4
 74
0
 40
0
 40
0
 40
0
 40
0
 40
1
 40
1
 40
1
 40
1
 10
339.213472
 20
79.375007
 30
0.0
 10
339.213472
 20
76.148586
 30
0.0
 10
336.601449
 20
73.536535
 30
0.0
 10
333.375000
 20
73.536535
 30
0.0
  0
SPLINE
  5
247
100
AcDbEntity
  8
Layer_1
 62
5
100
AcDbSpline
 70
8
 71
3
 72
8
 73
4
 74
0
 40
0
 40
0
 40
0
 40
0
 40
1
 40
1
 40
1
 40
1
 10
333.375000
 20
73.536535
 30
0.0
 10
330.148523
 20
73.536535
 30
0.0
 10
327.527722
 20
76.148586
 30
0.0
 10
327.527722
 20
79.375007
 30
0.0
  0
SPLINE
  5
248
100
AcDbEntity
  8
Layer_1
 62
5
100
AcDbSpline
 70
8
 71
3
 72
8
 73
4
 74
0
 40
0
 40
0
 40
0
 40
0
 40
1
 40
1
 40
1
 40
1
 10
327.527722
 20
79.375007
 30
0.0
 10
327.527722
 20
82.500618
 30
0.0
 10
329.979584
 20
85.057015
 30
0.0
 10
333.066334
 20
85.213479
 30
0.0
  0
LWPOLYLINE
  5
249
100
AcDbEntity
  8
Layer_1
 62
5
100
AcDbPolyline
 90
2
 70
0
 10
282.266305
 20
85.213479
 30
0.0
 10
282.266305
 20
85.213479
 30
0.0
  0
SPLINE
  5
24a
100
AcDbEntity
  8
Layer_1
 62
5
100
AcDbSpline
 70
8
 71
3
 72
8
 73
4
 74
0
 40
0
 40
0
 40
0
 40
0
 40
1
 40
1
 40
1
 40
1
 10
383.866305
 20
85.213479
 30
0.0
 10
383.965902
 20
85.218559
 30
0.0
 10
384.065357
 20
85.213479
 30
0.0
 10
384.166166
 20
85.213479
 30
0.0
  0
SPLINE
  5
24b
100
AcDbEntity
  8
Layer_1
 62
5
100
AcDbSpline
 70
8
 71
3
 72
8
 73
4
 74
0
 40
0
 40
0
 40
0
 40
0
 40
1
 40
1
 40
1
 40
1
 10
384.166166
 20
85.213479
 30
0.0
 10
387.392616
 20
85.213479
 30
0.0
 10
390.013472
 20
82.601484
 30
0.0
 10
390.013472
 20
79.375007
 30
0.0
  0
SPLINE
  5
24c
100
AcDbEntity
  8
Layer_1
 62
5
100
AcDbSpline
 70
8
 71
3
 72
8
 73
4
 74
0
 40
0
 40
0
 40
0
 40
0
 40
1
 40
1
 40
1
 40
1
 10
390.013472
 20
79.375007
 30
0.0
 10
390.013472
 20
76.148614
 30
0.0
 10
387.392616
 20
73.536535
 30
0.0
 10
384.166166
 20
73.536535
 30
0.0
  0
SPLINE
  5
24d
100
AcDbEntity
  8
Layer_1
 62
5
100
AcDbSpline
 70
8
 71
3
 72
8
 73
4
 74
0
 40
0
 40
0
 40
0
 40
0
 40
1
 40
1
 40
1
 40
1
 10
384.166166
 20
73.536535
 30
0.0
 10
380.939689
 20
73.536535
 30
0.0
 10
378.327694
 20
76.148614
 30
0.0
 10
378.327694
 20
79.375007
 30
0.0
  0
SPLINE
  5
24e
100
AcDbEntity
  8
Layer_1
 62
5
100
AcDbSpline
 70
8
 71
3
 72
8
 73
4
 74
0
 40
0
 40
0
 40
0
 40
0
 40
1
 40
1
 40
1
 40
1
 10
378.327694
 20
79.375007
 30
0.0
 10
378.327694
 20
82.500646
 30
0.0
 10
380.779584
 20
85.057015
 30
0.0
 10
383.866305
 20
85.213479
 30
0.0
  0
LWPOLYLINE
  5
24f
100
AcDbEntity
  8
Layer_1
 62
5
100
AcDbPolyline
 90
2
 70
0
 10
333.066334
 20
85.213479
 30
0.0
 10
333.066334
 20
85.213479
 30
0.0
  0
SPLINE
  5
250
100
AcDbEntity
  8
Layer_1
 62
5
100
AcDbSpline
 70
8
 71
3
 72
8
 73
4
 74
0
 40
0
 40
0
 40
0
 40
0
 40
1
 40
1
 40
1
 40
1
 10
434.666305
 20
85.213479
 30
0.0
 10
434.765902
 20
85.218559
 30
0.0
 10
434.874162
 20
85.213479
 30
0.0
 10
434.975028
 20
85.213479
 30
0.0
  0
SPLINE
  5
251
100
AcDbEntity
  8
Layer_1
 62
5
100
AcDbSpline
 70
8
 71
3
 72
8
 73
4
 74
0
 40
0
 40
0
 40
0
 40
0
 40
1
 40
1
 40
1
 40
1
 10
434.975028
 20
85.213479
 30
0.0
 10
438.201421
 20
85.213479
 30
0.0
 10
440.813472
 20
82.601484
 30
0.0
 10
440.813472
 20
79.375007
 30
0.0
  0
SPLINE
  5
252
100
AcDbEntity
  8
Layer_1
 62
5
100
AcDbSpline
 70
8
 71
3
 72
8
 73
4
 74
0
 40
0
 40
0
 40
0
 40
0
 40
1
 40
1
 40
1
 40
1
 10
440.813472
 20
79.375007
 30
0.0
 10
440.813472
 20
76.148614
 30
0.0
 10
438.201421
 20
73.536535
 30
0.0
 10
434.975028
 20
73.536535
 30
0.0
  0
SPLINE
  5
253
100
AcDbEntity
  8
Layer_1
 62
5
100
AcDbSpline
 70
8
 71
3
 72
8
 73
4
 74
0
 40
0
 40
0
 40
0
 40
0
 40
1
 40
1
 40
1
 40
1
 10
434.975028
 20
73.536535
 30
0.0
 10
431.748523
 20
73.536535
 30
0.0
 10
429.127694
 20
76.148614
 30
0.0
 10
429.127694
 20
79.375007
 30
0.0
  0
SPLINE
  5
254
100
AcDbEntity
  8
Layer_1
 62
5
100
AcDbSpline
 70
8
 71
3
 72
8
 73
4
 74
0
 40
0
 40
0
 40
0
 40
0
 40
1
 40
1
 40
1
 40
1
 10
429.127694
 20
79.375007
 30
0.0
 10
429.127694
 20
82.500646
 30
0.0
 10
431.579584
 20
85.057015
 30
0.0
 10
434.666305
 20
85.213479
 30
0.0
  0
LWPOLYLINE
  5
255
100
AcDbEntity
  8
Layer_1
 62
5
100
AcDbPolyline
 90
2
 70
0
 10
383.866305
 20
85.213479
 30
0.0
 10
383.866305
 20
85.213479
 30
0.0
  0
SPLINE
  5
256
100
AcDbEntity
  8
Layer_1
 62
5
100
AcDbSpline
 70
8
 71
3
 72
8
 73
4
 74
0
 40
0
 40
0
 40
0
 40
0
 40
1
 40
1
 40
1
 40
1
 10
485.466305
 20
85.213479
 30
0.0
 10
485.565902
 20
85.218559
 30
0.0
 10
485.674162
 20
85.213479
 30
0.0
 10
485.775028
 20
85.213479
 30
0.0
  0
SPLINE
  5
257
100
AcDbEntity
  8
Layer_1
 62
5
100
AcDbSpline
 70
8
 71
3
 72
8
 73
4
 74
0
 40
0
 40
0
 40
0
 40
0
 40
1
 40
1
 40
1
 40
1
 10
485.775028
 20
85.213479
 30
0.0
 10
489.001421
 20
85.213479
 30
0.0
 10
491.613472
 20
82.601484
 30
0.0
 10
491.613472
 20
79.375007
 30
0.0
  0
SPLINE
  5
258
100
AcDbEntity
  8
Layer_1
 62
5
100
AcDbSpline
 70
8
 71
3
 72
8
 73
4
 74
0
 40
0
 40
0
 40
0
 40
0
 40
1
 40
1
 40
1
 40
1
 10
491.613472
 20
79.375007
 30
0.0
 10
491.613472
 20
76.148586
 30
0.0
 10
489.001421
 20
73.536535
 30
0.0
 10
485.775028
 20
73.536535
 30
0.0
  0
SPLINE
  5
259
100
AcDbEntity
  8
Layer_1
 62
5
100
AcDbSpline
 70
8
 71
3
 72
8
 73
4
 74
0
 40
0
 40
0
 40
0
 40
0
 40
1
 40
1
 40
1
 40
1
 10
485.775028
 20
73.536535
 30
0.0
 10
482.548523
 20
73.536535
 30
0.0
 10
479.927694
 20
76.148586
 30
0.0
 10
479.927694
 20
79.375007
 30
0.0
  0
SPLINE
  5
25a
100
AcDbEntity
  8
Layer_1
 62
5
100
AcDbSpline
 70
8
 71
3
 72
8
 73
4
 74
0
 40
0
 40
0
 40
0
 40
0
 40
1
 40
1
 40
1
 40
1
 10
479.927694
 20
79.375007
 30
0.0
 10
479.927694
 20
82.500646
 30
0.0
 10
482.379584
 20
85.057015
 30
0.0
 10
485.466305
 20
85.213479
 30
0.0
  0
LWPOLYLINE
  5
25b
100
AcDbEntity
  8
Layer_1
 62
5
100
AcDbPolyline
 90
2
 70
0
 10
434.666305
 20
85.213479
 30
0.0
 10
434.666305
 20
85.213479
 30
0.0
  0
SPLINE
  5
25c
100
AcDbEntity
  8
Layer_1
 62
5
100
AcDbSpline
 70
8
 71
3
 72
8
 73
4
 74
0
 40
0
 40
0
 40
0
 40
0
 40
1
 40
1
 40
1
 40
1
 10
536.266305
 20
85.213479
 30
0.0
 10
536.365902
 20
85.218559
 30
0.0
 10
536.474162
 20
85.213479
 30
0.0
 10
536.575000
 20
85.213479
 30
0.0
  0
SPLINE
  5
25d
100
AcDbEntity
  8
Layer_1
 62
5
100
AcDbSpline
 70
8
 71
3
 72
8
 73
4
 74
0
 40
0
 40
0
 40
0
 40
0
 40
1
 40
1
 40
1
 40
1
 10
536.575000
 20
85.213479
 30
0.0
 10
539.801421
 20
85.213479
 30
0.0
 10
542.413472
 20
82.601428
 30
0.0
 10
542.413472
 20
79.375007
 30
0.0
  0
SPLINE
  5
25e
100
AcDbEntity
  8
Layer_1
 62
5
100
AcDbSpline
 70
8
 71
3
 72
8
 73
4
 74
0
 40
0
 40
0
 40
0
 40
0
 40
1
 40
1
 40
1
 40
1
 10
542.413472
 20
79.375007
 30
0.0
 10
542.413472
 20
76.148586
 30
0.0
 10
539.801421
 20
73.536535
 30
0.0
 10
536.575000
 20
73.536535
 30
0.0
  0
SPLINE
  5
25f
100
AcDbEntity
  8
Layer_1
 62
5
100
AcDbSpline
 70
8
 71
3
 72
8
 73
4
 74
0
 40
0
 40
0
 40
0
 40
0
 40
1
 40
1
 40
1
 40
1
 10
536.575000
 20
73.536535
 30
0.0
 10
533.348523
 20
73.536535
 30
0.0
 10
530.727694
 20
76.148586
 30
0.0
 10
530.727694
 20
79.375007
 30
0.0
  0
SPLINE
  5
260
100
AcDbEntity
  8
Layer_1
 62
5
100
AcDbSpline
 70
8
 71
3
 72
8
 73
4
 74
0
 40
0
 40
0
 40
0
 40
0
 40
1
 40
1
 40
1
 40
1
 10
530.727694
 20
79.375007
 30
0.0
 10
530.727694
 20
82.500618
 30
0.0
 10
533.179584
 20
85.057015
 30
0.0
 10
536.266305
 20
85.213479
 30
0.0
  0
LWPOLYLINE
  5
261
100
AcDbEntity
  8
Layer_1
 62
5
100
AcDbPolyline
 90
2
 70
0
 10
485.466305
 20
85.213479
 30
0.0
 10
485.466305
 20
85.213479
 30
0.0
  0
SPLINE
  5
262
100
AcDbEntity
  8
Layer_1
 62
5
100
AcDbSpline
 70
8
 71
3
 72
8
 73
4
 74
0
 40
0
 40
0
 40
0
 40
0
 40
1
 40
1
 40
1
 40
1
 10
587.066277
 20
85.213479
 30
0.0
 10
587.165873
 20
85.218559
 30
0.0
 10
587.274134
 20
85.213479
 30
0.0
 10
587.374972
 20
85.213479
 30
0.0
  0
SPLINE
  5
263
100
AcDbEntity
  8
Layer_1
 62
5
100
AcDbSpline
 70
8
 71
3
 72
8
 73
4
 74
0
 40
0
 40
0
 40
0
 40
0
 40
1
 40
1
 40
1
 40
1
 10
587.374972
 20
85.213479
 30
0.0
 10
590.601393
 20
85.213479
 30
0.0
 10
593.213444
 20
82.601484
 30
0.0
 10
593.213444
 20
79.375007
 30
0.0
  0
SPLINE
  5
264
100
AcDbEntity
  8
Layer_1
 62
5
100
AcDbSpline
 70
8
 71
3
 72
8
 73
4
 74
0
 40
0
 40
0
 40
0
 40
0
 40
1
 40
1
 40
1
 40
1
 10
593.213444
 20
79.375007
 30
0.0
 10
593.213444
 20
76.148614
 30
0.0
 10
590.601393
 20
73.536535
 30
0.0
 10
587.374972
 20
73.536535
 30
0.0
  0
SPLINE
  5
265
100
AcDbEntity
  8
Layer_1
 62
5
100
AcDbSpline
 70
8
 71
3
 72
8
 73
4
 74
0
 40
0
 40
0
 40
0
 40
0
 40
1
 40
1
 40
1
 40
1
 10
587.374972
 20
73.536535
 30
0.0
 10
584.148494
 20
73.536535
 30
0.0
 10
581.527666
 20
76.148614
 30
0.0
 10
581.527666
 20
79.375007
 30
0.0
  0
SPLINE
  5
266
100
AcDbEntity
  8
Layer_1
 62
5
100
AcDbSpline
 70
8
 71
3
 72
8
 73
4
 74
0
 40
0
 40
0
 40
0
 40
0
 40
1
 40
1
 40
1
 40
1
 10
581.527666
 20
79.375007
 30
0.0
 10
581.527666
 20
82.500646
 30
0.0
 10
583.979556
 20
85.057015
 30
0.0
 10
587.066277
 20
85.213479
 30
0.0
  0
LWPOLYLINE
  5
267
100
AcDbEntity
  8
Layer_1
 62
5
100
AcDbPolyline
 90
2
 70
0
 10
536.266305
 20
85.213479
 30
0.0
 10
536.266305
 20
85.213479
 30
0.0
  0
SPLINE
  5
268
100
AcDbEntity
  8
Layer_1
 62
5
100
AcDbSpline
 70
8
 71
3
 72
8
 73
4
 74
0
 40
0
 40
0
 40
0
 40
0
 40
1
 40
1
 40
1
 40
1
 10
28.266305
 20
34.413479
 30
0.0
 10
28.365873
 20
34.418559
 30
0.0
 10
28.474162
 20
34.413479
 30
0.0
 10
28.575000
 20
34.413479
 30
0.0
  0
SPLINE
  5
269
100
AcDbEntity
  8
Layer_1
 62
5
100
AcDbSpline
 70
8
 71
3
 72
8
 73
4
 74
0
 40
0
 40
0
 40
0
 40
0
 40
1
 40
1
 40
1
 40
1
 10
28.575000
 20
34.413479
 30
0.0
 10
31.801421
 20
34.413479
 30
0.0
 10
34.413444
 20
31.801484
 30
0.0
 10
34.413444
 20
28.575007
 30
0.0
  0
SPLINE
  5
26a
100
AcDbEntity
  8
Layer_1
 62
5
100
AcDbSpline
 70
8
 71
3
 72
8
 73
4
 74
0
 40
0
 40
0
 40
0
 40
0
 40
1
 40
1
 40
1
 40
1
 10
34.413444
 20
28.575007
 30
0.0
 10
34.413444
 20
25.348614
 30
0.0
 10
31.801421
 20
22.736535
 30
0.0
 10
28.575000
 20
22.736535
 30
0.0
  0
SPLINE
  5
26b
100
AcDbEntity
  8
Layer_1
 62
5
100
AcDbSpline
 70
8
 71
3
 72
8
 73
4
 74
0
 40
0
 40
0
 40
0
 40
0
 40
1
 40
1
 40
1
 40
1
 10
28.575000
 20
22.736535
 30
0.0
 10
25.348522
 20
22.736535
 30
0.0
 10
22.727693
 20
25.348614
 30
0.0
 10
22.727693
 20
28.575007
 30
0.0
  0
SPLINE
  5
26c
100
AcDbEntity
  8
Layer_1
 62
5
100
AcDbSpline
 70
8
 71
3
 72
8
 73
4
 74
0
 40
0
 40
0
 40
0
 40
0
 40
1
 40
1
 40
1
 40
1
 10
22.727693
 20
28.575007
 30
0.0
 10
22.727693
 20
31.700646
 30
0.0
 10
25.179555
 20
34.257015
 30
0.0
 10
28.266305
 20
34.413479
 30
0.0
  0
LWPOLYLINE
  5
26d
100
AcDbEntity
  8
Layer_1
 62
5
100
AcDbPolyline
 90
2
 70
0
 10
587.066277
 20
85.213479
 30
0.0
 10
587.066277
 20
85.213479
 30
0.0
  0
SPLINE
  5
26e
100
AcDbEntity
  8
Layer_1
 62
5
100
AcDbSpline
 70
8
 71
3
 72
8
 73
4
 74
0
 40
0
 40
0
 40
0
 40
0
 40
1
 40
1
 40
1
 40
1
 10
79.066305
 20
34.413479
 30
0.0
 10
79.165873
 20
34.418559
 30
0.0
 10
79.274162
 20
34.413479
 30
0.0
 10
79.375000
 20
34.413479
 30
0.0
  0
SPLINE
  5
26f
100
AcDbEntity
  8
Layer_1
 62
5
100
AcDbSpline
 70
8
 71
3
 72
8
 73
4
 74
0
 40
0
 40
0
 40
0
 40
0
 40
1
 40
1
 40
1
 40
1
 10
79.375000
 20
34.413479
 30
0.0
 10
82.601421
 20
34.413479
 30
0.0
 10
85.213444
 20
31.801484
 30
0.0
 10
85.213444
 20
28.575007
 30
0.0
  0
SPLINE
  5
270
100
AcDbEntity
  8
Layer_1
 62
5
100
AcDbSpline
 70
8
 71
3
 72
8
 73
4
 74
0
 40
0
 40
0
 40
0
 40
0
 40
1
 40
1
 40
1
 40
1
 10
85.213444
 20
28.575007
 30
0.0
 10
85.213444
 20
25.348614
 30
0.0
 10
82.601421
 20
22.736535
 30
0.0
 10
79.375000
 20
22.736535
 30
0.0
  0
SPLINE
  5
271
100
AcDbEntity
  8
Layer_1
 62
5
100
AcDbSpline
 70
8
 71
3
 72
8
 73
4
 74
0
 40
0
 40
0
 40
0
 40
0
 40
1
 40
1
 40
1
 40
1
 10
79.375000
 20
22.736535
 30
0.0
 10
76.148523
 20
22.736535
 30
0.0
 10
73.527694
 20
25.348614
 30
0.0
 10
73.527694
 20
28.575007
 30
0.0
  0
SPLINE
  5
272
100
AcDbEntity
  8
Layer_1
 62
5
100
AcDbSpline
 70
8
 71
3
 72
8
 73
4
 74
0
 40
0
 40
0
 40
0
 40
0
 40
1
 40
1
 40
1
 40
1
 10
73.527694
 20
28.575007
 30
0.0
 10
73.527694
 20
31.700646
 30
0.0
 10
75.979556
 20
34.257015
 30
0.0
 10
79.066305
 20
34.413479
 30
0.0
  0
LWPOLYLINE
  5
273
100
AcDbEntity
  8
Layer_1
 62
5
100
AcDbPolyline
 90
2
 70
0
 10
28.266305
 20
34.413479
 30
0.0
 10
28.266305
 20
34.413479
 30
0.0
  0
SPLINE
  5
274
100
AcDbEntity
  8
Layer_1
 62
5
100
AcDbSpline
 70
8
 71
3
 72
8
 73
4
 74
0
 40
0
 40
0
 40
0
 40
0
 40
1
 40
1
 40
1
 40
1
 10
129.866308
 20
34.413479
 30
0.0
 10
129.965876
 20
34.418559
 30
0.0
 10
130.074165
 20
34.413479
 30
0.0
 10
130.175003
 20
34.413479
 30
0.0
  0
SPLINE
  5
275
100
AcDbEntity
  8
Layer_1
 62
5
100
AcDbSpline
 70
8
 71
3
 72
8
 73
4
 74
0
 40
0
 40
0
 40
0
 40
0
 40
1
 40
1
 40
1
 40
1
 10
130.175003
 20
34.413479
 30
0.0
 10
133.401424
 20
34.413479
 30
0.0
 10
136.013475
 20
31.801428
 30
0.0
 10
136.013447
 20
28.575007
 30
0.0
  0
SPLINE
  5
276
100
AcDbEntity
  8
Layer_1
 62
5
100
AcDbSpline
 70
8
 71
3
 72
8
 73
4
 74
0
 40
0
 40
0
 40
0
 40
0
 40
1
 40
1
 40
1
 40
1
 10
136.013447
 20
28.575007
 30
0.0
 10
136.013447
 20
25.348586
 30
0.0
 10
133.401424
 20
22.736535
 30
0.0
 10
130.175003
 20
22.736535
 30
0.0
  0
SPLINE
  5
277
100
AcDbEntity
  8
Layer_1
 62
5
100
AcDbSpline
 70
8
 71
3
 72
8
 73
4
 74
0
 40
0
 40
0
 40
0
 40
0
 40
1
 40
1
 40
1
 40
1
 10
130.175003
 20
22.736535
 30
0.0
 10
126.948551
 20
22.736535
 30
0.0
 10
124.327694
 20
25.348586
 30
0.0
 10
124.327694
 20
28.575007
 30
0.0
  0
SPLINE
  5
278
100
AcDbEntity
  8
Layer_1
 62
5
100
AcDbSpline
 70
8
 71
3
 72
8
 73
4
 74
0
 40
0
 40
0
 40
0
 40
0
 40
1
 40
1
 40
1
 40
1
 10
124.327694
 20
28.575007
 30
0.0
 10
124.327694
 20
31.700618
 30
0.0
 10
126.779584
 20
34.257015
 30
0.0
 10
129.866308
 20
34.413479
 30
0.0
  0
LWPOLYLINE
  5
279
100
AcDbEntity
  8
Layer_1
 62
5
100
AcDbPolyline
 90
2
 70
0
 10
79.066305
 20
34.413479
 30
0.0
 10
79.066305
 20
34.413479
 30
0.0
  0
SPLINE
  5
27a
100
AcDbEntity
  8
Layer_1
 62
5
100
AcDbSpline
 70
8
 71
3
 72
8
 73
4
 74
0
 40
0
 40
0
 40
0
 40
0
 40
1
 40
1
 40
1
 40
1
 10
180.666308
 20
34.413479
 30
0.0
 10
180.765876
 20
34.418559
 30
0.0
 10
180.865331
 20
34.413479
 30
0.0
 10
180.966169
 20
34.413479
 30
0.0
  0
SPLINE
  5
27b
100
AcDbEntity
  8
Layer_1
 62
5
100
AcDbSpline
 70
8
 71
3
 72
8
 73
4
 74
0
 40
0
 40
0
 40
0
 40
0
 40
1
 40
1
 40
1
 40
1
 10
180.966169
 20
34.413479
 30
0.0
 10
184.192647
 20
34.413479
 30
0.0
 10
186.813478
 20
31.801484
 30
0.0
 10
186.813447
 20
28.575007
 30
0.0
  0
SPLINE
  5
27c
100
AcDbEntity
  8
Layer_1
 62
5
100
AcDbSpline
 70
8
 71
3
 72
8
 73
4
 74
0
 40
0
 40
0
 40
0
 40
0
 40
1
 40
1
 40
1
 40
1
 10
186.813447
 20
28.575007
 30
0.0
 10
186.813447
 20
25.348614
 30
0.0
 10
184.192647
 20
22.736535
 30
0.0
 10
180.966169
 20
22.736535
 30
0.0
  0
SPLINE
  5
27d
100
AcDbEntity
  8
Layer_1
 62
5
100
AcDbSpline
 70
8
 71
3
 72
8
 73
4
 74
0
 40
0
 40
0
 40
0
 40
0
 40
1
 40
1
 40
1
 40
1
 10
180.966169
 20
22.736535
 30
0.0
 10
177.739748
 20
22.736535
 30
0.0
 10
175.127697
 20
25.348614
 30
0.0
 10
175.127697
 20
28.575007
 30
0.0
  0
SPLINE
  5
27e
100
AcDbEntity
  8
Layer_1
 62
5
100
AcDbSpline
 70
8
 71
3
 72
8
 73
4
 74
0
 40
0
 40
0
 40
0
 40
0
 40
1
 40
1
 40
1
 40
1
 10
175.127697
 20
28.575007
 30
0.0
 10
175.127697
 20
31.700646
 30
0.0
 10
177.579587
 20
34.257015
 30
0.0
 10
180.666308
 20
34.413479
 30
0.0
  0
LWPOLYLINE
  5
27f
100
AcDbEntity
  8
Layer_1
 62
5
100
AcDbPolyline
 90
2
 70
0
 10
129.866308
 20
34.413479
 30
0.0
 10
129.866308
 20
34.413479
 30
0.0
  0
SPLINE
  5
280
100
AcDbEntity
  8
Layer_1
 62
5
100
AcDbSpline
 70
8
 71
3
 72
8
 73
4
 74
0
 40
0
 40
0
 40
0
 40
0
 40
1
 40
1
 40
1
 40
1
 10
231.466314
 20
34.413479
 30
0.0
 10
231.565882
 20
34.418559
 30
0.0
 10
231.674170
 20
34.413479
 30
0.0
 10
231.775008
 20
34.413479
 30
0.0
  0
SPLINE
  5
281
100
AcDbEntity
  8
Layer_1
 62
5
100
AcDbSpline
 70
8
 71
3
 72
8
 73
4
 74
0
 40
0
 40
0
 40
0
 40
0
 40
1
 40
1
 40
1
 40
1
 10
231.775008
 20
34.413479
 30
0.0
 10
235.001458
 20
34.413479
 30
0.0
 10
237.613481
 20
31.801484
 30
0.0
 10
237.613452
 20
28.575007
 30
0.0
  0
SPLINE
  5
282
100
AcDbEntity
  8
Layer_1
 62
5
100
AcDbSpline
 70
8
 71
3
 72
8
 73
4
 74
0
 40
0
 40
0
 40
0
 40
0
 40
1
 40
1
 40
1
 40
1
 10
237.613452
 20
28.575007
 30
0.0
 10
237.613452
 20
25.348614
 30
0.0
 10
235.001458
 20
22.736535
 30
0.0
 10
231.775008
 20
22.736535
 30
0.0
  0
SPLINE
  5
283
100
AcDbEntity
  8
Layer_1
 62
5
100
AcDbSpline
 70
8
 71
3
 72
8
 73
4
 74
0
 40
0
 40
0
 40
0
 40
0
 40
1
 40
1
 40
1
 40
1
 10
231.775008
 20
22.736535
 30
0.0
 10
228.548559
 20
22.736535
 30
0.0
 10
225.927703
 20
25.348614
 30
0.0
 10
225.927703
 20
28.575007
 30
0.0
  0
SPLINE
  5
284
100
AcDbEntity
  8
Layer_1
 62
5
100
AcDbSpline
 70
8
 71
3
 72
8
 73
4
 74
0
 40
0
 40
0
 40
0
 40
0
 40
1
 40
1
 40
1
 40
1
 10
225.927703
 20
28.575007
 30
0.0
 10
225.927703
 20
31.700646
 30
0.0
 10
228.379593
 20
34.257015
 30
0.0
 10
231.466314
 20
34.413479
 30
0.0
  0
LWPOLYLINE
  5
285
100
AcDbEntity
  8
Layer_1
 62
5
100
AcDbPolyline
 90
2
 70
0
 10
180.666308
 20
34.413479
 30
0.0
 10
180.666308
 20
34.413479
 30
0.0
  0
SPLINE
  5
286
100
AcDbEntity
  8
Layer_1
 62
5
100
AcDbSpline
 70
8
 71
3
 72
8
 73
4
 74
0
 40
0
 40
0
 40
0
 40
0
 40
1
 40
1
 40
1
 40
1
 10
282.266305
 20
34.413479
 30
0.0
 10
282.365873
 20
34.418559
 30
0.0
 10
282.474162
 20
34.413479
 30
0.0
 10
282.575000
 20
34.413479
 30
0.0
  0
SPLINE
  5
287
100
AcDbEntity
  8
Layer_1
 62
5
100
AcDbSpline
 70
8
 71
3
 72
8
 73
4
 74
0
 40
0
 40
0
 40
0
 40
0
 40
1
 40
1
 40
1
 40
1
 10
282.575000
 20
34.413479
 30
0.0
 10
285.801449
 20
34.413479
 30
0.0
 10
288.413444
 20
31.801484
 30
0.0
 10
288.413444
 20
28.575007
 30
0.0
  0
SPLINE
  5
288
100
AcDbEntity
  8
Layer_1
 62
5
100
AcDbSpline
 70
8
 71
3
 72
8
 73
4
 74
0
 40
0
 40
0
 40
0
 40
0
 40
1
 40
1
 40
1
 40
1
 10
288.413444
 20
28.575007
 30
0.0
 10
288.413444
 20
25.348614
 30
0.0
 10
285.801449
 20
22.736535
 30
0.0
 10
282.575000
 20
22.736535
 30
0.0
  0
SPLINE
  5
289
100
AcDbEntity
  8
Layer_1
 62
5
100
AcDbSpline
 70
8
 71
3
 72
8
 73
4
 74
0
 40
0
 40
0
 40
0
 40
0
 40
1
 40
1
 40
1
 40
1
 10
282.575000
 20
22.736535
 30
0.0
 10
279.348559
 20
22.736535
 30
0.0
 10
276.727703
 20
25.348614
 30
0.0
 10
276.727703
 20
28.575007
 30
0.0
  0
SPLINE
  5
28a
100
AcDbEntity
  8
Layer_1
 62
5
100
AcDbSpline
 70
8
 71
3
 72
8
 73
4
 74
0
 40
0
 40
0
 40
0
 40
0
 40
1
 40
1
 40
1
 40
1
 10
276.727703
 20
28.575007
 30
0.0
 10
276.727703
 20
31.700646
 30
0.0
 10
279.179593
 20
34.257015
 30
0.0
 10
282.266305
 20
34.413479
 30
0.0
  0
LWPOLYLINE
  5
28b
100
AcDbEntity
  8
Layer_1
 62
5
100
AcDbPolyline
 90
2
 70
0
 10
231.466314
 20
34.413479
 30
0.0
 10
231.466314
 20
34.413479
 30
0.0
  0
SPLINE
  5
28c
100
AcDbEntity
  8
Layer_1
 62
5
100
AcDbSpline
 70
8
 71
3
 72
8
 73
4
 74
0
 40
0
 40
0
 40
0
 40
0
 40
1
 40
1
 40
1
 40
1
 10
333.066334
 20
34.413479
 30
0.0
 10
333.165873
 20
34.418559
 30
0.0
 10
333.274190
 20
34.413479
 30
0.0
 10
333.375000
 20
34.413479
 30
0.0
  0
SPLINE
  5
28d
100
AcDbEntity
  8
Layer_1
 62
5
100
AcDbSpline
 70
8
 71
3
 72
8
 73
4
 74
0
 40
0
 40
0
 40
0
 40
0
 40
1
 40
1
 40
1
 40
1
 10
333.375000
 20
34.413479
 30
0.0
 10
336.601449
 20
34.413479
 30
0.0
 10
339.213472
 20
31.801428
 30
0.0
 10
339.213472
 20
28.575007
 30
0.0
  0
SPLINE
  5
28e
100
AcDbEntity
  8
Layer_1
 62
5
100
AcDbSpline
 70
8
 71
3
 72
8
 73
4
 74
0
 40
0
 40
0
 40
0
 40
0
 40
1
 40
1
 40
1
 40
1
 10
339.213472
 20
28.575007
 30
0.0
 10
339.213472
 20
25.348586
 30
0.0
 10
336.601449
 20
22.736535
 30
0.0
 10
333.375000
 20
22.736535
 30
0.0
  0
SPLINE
  5
28f
100
AcDbEntity
  8
Layer_1
 62
5
100
AcDbSpline
 70
8
 71
3
 72
8
 73
4
 74
0
 40
0
 40
0
 40
0
 40
0
 40
1
 40
1
 40
1
 40
1
 10
333.375000
 20
22.736535
 30
0.0
 10
330.148523
 20
22.736535
 30
0.0
 10
327.527722
 20
25.348586
 30
0.0
 10
327.527722
 20
28.575007
 30
0.0
  0
SPLINE
  5
290
100
AcDbEntity
  8
Layer_1
 62
5
100
AcDbSpline
 70
8
 71
3
 72
8
 73
4
 74
0
 40
0
 40
0
 40
0
 40
0
 40
1
 40
1
 40
1
 40
1
 10
327.527722
 20
28.575007
 30
0.0
 10
327.527722
 20
31.700618
 30
0.0
 10
329.979584
 20
34.257015
 30
0.0
 10
333.066334
 20
34.413479
 30
0.0
  0
LWPOLYLINE
  5
291
100
AcDbEntity
  8
Layer_1
 62
5
100
AcDbPolyline
 90
2
 70
0
 10
282.266305
 20
34.413479
 30
0.0
 10
282.266305
 20
34.413479
 30
0.0
  0
SPLINE
  5
292
100
AcDbEntity
  8
Layer_1
 62
5
100
AcDbSpline
 70
8
 71
3
 72
8
 73
4
 74
0
 40
0
 40
0
 40
0
 40
0
 40
1
 40
1
 40
1
 40
1
 10
383.866305
 20
34.413479
 30
0.0
 10
383.965902
 20
34.418559
 30
0.0
 10
384.065357
 20
34.413479
 30
0.0
 10
384.166166
 20
34.413479
 30
0.0
  0
SPLINE
  5
293
100
AcDbEntity
  8
Layer_1
 62
5
100
AcDbSpline
 70
8
 71
3
 72
8
 73
4
 74
0
 40
0
 40
0
 40
0
 40
0
 40
1
 40
1
 40
1
 40
1
 10
384.166166
 20
34.413479
 30
0.0
 10
387.392616
 20
34.413479
 30
0.0
 10
390.013472
 20
31.801484
 30
0.0
 10
390.013472
 20
28.575007
 30
0.0
  0
SPLINE
  5
294
100
AcDbEntity
  8
Layer_1
 62
5
100
AcDbSpline
 70
8
 71
3
 72
8
 73
4
 74
0
 40
0
 40
0
 40
0
 40
0
 40
1
 40
1
 40
1
 40
1
 10
390.013472
 20
28.575007
 30
0.0
 10
390.013472
 20
25.348614
 30
0.0
 10
387.392616
 20
22.736535
 30
0.0
 10
384.166166
 20
22.736535
 30
0.0
  0
SPLINE
  5
295
100
AcDbEntity
  8
Layer_1
 62
5
100
AcDbSpline
 70
8
 71
3
 72
8
 73
4
 74
0
 40
0
 40
0
 40
0
 40
0
 40
1
 40
1
 40
1
 40
1
 10
384.166166
 20
22.736535
 30
0.0
 10
380.939689
 20
22.736535
 30
0.0
 10
378.327694
 20
25.348614
 30
0.0
 10
378.327694
 20
28.575007
 30
0.0
  0
SPLINE
  5
296
100
AcDbEntity
  8
Layer_1
 62
5
100
AcDbSpline
 70
8
 71
3
 72
8
 73
4
 74
0
 40
0
 40
0
 40
0
 40
0
 40
1
 40
1
 40
1
 40
1
 10
378.327694
 20
28.575007
 30
0.0
 10
378.327694
 20
31.700646
 30
0.0
 10
380.779584
 20
34.257015
 30
0.0
 10
383.866305
 20
34.413479
 30
0.0
  0
LWPOLYLINE
  5
297
100
AcDbEntity
  8
Layer_1
 62
5
100
AcDbPolyline
 90
2
 70
0
 10
333.066334
 20
34.413479
 30
0.0
 10
333.066334
 20
34.413479
 30
0.0
  0
SPLINE
  5
298
100
AcDbEntity
  8
Layer_1
 62
5
100
AcDbSpline
 70
8
 71
3
 72
8
 73
4
 74
0
 40
0
 40
0
 40
0
 40
0
 40
1
 40
1
 40
1
 40
1
 10
434.666305
 20
34.413479
 30
0.0
 10
434.765902
 20
34.418559
 30
0.0
 10
434.874162
 20
34.413479
 30
0.0
 10
434.975028
 20
34.413479
 30
0.0
  0
SPLINE
  5
299
100
AcDbEntity
  8
Layer_1
 62
5
100
AcDbSpline
 70
8
 71
3
 72
8
 73
4
 74
0
 40
0
 40
0
 40
0
 40
0
 40
1
 40
1
 40
1
 40
1
 10
434.975028
 20
34.413479
 30
0.0
 10
438.201421
 20
34.413479
 30
0.0
 10
440.813472
 20
31.801484
 30
0.0
 10
440.813472
 20
28.575007
 30
0.0
  0
SPLINE
  5
29a
100
AcDbEntity
  8
Layer_1
 62
5
100
AcDbSpline
 70
8
 71
3
 72
8
 73
4
 74
0
 40
0
 40
0
 40
0
 40
0
 40
1
 40
1
 40
1
 40
1
 10
440.813472
 20
28.575007
 30
0.0
 10
440.813472
 20
25.348614
 30
0.0
 10
438.201421
 20
22.736535
 30
0.0
 10
434.975028
 20
22.736535
 30
0.0
  0
SPLINE
  5
29b
100
AcDbEntity
  8
Layer_1
 62
5
100
AcDbSpline
 70
8
 71
3
 72
8
 73
4
 74
0
 40
0
 40
0
 40
0
 40
0
 40
1
 40
1
 40
1
 40
1
 10
434.975028
 20
22.736535
 30
0.0
 10
431.748523
 20
22.736535
 30
0.0
 10
429.127694
 20
25.348614
 30
0.0
 10
429.127694
 20
28.575007
 30
0.0
  0
SPLINE
  5
29c
100
AcDbEntity
  8
Layer_1
 62
5
100
AcDbSpline
 70
8
 71
3
 72
8
 73
4
 74
0
 40
0
 40
0
 40
0
 40
0
 40
1
 40
1
 40
1
 40
1
 10
429.127694
 20
28.575007
 30
0.0
 10
429.127694
 20
31.700646
 30
0.0
 10
431.579584
 20
34.257015
 30
0.0
 10
434.666305
 20
34.413479
 30
0.0
  0
LWPOLYLINE
  5
29d
100
AcDbEntity
  8
Layer_1
 62
5
100
AcDbPolyline
 90
2
 70
0
 10
383.866305
 20
34.413479
 30
0.0
 10
383.866305
 20
34.413479
 30
0.0
  0
SPLINE
  5
29e
100
AcDbEntity
  8
Layer_1
 62
5
100
AcDbSpline
 70
8
 71
3
 72
8
 73
4
 74
0
 40
0
 40
0
 40
0
 40
0
 40
1
 40
1
 40
1
 40
1
 10
485.466305
 20
34.413479
 30
0.0
 10
485.565902
 20
34.418559
 30
0.0
 10
485.674162
 20
34.413479
 30
0.0
 10
485.775028
 20
34.413479
 30
0.0
  0
SPLINE
  5
29f
100
AcDbEntity
  8
Layer_1
 62
5
100
AcDbSpline
 70
8
 71
3
 72
8
 73
4
 74
0
 40
0
 40
0
 40
0
 40
0
 40
1
 40
1
 40
1
 40
1
 10
485.775028
 20
34.413479
 30
0.0
 10
489.001421
 20
34.413479
 30
0.0
 10
491.613472
 20
31.801484
 30
0.0
 10
491.613472
 20
28.575007
 30
0.0
  0
SPLINE
  5
2a0
100
AcDbEntity
  8
Layer_1
 62
5
100
AcDbSpline
 70
8
 71
3
 72
8
 73
4
 74
0
 40
0
 40
0
 40
0
 40
0
 40
1
 40
1
 40
1
 40
1
 10
491.613472
 20
28.575007
 30
0.0
 10
491.613472
 20
25.348614
 30
0.0
 10
489.001421
 20
22.736535
 30
0.0
 10
485.775028
 20
22.736535
 30
0.0
  0
SPLINE
  5
2a1
100
AcDbEntity
  8
Layer_1
 62
5
100
AcDbSpline
 70
8
 71
3
 72
8
 73
4
 74
0
 40
0
 40
0
 40
0
 40
0
 40
1
 40
1
 40
1
 40
1
 10
485.775028
 20
22.736535
 30
0.0
 10
482.548523
 20
22.736535
 30
0.0
 10
479.927694
 20
25.348614
 30
0.0
 10
479.927694
 20
28.575007
 30
0.0
  0
SPLINE
  5
2a2
100
AcDbEntity
  8
Layer_1
 62
5
100
AcDbSpline
 70
8
 71
3
 72
8
 73
4
 74
0
 40
0
 40
0
 40
0
 40
0
 40
1
 40
1
 40
1
 40
1
 10
479.927694
 20
28.575007
 30
0.0
 10
479.927694
 20
31.700646
 30
0.0
 10
482.379584
 20
34.257015
 30
0.0
 10
485.466305
 20
34.413479
 30
0.0
  0
LWPOLYLINE
  5
2a3
100
AcDbEntity
  8
Layer_1
 62
5
100
AcDbPolyline
 90
2
 70
0
 10
434.666305
 20
34.413479
 30
0.0
 10
434.666305
 20
34.413479
 30
0.0
  0
SPLINE
  5
2a4
100
AcDbEntity
  8
Layer_1
 62
5
100
AcDbSpline
 70
8
 71
3
 72
8
 73
4
 74
0
 40
0
 40
0
 40
0
 40
0
 40
1
 40
1
 40
1
 40
1
 10
536.266305
 20
34.413479
 30
0.0
 10
536.365902
 20
34.418559
 30
0.0
 10
536.474162
 20
34.413479
 30
0.0
 10
536.575000
 20
34.413479
 30
0.0
  0
SPLINE
  5
2a5
100
AcDbEntity
  8
Layer_1
 62
5
100
AcDbSpline
 70
8
 71
3
 72
8
 73
4
 74
0
 40
0
 40
0
 40
0
 40
0
 40
1
 40
1
 40
1
 40
1
 10
536.575000
 20
34.413479
 30
0.0
 10
539.801421
 20
34.413479
 30
0.0
 10
542.413472
 20
31.801428
 30
0.0
 10
542.413472
 20
28.575007
 30
0.0
  0
SPLINE
  5
2a6
100
AcDbEntity
  8
Layer_1
 62
5
100
AcDbSpline
 70
8
 71
3
 72
8
 73
4
 74
0
 40
0
 40
0
 40
0
 40
0
 40
1
 40
1
 40
1
 40
1
 10
542.413472
 20
28.575007
 30
0.0
 10
542.413472
 20
25.348586
 30
0.0
 10
539.801421
 20
22.736535
 30
0.0
 10
536.575000
 20
22.736535
 30
0.0
  0
SPLINE
  5
2a7
100
AcDbEntity
  8
Layer_1
 62
5
100
AcDbSpline
 70
8
 71
3
 72
8
 73
4
 74
0
 40
0
 40
0
 40
0
 40
0
 40
1
 40
1
 40
1
 40
1
 10
536.575000
 20
22.736535
 30
0.0
 10
533.348523
 20
22.736535
 30
0.0
 10
530.727694
 20
25.348586
 30
0.0
 10
530.727694
 20
28.575007
 30
0.0
  0
SPLINE
  5
2a8
100
AcDbEntity
  8
Layer_1
 62
5
100
AcDbSpline
 70
8
 71
3
 72
8
 73
4
 74
0
 40
0
 40
0
 40
0
 40
0
 40
1
 40
1
 40
1
 40
1
 10
530.727694
 20
28.575007
 30
0.0
 10
530.727694
 20
31.700618
 30
0.0
 10
533.179584
 20
34.257015
 30
0.0
 10
536.266305
 20
34.413479
 30
0.0
  0
LWPOLYLINE
  5
2a9
100
AcDbEntity
  8
Layer_1
 62
5
100
AcDbPolyline
 90
2
 70
0
 10
485.466305
 20
34.413479
 30
0.0
 10
485.466305
 20
34.413479
 30
0.0
  0
SPLINE
  5
2aa
100
AcDbEntity
  8
Layer_1
 62
5
100
AcDbSpline
 70
8
 71
3
 72
8
 73
4
 74
0
 40
0
 40
0
 40
0
 40
0
 40
1
 40
1
 40
1
 40
1
 10
587.066277
 20
34.413479
 30
0.0
 10
587.165873
 20
34.418559
 30
0.0
 10
587.274134
 20
34.413479
 30
0.0
 10
587.374972
 20
34.413479
 30
0.0
  0
SPLINE
  5
2ab
100
AcDbEntity
  8
Layer_1
 62
5
100
AcDbSpline
 70
8
 71
3
 72
8
 73
4
 74
0
 40
0
 40
0
 40
0
 40
0
 40
1
 40
1
 40
1
 40
1
 10
587.374972
 20
34.413479
 30
0.0
 10
590.601393
 20
34.413479
 30
0.0
 10
593.213444
 20
31.801484
 30
0.0
 10
593.213444
 20
28.575007
 30
0.0
  0
SPLINE
  5
2ac
100
AcDbEntity
  8
Layer_1
 62
5
100
AcDbSpline
 70
8
 71
3
 72
8
 73
4
 74
0
 40
0
 40
0
 40
0
 40
0
 40
1
 40
1
 40
1
 40
1
 10
593.213444
 20
28.575007
 30
0.0
 10
593.213444
 20
25.348614
 30
0.0
 10
590.601393
 20
22.736535
 30
0.0
 10
587.374972
 20
22.736535
 30
0.0
  0
SPLINE
  5
2ad
100
AcDbEntity
  8
Layer_1
 62
5
100
AcDbSpline
 70
8
 71
3
 72
8
 73
4
 74
0
 40
0
 40
0
 40
0
 40
0
 40
1
 40
1
 40
1
 40
1
 10
587.374972
 20
22.736535
 30
0.0
 10
584.148494
 20
22.736535
 30
0.0
 10
581.527666
 20
25.348614
 30
0.0
 10
581.527666
 20
28.575007
 30
0.0
  0
SPLINE
  5
2ae
100
AcDbEntity
  8
Layer_1
 62
5
100
AcDbSpline
 70
8
 71
3
 72
8
 73
4
 74
0
 40
0
 40
0
 40
0
 40
0
 40
1
 40
1
 40
1
 40
1
 10
581.527666
 20
28.575007
 30
0.0
 10
581.527666
 20
31.700646
 30
0.0
 10
583.979556
 20
34.257015
 30
0.0
 10
587.066277
 20
34.413479
 30
0.0
  0
LWPOLYLINE
  5
2af
100
AcDbEntity
  8
Layer_1
 62
5
100
AcDbPolyline
 90
2
 70
0
 10
536.266305
 20
34.413479
 30
0.0
 10
536.266305
 20
34.413479
 30
0.0
  0
LWPOLYLINE
  5
2b0
100
AcDbEntity
  8
Layer_1
 62
5
100
AcDbPolyline
 90
2
 70
0
 10
587.066277
 20
34.413479
 30
0.0
 10
587.066277
 20
34.413479
 30
0.0
  0
ENDSEC
  0
SECTION
  2
OBJECTS
  0
DICTIONARY
  5
C
330
0
100
AcDbDictionary
  3
ACAD_GROUP
350
D
  3
ACAD_MLINESTYLE
350
17
  0
DICTIONARY
  5
D
330
C
100
AcDbDictionary
  0
DICTIONARY
  5
1A
330
C
100
AcDbDictionary
  0
DICTIONARY
  5
17
330
C
100
AcDbDictionary
  3
STANDARD
350
18
  0
DICTIONARY
  5
19
330
C
100
AcDbDictionary
  0
ENDSEC
  0
EOF
