<?xml version="1.0" encoding="UTF-8" standalone="no"?>
<!-- Created with Inkscape (http://www.inkscape.org/) -->

<svg
   xmlns:dc="http://purl.org/dc/elements/1.1/"
   xmlns:cc="http://creativecommons.org/ns#"
   xmlns:rdf="http://www.w3.org/1999/02/22-rdf-syntax-ns#"
   xmlns:svg="http://www.w3.org/2000/svg"
   xmlns="http://www.w3.org/2000/svg"
   xmlns:sodipodi="http://sodipodi.sourceforge.net/DTD/sodipodi-0.dtd"
   xmlns:inkscape="http://www.inkscape.org/namespaces/inkscape"
   width="2160"
   height="1080"
   id="svg2"
   version="1.1"
   inkscape:version="0.48.3.1 r9886"
   sodipodi:docname="case.svg">
  <defs
     id="defs4" />
  <sodipodi:namedview
     id="base"
     pagecolor="#ffffff"
     bordercolor="#666666"
     borderopacity="1.0"
     inkscape:pageopacity="0.0"
     inkscape:pageshadow="2"
     inkscape:zoom="0.32893519"
     inkscape:cx="916.21163"
     inkscape:cy="1510.163"
     inkscape:document-units="in"
     inkscape:current-layer="layer5"
     showgrid="false"
     units="in"
     inkscape:object-paths="false"
     inkscape:object-nodes="true"
     inkscape:window-width="1920"
     inkscape:window-height="1030"
     inkscape:window-x="0"
     inkscape:window-y="25"
     inkscape:window-maximized="1" />
  <metadata
     id="metadata7">
    <rdf:RDF>
      <cc:Work
         rdf:about="">
        <dc:format>image/svg+xml</dc:format>
        <dc:type
           rdf:resource="http://purl.org/dc/dcmitype/StillImage" />
      </cc:Work>
    </rdf:RDF>
  </metadata>
  <g
     inkscape:label="A"
     inkscape:groupmode="layer"
     id="layer1"
     transform="translate(0,27.64025)"
     style="display:inline">
    <rect
       style="color:#000000;fill:#000000;fill-opacity:1;fill-rule:nonzero;stroke:none;stroke-width:5;marker:none;visibility:visible;display:inline;overflow:visible;enable-background:accumulate"
       id="rect2985"
       width="2182.5"
       x="0"
       y="804.85974"
       height="247.5" />
    <path
       id="rect3755-0"
       style="color:#000000;fill:#ff0000;fill-opacity:1;fill-rule:nonzero;stroke:none;stroke-width:5;marker:none;visibility:visible;display:inline;overflow:visible;enable-background:accumulate"
       d="m 180.9375,906.1097 11.25,0 0,90 -11.25,0 z m -39.375,90 90,0 0,11.25 -90,0 z"
       inkscape:connector-curvature="0" />
    <path
       id="rect3755-0-6"
       style="color:#000000;fill:#ff0000;fill-opacity:1;fill-rule:nonzero;stroke:none;stroke-width:5;marker:none;visibility:visible;display:inline;overflow:visible;enable-background:accumulate"
       d="m 361.875,906.10965 11.25,0 0,90 -11.25,0 z m -39.375,90 90,0 0,11.25005 -90,0 z"
       inkscape:connector-curvature="0" />
    <path
       id="rect3755-0-8"
       style="color:#000000;fill:#ff0000;fill-opacity:1;fill-rule:nonzero;stroke:none;stroke-width:5;marker:none;visibility:visible;display:inline;overflow:visible;enable-background:accumulate"
       d="m 542.8125,906.10965 11.25,0 0,90 -11.25,0 z m -39.375,90 90,0 0,11.25005 -90,0 z"
       inkscape:connector-curvature="0" />
    <path
       id="rect3755-0-6-0"
       style="color:#000000;fill:#ff0000;fill-opacity:1;fill-rule:nonzero;stroke:none;stroke-width:5;marker:none;visibility:visible;display:inline;overflow:visible;enable-background:accumulate"
       d="m 723.75,906.1096 11.25,0 0,90 -11.25,0 z m -39.375,90 90,0 0,11.2501 -90,0 z"
       inkscape:connector-curvature="0" />
    <path
       id="rect3755-0-2"
       style="color:#000000;fill:#ff0000;fill-opacity:1;fill-rule:nonzero;stroke:none;stroke-width:5;marker:none;visibility:visible;display:inline;overflow:visible;enable-background:accumulate"
       d="m 904.6875,906.10965 11.25,0 0,90 -11.25,0 z m -39.375,90 90,0 0,11.25005 -90,0 z"
       inkscape:connector-curvature="0" />
    <path
       id="rect3755-0-6-5"
       style="color:#000000;fill:#ff0000;fill-opacity:1;fill-rule:nonzero;stroke:none;stroke-width:5;marker:none;visibility:visible;display:inline;overflow:visible;enable-background:accumulate"
       d="m 1085.625,906.1096 11.25,0 0,90 -11.25,0 z m -39.375,90 90,0 0,11.2501 -90,0 z"
       inkscape:connector-curvature="0" />
    <path
       id="rect3755-0-8-0"
       style="color:#000000;fill:#ff0000;fill-opacity:1;fill-rule:nonzero;stroke:none;stroke-width:5;marker:none;visibility:visible;display:inline;overflow:visible;enable-background:accumulate"
       d="m 1266.5625,906.1096 11.25,0 0,90 -11.25,0 z m -39.375,90 90,0 0,11.2501 -90,0 z"
       inkscape:connector-curvature="0" />
    <path
       id="rect3755-0-6-0-1"
       style="color:#000000;fill:#ff0000;fill-opacity:1;fill-rule:nonzero;stroke:none;stroke-width:5;marker:none;visibility:visible;display:inline;overflow:visible;enable-background:accumulate"
       d="m 1447.5,906.10955 11.25,0 0,90 -11.25,0 z m -39.375,90 90,0 0,11.25015 -90,0 z"
       inkscape:connector-curvature="0" />
    <path
       id="rect3755-0-6-5-1"
       style="color:#000000;fill:#ff0000;fill-opacity:1;fill-rule:nonzero;stroke:none;stroke-width:5;marker:none;visibility:visible;display:inline;overflow:visible;enable-background:accumulate"
       d="m 1628.4375,906.10955 11.25,0 0,90 -11.25,0 z m -39.375,90 90,0 0,11.25015 -90,0 z"
       inkscape:connector-curvature="0" />
    <path
       id="rect3755-0-8-0-3"
       style="color:#000000;fill:#ff0000;fill-opacity:1;fill-rule:nonzero;stroke:none;stroke-width:5;marker:none;visibility:visible;display:inline;overflow:visible;enable-background:accumulate"
       d="m 1809.375,906.10955 11.25,0 0,90 -11.25,0 z m -39.375,90 90,0 0,11.25015 -90,0 z"
       inkscape:connector-curvature="0" />
    <path
       id="rect3755-0-6-0-1-0"
       style="color:#000000;fill:#ff0000;fill-opacity:1;fill-rule:nonzero;stroke:none;stroke-width:5;marker:none;visibility:visible;display:inline;overflow:visible;enable-background:accumulate"
       d="m 1990.3125,906.1095 11.25,0 0,90 -11.25,0 z m -39.375,90 90,0 0,11.2502 -90,0 z"
       inkscape:connector-curvature="0" />
    <rect
       style="color:#000000;fill:#ff0000;fill-opacity:1;fill-rule:nonzero;stroke:none;stroke-width:5;marker:none;visibility:visible;display:inline;overflow:visible;enable-background:accumulate"
       id="rect3871"
       width="180"
       height="204.05083"
       x="786.81238"
       y="1277.6238" />
    <rect
       style="color:#000000;fill:#ff0000;fill-opacity:1;fill-rule:nonzero;stroke:none;stroke-width:5;marker:none;visibility:visible;display:inline;overflow:visible;enable-background:accumulate"
       id="rect3934"
       width="11.25"
       height="56.25"
       x="0"
       y="804.85974" />
    <rect
       style="color:#000000;fill:#ff0000;fill-opacity:1;fill-rule:nonzero;stroke:none;stroke-width:5;marker:none;visibility:visible;display:inline;overflow:visible;enable-background:accumulate"
       id="rect3934-1"
       width="11.25"
       height="45"
       x="0"
       y="906.10974" />
    <rect
       style="color:#000000;fill:#ff0000;fill-opacity:1;fill-rule:nonzero;stroke:none;stroke-width:5;marker:none;visibility:visible;display:inline;overflow:visible;enable-background:accumulate"
       id="rect3934-4"
       width="11.25"
       height="56.25"
       x="0"
       y="996.10974" />
    <rect
       style="color:#000000;fill:#ff0000;fill-opacity:1;fill-rule:nonzero;stroke:none;stroke-width:5;marker:none;visibility:visible;display:inline;overflow:visible;enable-background:accumulate"
       id="rect3934-7"
       width="11.25"
       height="56.25"
       x="2171.25"
       y="804.85974" />
    <rect
       style="color:#000000;fill:#ff0000;fill-opacity:1;fill-rule:nonzero;stroke:none;stroke-width:5;marker:none;visibility:visible;display:inline;overflow:visible;enable-background:accumulate"
       id="rect3934-1-5"
       width="11.25"
       height="45"
       x="2171.25"
       y="906.10974" />
    <rect
       style="color:#000000;fill:#ff0000;fill-opacity:1;fill-rule:nonzero;stroke:none;stroke-width:5;marker:none;visibility:visible;display:inline;overflow:visible;enable-background:accumulate"
       id="rect3934-4-6"
       width="11.25"
       height="56.25"
       x="2171.25"
       y="996.10974" />
    <path
       id="rect3755-0-6-0-1-0-8"
       style="color:#000000;fill:#ff0000;fill-opacity:1;fill-rule:nonzero;stroke:none;stroke-width:5;marker:none;visibility:visible;display:inline;overflow:visible;enable-background:accumulate"
       d="m -337.0256,908.6412 11.25,0 0,90.00003 -11.25,0 z m -39.375,90.00003 90,0 0,11.25017 -90,0 z"
       inkscape:connector-curvature="0" />
    <rect
       style="color:#000000;fill:#ff0000;fill-opacity:1;fill-rule:nonzero;stroke:none;stroke-width:5;marker:none;visibility:visible;display:inline;overflow:visible;enable-background:accumulate"
       id="rect3934-7-3"
       width="11.25"
       height="56.25"
       x="-156.08812"
       y="807.39142" />
    <rect
       style="color:#000000;fill:#ff0000;fill-opacity:1;fill-rule:nonzero;stroke:none;stroke-width:5;marker:none;visibility:visible;display:inline;overflow:visible;enable-background:accumulate"
       id="rect3934-1-5-2"
       width="11.25"
       height="45"
       x="-156.08812"
       y="908.64142" />
    <rect
       style="color:#000000;fill:#ff0000;fill-opacity:1;fill-rule:nonzero;stroke:none;stroke-width:5;marker:none;visibility:visible;display:inline;overflow:visible;enable-background:accumulate"
       id="rect3934-4-6-8"
       width="11.25"
       height="56.25"
       x="-156.08812"
       y="998.64136" />
  </g>
  <g
     inkscape:groupmode="layer"
     id="layer2"
     inkscape:label="B"
     style="display:inline">
    <rect
       style="color:#000000;fill:#000000;fill-opacity:1;fill-rule:nonzero;stroke:none;stroke-width:5;marker:none;visibility:visible;display:inline;overflow:visible;enable-background:accumulate"
       id="rect2985-7"
       width="1102.5"
       x="2.0203094"
       y="523.39331"
       height="247.5" />
    <rect
       style="color:#000000;fill:#ff0000;fill-opacity:1;fill-rule:nonzero;stroke:none;stroke-width:5;marker:none;visibility:visible;display:inline;overflow:visible;enable-background:accumulate"
       id="rect3934-1-5-2-5-8"
       width="11.25"
       height="45"
       x="2.0203094"
       y="579.64331" />
    <rect
       style="color:#000000;fill:#ff0000;fill-opacity:1;fill-rule:nonzero;stroke:none;stroke-width:5;marker:none;visibility:visible;display:inline;overflow:visible;enable-background:accumulate"
       id="rect3934-1-5-2-5-3"
       width="11.25"
       height="45"
       x="2.0203094"
       y="669.64331" />
    <path
       id="rect3755-0-6-0-1-0-8-5"
       style="color:#000000;fill:#ff0000;fill-opacity:1;fill-rule:nonzero;stroke:none;stroke-width:5;marker:none;visibility:visible;display:inline;overflow:visible;enable-background:accumulate"
       d="m 183.89529,624.64312 11.25,0 0,90.0001 -11.25,0 z m -39.375,90.0001 90,0 0,11.2501 -90,0 z"
       inkscape:connector-curvature="0" />
    <path
       id="rect3755-0-6-0-1-0-8-5-2"
       style="color:#000000;fill:#ff0000;fill-opacity:1;fill-rule:nonzero;stroke:none;stroke-width:5;marker:none;visibility:visible;display:inline;overflow:visible;enable-background:accumulate"
       d="m 365.7703,624.64312 11.25,0 0,90.0001 -11.25,0 z m -39.375,90.0001 90,0 0,11.2501 -90,0 z"
       inkscape:connector-curvature="0" />
    <path
       id="rect3755-0-6-0-1-0-8-5-1"
       style="color:#000000;fill:#ff0000;fill-opacity:1;fill-rule:nonzero;stroke:none;stroke-width:5;marker:none;visibility:visible;display:inline;overflow:visible;enable-background:accumulate"
       d="m 729.52032,624.64312 11.25,0 0,90.0001 -11.25,0 z m -39.375,90.0001 90,0 0,11.2501 -90,0 z"
       inkscape:connector-curvature="0" />
    <path
       id="rect3755-0-6-0-1-0-8-5-7"
       style="color:#000000;fill:#ff0000;fill-opacity:1;fill-rule:nonzero;stroke:none;stroke-width:5;marker:none;visibility:visible;display:inline;overflow:visible;enable-background:accumulate"
       d="m 547.64529,624.64312 11.25,0 0,90.0001 -11.25,0 z m -39.37496,90.0001 89.99996,0 0,11.2501 -89.99996,0 z"
       inkscape:connector-curvature="0" />
    <path
       id="rect3755-0-6-0-1-0-8-5-6"
       style="color:#000000;fill:#ff0000;fill-opacity:1;fill-rule:nonzero;stroke:none;stroke-width:5;marker:none;visibility:visible;display:inline;overflow:visible;enable-background:accumulate"
       d="m 911.39527,624.64312 11.25,0 0,90.0001 -11.25,0 z m -39.375,90.0001 90.0001,0 0,11.2501 -90.0001,0 z"
       inkscape:connector-curvature="0" />
    <rect
       style="color:#000000;fill:#ff0000;fill-opacity:1;fill-rule:nonzero;stroke:none;stroke-width:5;marker:none;visibility:visible;display:inline;overflow:visible;enable-background:accumulate"
       id="rect3934-1-5-2-5-8-0"
       width="11.25"
       height="45"
       x="1093.2703"
       y="579.64337" />
    <rect
       style="color:#000000;fill:#ff0000;fill-opacity:1;fill-rule:nonzero;stroke:none;stroke-width:5;marker:none;visibility:visible;display:inline;overflow:visible;enable-background:accumulate"
       id="rect3934-1-5-2-5-3-6"
       width="11.25"
       height="45"
       x="1093.2703"
       y="669.64337" />
  </g>
  <g
     inkscape:groupmode="layer"
     id="layer3"
     inkscape:label="C"
     style="display:inline">
    <rect
       style="color:#000000;fill:#000000;fill-opacity:1;fill-rule:nonzero;stroke:none;stroke-width:5;marker:none;visibility:visible;display:inline;overflow:visible;enable-background:accumulate"
       id="rect2985-9"
       width="2182.5"
       x="4.6271887"
       y="181.28278"
       height="180" />
    <rect
       style="color:#000000;fill:#ff0000;fill-opacity:1;fill-rule:nonzero;stroke:none;stroke-width:5;marker:none;visibility:visible;display:inline;overflow:visible;enable-background:accumulate"
       id="rect3934-3"
       width="11.25"
       height="56.25"
       x="-167.97058"
       y="95.600037" />
    <rect
       style="color:#000000;fill:#ff0000;fill-opacity:1;fill-rule:nonzero;stroke:none;stroke-width:5;marker:none;visibility:visible;display:inline;overflow:visible;enable-background:accumulate"
       id="rect3934-1-4"
       width="11.25"
       height="45"
       x="-167.97058"
       y="196.85004" />
    <rect
       style="color:#000000;fill:#ff0000;fill-opacity:1;fill-rule:nonzero;stroke:none;stroke-width:5;marker:none;visibility:visible;display:inline;overflow:visible;enable-background:accumulate"
       id="rect3934-4-69"
       width="11.25"
       height="56.25"
       x="-167.97058"
       y="286.85007" />
    <rect
       style="color:#000000;fill:#ff0000;fill-opacity:1;fill-rule:nonzero;stroke:none;stroke-width:5;marker:none;visibility:visible;display:inline;overflow:visible;enable-background:accumulate"
       id="rect3934-7-4"
       width="11.25"
       height="56.25"
       x="2257.8379"
       y="115.80309" />
    <rect
       style="color:#000000;fill:#ff0000;fill-opacity:1;fill-rule:nonzero;stroke:none;stroke-width:5;marker:none;visibility:visible;display:inline;overflow:visible;enable-background:accumulate"
       id="rect3934-1-5-9"
       width="11.25"
       height="45"
       x="2257.8379"
       y="217.05309" />
    <rect
       style="color:#000000;fill:#ff0000;fill-opacity:1;fill-rule:nonzero;stroke:none;stroke-width:5;marker:none;visibility:visible;display:inline;overflow:visible;enable-background:accumulate"
       id="rect3934-4-6-0"
       width="11.25"
       height="56.25"
       x="2257.8379"
       y="307.0531" />
    <rect
       style="color:#000000;fill:#ff0000;fill-opacity:1;fill-rule:nonzero;stroke:none;stroke-width:5;marker:none;visibility:visible;display:inline;overflow:visible;enable-background:accumulate"
       id="rect3934-3-1"
       width="11.25"
       height="90"
       x="4.6271887"
       y="181.28278" />
    <rect
       style="color:#000000;fill:#ff0000;fill-opacity:1;fill-rule:nonzero;stroke:none;stroke-width:5;marker:none;visibility:visible;display:inline;overflow:visible;enable-background:accumulate"
       id="rect3934-3-1-5"
       width="11.25"
       height="90"
       x="185.56468"
       y="271.28278" />
    <rect
       style="color:#000000;fill:#ff0000;fill-opacity:1;fill-rule:nonzero;stroke:none;stroke-width:5;marker:none;visibility:visible;display:inline;overflow:visible;enable-background:accumulate"
       id="rect3934-3-1-4"
       width="11.25"
       height="90"
       x="366.5022"
       y="271.28278" />
    <rect
       style="color:#000000;fill:#ff0000;fill-opacity:1;fill-rule:nonzero;stroke:none;stroke-width:5;marker:none;visibility:visible;display:inline;overflow:visible;enable-background:accumulate"
       id="rect3934-3-1-43"
       width="11.25"
       height="90"
       x="547.4397"
       y="271.28278" />
    <rect
       style="color:#000000;fill:#ff0000;fill-opacity:1;fill-rule:nonzero;stroke:none;stroke-width:5;marker:none;visibility:visible;display:inline;overflow:visible;enable-background:accumulate"
       id="rect3934-3-1-9"
       width="11.25"
       height="90"
       x="728.3772"
       y="271.28278" />
    <rect
       style="color:#000000;fill:#ff0000;fill-opacity:1;fill-rule:nonzero;stroke:none;stroke-width:5;marker:none;visibility:visible;display:inline;overflow:visible;enable-background:accumulate"
       id="rect3934-3-1-1"
       width="11.25"
       height="90"
       x="909.3147"
       y="271.28278" />
    <rect
       style="color:#000000;fill:#ff0000;fill-opacity:1;fill-rule:nonzero;stroke:none;stroke-width:5;marker:none;visibility:visible;display:inline;overflow:visible;enable-background:accumulate"
       id="rect3934-3-1-6"
       width="11.25"
       height="90"
       x="1090.2522"
       y="271.28278" />
    <rect
       style="color:#000000;fill:#ff0000;fill-opacity:1;fill-rule:nonzero;stroke:none;stroke-width:5;marker:none;visibility:visible;display:inline;overflow:visible;enable-background:accumulate"
       id="rect3934-3-1-3"
       width="11.25"
       height="90"
       x="1271.1897"
       y="271.28278" />
    <rect
       style="color:#000000;fill:#ff0000;fill-opacity:1;fill-rule:nonzero;stroke:none;stroke-width:5;marker:none;visibility:visible;display:inline;overflow:visible;enable-background:accumulate"
       id="rect3934-3-1-42"
       width="11.25"
       height="90"
       x="1452.1272"
       y="271.28278" />
    <rect
       style="color:#000000;fill:#ff0000;fill-opacity:1;fill-rule:nonzero;stroke:none;stroke-width:5;marker:none;visibility:visible;display:inline;overflow:visible;enable-background:accumulate"
       id="rect3934-3-1-2"
       width="11.25"
       height="90"
       x="1633.0647"
       y="271.28278" />
    <rect
       style="color:#000000;fill:#ff0000;fill-opacity:1;fill-rule:nonzero;stroke:none;stroke-width:5;marker:none;visibility:visible;display:inline;overflow:visible;enable-background:accumulate"
       id="rect3934-3-1-64"
       width="11.25"
       height="90"
       x="1814.0022"
       y="271.28278" />
    <rect
       style="color:#000000;fill:#ff0000;fill-opacity:1;fill-rule:nonzero;stroke:none;stroke-width:5;marker:none;visibility:visible;display:inline;overflow:visible;enable-background:accumulate"
       id="rect3934-3-1-7"
       width="11.25"
       height="90"
       x="1994.9397"
       y="271.28278" />
    <rect
       style="color:#000000;fill:#ff0000;fill-opacity:1;fill-rule:nonzero;stroke:none;stroke-width:5;marker:none;visibility:visible;display:inline;overflow:visible;enable-background:accumulate"
       id="rect3934-3-1-50"
       width="11.25"
       height="90"
       x="2175.8772"
       y="181.28278" />
  </g>
  <g
     inkscape:groupmode="layer"
     id="layer4"
     inkscape:label="D"
     style="display:inline">
    <rect
       style="color:#000000;fill:#000000;fill-opacity:1;fill-rule:nonzero;stroke:none;stroke-width:5;marker:none;visibility:visible;display:inline;overflow:visible;enable-background:accumulate"
       id="rect2985-7-8"
       width="1102.5"
       x="20.49634"
       y="-111.66145"
       height="180" />
    <rect
       style="color:#000000;fill:#ff0000;fill-opacity:1;fill-rule:nonzero;stroke:none;stroke-width:5;marker:none;visibility:visible;display:inline;overflow:visible;enable-background:accumulate"
       id="rect3934-1-5-2-5-8-5"
       width="11.25"
       height="90"
       x="20.49634"
       y="-111.66145" />
    <rect
       style="color:#000000;fill:#ff0000;fill-opacity:1;fill-rule:nonzero;stroke:none;stroke-width:5;marker:none;visibility:visible;display:inline;overflow:visible;enable-background:accumulate"
       id="rect3934-1-5-2-5-8-5-8"
       width="11.25"
       height="90"
       x="202.37134"
       y="-111.66145" />
    <rect
       style="color:#000000;fill:#ff0000;fill-opacity:1;fill-rule:nonzero;stroke:none;stroke-width:5;marker:none;visibility:visible;display:inline;overflow:visible;enable-background:accumulate"
       id="rect3934-1-5-2-5-8-5-1"
       width="11.25"
       height="90"
       x="384.24634"
       y="-111.66145" />
    <rect
       style="color:#000000;fill:#ff0000;fill-opacity:1;fill-rule:nonzero;stroke:none;stroke-width:5;marker:none;visibility:visible;display:inline;overflow:visible;enable-background:accumulate"
       id="rect3934-1-5-2-5-8-5-5"
       width="11.25"
       height="90"
       x="566.12134"
       y="-111.66145" />
    <rect
       style="color:#000000;fill:#ff0000;fill-opacity:1;fill-rule:nonzero;stroke:none;stroke-width:5;marker:none;visibility:visible;display:inline;overflow:visible;enable-background:accumulate"
       id="rect3934-1-5-2-5-8-5-0"
       width="11.25"
       height="90"
       x="747.99634"
       y="-111.66145" />
    <rect
       style="color:#000000;fill:#ff0000;fill-opacity:1;fill-rule:nonzero;stroke:none;stroke-width:5;marker:none;visibility:visible;display:inline;overflow:visible;enable-background:accumulate"
       id="rect3934-1-5-2-5-8-5-3"
       width="11.25"
       height="90"
       x="929.87134"
       y="-111.66145" />
    <rect
       style="color:#000000;fill:#ff0000;fill-opacity:1;fill-rule:nonzero;stroke:none;stroke-width:5;marker:none;visibility:visible;display:inline;overflow:visible;enable-background:accumulate"
       id="rect3934-1-5-2-5-8-5-04"
       width="11.25"
       height="90"
       x="1111.7463"
       y="-111.66145" />
  </g>
  <g
     inkscape:groupmode="layer"
     id="layer5"
     inkscape:label="E">
    <rect
       style="color:#000000;fill:#000000;fill-opacity:1;fill-rule:nonzero;stroke:none;stroke-width:5;marker:none;visibility:visible;display:inline;overflow:visible;enable-background:accumulate"
       id="rect4552"
       width="2182.5"
       height="1102.5"
       x="20.59473"
       y="-1381.3243" />
    <path
       style="color:#000000;fill:#ff0000;fill-opacity:1;fill-rule:nonzero;stroke:none;stroke-width:5;marker:none;visibility:visible;display:inline;overflow:visible;enable-background:accumulate"
       d="m 96.597539,-1538.1909 0,11.25 130.312511,0 0,-11.25 -130.312511,0 z m 220.312511,0 0,11.25 90.9375,0 0,-11.25 -90.9375,0 z m 180.9375,0 0,11.25 90.9375,0 0,-11.25 -90.9375,0 z m 180.9375,0 0,11.25 90.9375,0 0,-11.25 -90.9375,0 z m 180.9375,0 0,11.25 90.9375,0 0,-11.25 -90.9375,0 z m 180.93745,0 0,11.25 90.9375,0 0,-11.25 -90.9375,0 z m 180.9375,0 0,11.25 90.9375,0 0,-11.25 -90.9375,0 z m 180.9375,0 0,11.25 90.9375,0 0,-11.25 -90.9375,0 z m 180.9375,0 0,11.25 90.9375,0 0,-11.25 -90.9375,0 z m 180.9375,0 0,11.25 90.9375,0 0,-11.25 -90.9375,0 z m 180.9375,0 0,11.25 90.9375,0 0,-11.25 -90.9375,0 z m 180.9375,0 0,11.25 130.3125,0 0,-11.25 -130.3125,0 z"
       id="rect4609"
       inkscape:connector-curvature="0" />
    <path
       style="color:#000000;fill:#ff0000;fill-opacity:1;fill-rule:nonzero;stroke:none;stroke-width:5;marker:none;visibility:visible;display:inline;overflow:visible;enable-background:accumulate"
       d="m 43.094757,-278.82434 0,11.25 130.312503,0 0,-11.25 -130.312503,0 z m 220.312503,0 0,11.25 90.9375,0 0,-11.25 -90.9375,0 z m 180.9375,0 0,11.25 90.9375,0 0,-11.25 -90.9375,0 z m 180.9375,0 0,11.25 90.9375,0 0,-11.25 -90.9375,0 z m 180.9375,0 0,11.25 90.9375,0 0,-11.25 -90.9375,0 z m 180.9375,0 0,11.25 90.93744,0 0,-11.25 -90.93744,0 z m 180.93744,0 0,11.25 90.9375,0 0,-11.25 -90.9375,0 z m 180.9375,0 0,11.25 90.9375,0 0,-11.25 -90.9375,0 z m 180.9375,0 0,11.25 90.9375,0 0,-11.25 -90.9375,0 z m 180.9375,0 0,11.25 90.9375,0 0,-11.25 -90.9375,0 z m 180.9375,0 0,11.25 90.9375,0 0,-11.25 -90.9375,0 z m 180.9375,0 0,11.25 130.3125,0 0,-11.25 -130.3125,0 z"
       id="rect4609-0"
       inkscape:connector-curvature="0" />
    <path
       style="color:#000000;fill:#ff0000;fill-opacity:1;fill-rule:nonzero;stroke:none;stroke-width:5;marker:none;visibility:visible;display:inline;overflow:visible;enable-background:accumulate"
       d="m 2308.2794,-1340.5836 -11.25,0 0,131.25 11.25,0 0,-131.25 z m 0,221.25 -11.25,0 0,91.875 11.25,0 0,-91.875 z m 0,181.87498 -11.25,0 0,91.875 11.25,0 0,-91.875 z m 0,181.87501 -11.25,0 0,91.875 11.25,0 0,-91.875 z m 0,181.875 -11.25,0 0,91.875 11.25,0 0,-91.875 z m 0,181.875 -11.25,0 0,131.25 11.25,0 0,-131.25 z"
       id="rect4676"
       inkscape:connector-curvature="0" />
    <path
       style="color:#000000;fill:#ff0000;fill-opacity:1;fill-rule:nonzero;stroke:none;stroke-width:5;marker:none;visibility:visible;display:inline;overflow:visible;enable-background:accumulate"
       d="m -59.358651,-1361.8644 -11.25,0 0,131.25 11.25,0 0,-131.25 z m 0,221.25 -11.25,0 0,91.875 11.25,0 0,-91.875 z m 0,181.87499 -11.25,0 0,91.875 11.25,0 0,-91.875 z m 0,181.87501 -11.25,0 0,91.875 11.25,0 0,-91.875 z m 0,181.875 -11.25,0 0,91.875 11.25,0 0,-91.875 z m 0,181.875 -11.25,0 0,131.24999 11.25,0 0,-131.24999 z"
       id="rect4676-2"
       inkscape:connector-curvature="0" />
    <path
       inkscape:connector-curvature="0"
       id="path4698-8-1-4-2-1-6"
       style="color:#000000;fill:#ff0000;fill-opacity:1;fill-rule:nonzero;stroke:none;stroke-width:5;marker:none;visibility:visible;display:inline;overflow:visible;enable-background:accumulate"
       d="m 4598.1068,-1384.3486 c 0,11.4323 -9.2677,20.7 -20.7,20.7 -11.4323,0 -20.7,-9.2677 -20.7,-20.7 0,-11.4323 9.2677,-20.7 20.7,-20.7 11.4323,0 20.7,9.2677 20.7,20.7 z m 0,180 c 0,11.4323 -9.2677,20.7 -20.7,20.7 -11.4323,0 -20.7,-9.2677 -20.7,-20.7 0,-11.4323 9.2677,-20.7 20.7,-20.7 11.4323,0 20.7,9.2677 20.7,20.7 z m 0,180 c 0,11.4323 -9.2677,20.7 -20.7,20.7 -11.4323,0 -20.7,-9.2677 -20.7,-20.7 0,-11.4323 9.2677,-20.7 20.7,-20.7 11.4323,0 20.7,9.2677 20.7,20.7 z m 0,179.99998 c 0,11.4322 -9.2677,20.7 -20.7,20.7 -11.4323,0 -20.7,-9.2678 -20.7,-20.7 0,-11.4323 9.2677,-20.7 20.7,-20.7 11.4323,0 20.7,9.2677 20.7,20.7 z m 0,179.99999 c 0,11.4322 -9.2677,20.7 -20.7,20.7 -11.4323,0 -20.7,-9.2678 -20.7,-20.7 0,-11.4323 9.2677,-20.69999 20.7,-20.69999 11.4323,0 20.7,9.26769 20.7,20.69999 z m 0,180 c 0,11.4322 -9.2677,20.7 -20.7,20.7 -11.4323,0 -20.7,-9.2678 -20.7,-20.7 0,-11.4323 9.2677,-20.7 20.7,-20.7 11.4323,0 20.7,9.2677 20.7,20.7 z m -180,-899.99997 c 0,11.4323 -9.2677,20.7 -20.7,20.7 -11.4323,0 -20.7,-9.2677 -20.7,-20.7 0,-11.4323 9.2677,-20.7 20.7,-20.7 11.4323,0 20.7,9.2677 20.7,20.7 z m 0,180 c 0,11.4323 -9.2677,20.7 -20.7,20.7 -11.4323,0 -20.7,-9.2677 -20.7,-20.7 0,-11.4323 9.2677,-20.7 20.7,-20.7 11.4323,0 20.7,9.2677 20.7,20.7 z m 0,180 c 0,11.4323 -9.2677,20.7 -20.7,20.7 -11.4323,0 -20.7,-9.2677 -20.7,-20.7 0,-11.4323 9.2677,-20.7 20.7,-20.7 11.4323,0 20.7,9.2677 20.7,20.7 z m 0,179.99988 c 0,11.4323 -9.2677,20.7 -20.7,20.7 -11.4323,0 -20.7,-9.2677 -20.7,-20.7 0,-11.4322 9.2677,-20.7 20.7,-20.7 11.4323,0 20.7,9.2678 20.7,20.7 z m 0,179.99999 c 0,11.4323 -9.2677,20.7 -20.7,20.7 -11.4323,0 -20.7,-9.2677 -20.7,-20.7 0,-11.4322 9.2677,-20.69999 20.7,-20.69999 11.4323,0 20.7,9.26779 20.7,20.69999 z m 0,180 c 0,11.4323 -9.2677,20.7 -20.7,20.7 -11.4323,0 -20.7,-9.2677 -20.7,-20.7 0,-11.4322 9.2677,-20.7 20.7,-20.7 11.4323,0 20.7,9.2678 20.7,20.7 z m -180,-899.99987 c 0,11.4323 -9.2677,20.7 -20.7,20.7 -11.4323,0 -20.7,-9.2677 -20.7,-20.7 0,-11.4323 9.2677,-20.7 20.7,-20.7 11.4323,0 20.7,9.2677 20.7,20.7 z m 0,180 c 0,11.4323 -9.2677,20.7 -20.7,20.7 -11.4323,0 -20.7,-9.2677 -20.7,-20.7 0,-11.4323 9.2677,-20.7 20.7,-20.7 11.4323,0 20.7,9.2677 20.7,20.7 z m 0,180 c 0,11.4323 -9.2677,20.7 -20.7,20.7 -11.4323,0 -20.7,-9.2677 -20.7,-20.7 0,-11.4323 9.2677,-20.7 20.7,-20.7 11.4323,0 20.7,9.2677 20.7,20.7 z m 0,179.99995 c 0,11.43228 -9.2677,20.7 -20.7,20.7 -11.4323,0 -20.7,-9.26772 -20.7,-20.7 0,-11.43228 9.2677,-20.7 20.7,-20.7 11.4323,0 20.7,9.26772 20.7,20.7 z m 0,180.00002 c 0,11.4323 -9.2677,20.7 -20.7,20.7 -11.4323,0 -20.7,-9.2677 -20.7,-20.7 0,-11.4323 9.2677,-20.70002 20.7,-20.70002 11.4323,0 20.7,9.26772 20.7,20.70002 z m 0,180 c 0,11.4322 -9.2677,20.7 -20.7,20.7 -11.4323,0 -20.7,-9.2678 -20.7,-20.7 0,-11.4323 9.2677,-20.7 20.7,-20.7 11.4323,0 20.7,9.2677 20.7,20.7 z m -180,-899.99997 c 0,11.4323 -9.2677,20.7 -20.7,20.7 -11.4323,0 -20.7,-9.2677 -20.7,-20.7 0,-11.4323 9.2677,-20.7 20.7,-20.7 11.4323,0 20.7,9.2677 20.7,20.7 z m 0,180 c 0,11.4323 -9.2677,20.7 -20.7,20.7 -11.4323,0 -20.7,-9.2677 -20.7,-20.7 0,-11.4323 9.2677,-20.7 20.7,-20.7 11.4323,0 20.7,9.2677 20.7,20.7 z m 0,180 c 0,11.4323 -9.2677,20.7 -20.7,20.7 -11.4323,0 -20.7,-9.2677 -20.7,-20.7 0,-11.4323 9.2677,-20.7 20.7,-20.7 11.4323,0 20.7,9.2677 20.7,20.7 z m 0,179.99994 c 0,11.43228 -9.2677,20.7 -20.7,20.7 -11.4323,0 -20.7,-9.26772 -20.7,-20.7 0,-11.43228 9.2677,-20.7 20.7,-20.7 11.4323,0 20.7,9.26772 20.7,20.7 z m 0,180.00003 c 0,11.4322 -9.2677,20.7 -20.7,20.7 -11.4323,0 -20.7,-9.2678 -20.7,-20.7 0,-11.4323 9.2677,-20.70003 20.7,-20.70003 11.4323,0 20.7,9.26773 20.7,20.70003 z m 0,180 c 0,11.4322 -9.2677,20.7 -20.7,20.7 -11.4323,0 -20.7,-9.2678 -20.7,-20.7 0,-11.4323 9.2677,-20.7 20.7,-20.7 11.4323,0 20.7,9.2677 20.7,20.7 z m -180.0001,-899.99997 c 0,11.4323 -9.2677,20.7 -20.7,20.7 -11.4323,0 -20.7,-9.2677 -20.7,-20.7 0,-11.4323 9.2677,-20.7 20.7,-20.7 11.4323,0 20.7,9.2677 20.7,20.7 z m 0,180 c 0,11.4323 -9.2677,20.7 -20.7,20.7 -11.4323,0 -20.7,-9.2677 -20.7,-20.7 0,-11.4323 9.2677,-20.7 20.7,-20.7 11.4323,0 20.7,9.2677 20.7,20.7 z m 0,180 c 0,11.4323 -9.2677,20.7 -20.7,20.7 -11.4323,0 -20.7,-9.2677 -20.7,-20.7 0,-11.4323 9.2677,-20.7 20.7,-20.7 11.4323,0 20.7,9.2677 20.7,20.7 z m 0,179.99997 c 0,11.4322 -9.2677,20.7 -20.7,20.7 -11.4323,0 -20.7,-9.2678 -20.7,-20.7 0,-11.4323 9.2677,-20.7 20.7,-20.7 11.4323,0 20.7,9.2677 20.7,20.7 z m 0,180 c 0,11.4322 -9.2677,20.7 -20.7,20.7 -11.4323,0 -20.7,-9.2678 -20.7,-20.7 0,-11.4323 9.2677,-20.7 20.7,-20.7 11.4323,0 20.7,9.2677 20.7,20.7 z m 0,180 c 0,11.4322 -9.2677,20.7 -20.7,20.7 -11.4323,0 -20.7,-9.2678 -20.7,-20.7 0,-11.4323 9.2677,-20.7 20.7,-20.7 11.4323,0 20.7,9.2677 20.7,20.7 z m -179.9999,-899.99997 c 0,11.4323 -9.2677,20.7 -20.7,20.7 -11.4323,0 -20.7,-9.2677 -20.7,-20.7 0,-11.4323 9.2677,-20.7 20.7,-20.7 11.4323,0 20.7,9.2677 20.7,20.7 z m 0,180 c 0,11.4323 -9.2677,20.7 -20.7,20.7 -11.4323,0 -20.7,-9.2677 -20.7,-20.7 0,-11.4323 9.2677,-20.7 20.7,-20.7 11.4323,0 20.7,9.2677 20.7,20.7 z m 0,180 c 0,11.4323 -9.2677,20.7 -20.7,20.7 -11.4323,0 -20.7,-9.2677 -20.7,-20.7 0,-11.4323 9.2677,-20.7 20.7,-20.7 11.4323,0 20.7,9.2677 20.7,20.7 z m 0,179.99987 c 0,11.4323 -9.2677,20.7 -20.7,20.7 -11.4323,0 -20.7,-9.2677 -20.7,-20.7 0,-11.4322 9.2677,-20.7 20.7,-20.7 11.4323,0 20.7,9.2678 20.7,20.7 z m 0,180 c 0,11.4323 -9.2677,20.7 -20.7,20.7 -11.4323,0 -20.7,-9.2677 -20.7,-20.7 0,-11.4322 9.2677,-20.7 20.7,-20.7 11.4323,0 20.7,9.2678 20.7,20.7 z m 0,180 c 0,11.4323 -9.2677,20.7 -20.7,20.7 -11.4323,0 -20.7,-9.2677 -20.7,-20.7 0,-11.4322 9.2677,-20.7 20.7,-20.7 11.4323,0 20.7,9.2678 20.7,20.7 z m -179.9999,-899.99987 c 0,11.4323 -9.2677,20.7 -20.7,20.7 -11.4323,0 -20.7,-9.2677 -20.7,-20.7 0,-11.4323 9.2677,-20.7 20.7,-20.7 11.4323,0 20.7,9.2677 20.7,20.7 z m 0,180 c 0,11.4323 -9.2677,20.7 -20.7,20.7 -11.4323,0 -20.7,-9.2677 -20.7,-20.7 0,-11.4323 9.2677,-20.7 20.7,-20.7 11.4323,0 20.7,9.2677 20.7,20.7 z m 0,180 c 0,11.4323 -9.2677,20.7 -20.7,20.7 -11.4323,0 -20.7,-9.2677 -20.7,-20.7 0,-11.4323 9.2677,-20.7 20.7,-20.7 11.4323,0 20.7,9.2677 20.7,20.7 z m 0,179.99994 c 0,11.43228 -9.2677,20.7 -20.7,20.7 -11.4323,0 -20.7,-9.26772 -20.7,-20.7 0,-11.43228 9.2677,-20.7 20.7,-20.7 11.4323,0 20.7,9.26772 20.7,20.7 z m 0,180.00003 c 0,11.4322 -9.2677,20.7 -20.7,20.7 -11.4323,0 -20.7,-9.2678 -20.7,-20.7 0,-11.4323 9.2677,-20.70003 20.7,-20.70003 11.4323,0 20.7,9.26773 20.7,20.70003 z m 0,180 c 0,11.4322 -9.2677,20.7 -20.7,20.7 -11.4323,0 -20.7,-9.2678 -20.7,-20.7 0,-11.4323 9.2677,-20.7 20.7,-20.7 11.4323,0 20.7,9.2677 20.7,20.7 z m -180,-899.99997 c 0,11.4323 -9.2677,20.7 -20.7,20.7 -11.4323,0 -20.7,-9.2677 -20.7,-20.7 0,-11.4323 9.2677,-20.7 20.7,-20.7 11.4323,0 20.7,9.2677 20.7,20.7 z m 0,180 c 0,11.4323 -9.2677,20.7 -20.7,20.7 -11.4323,0 -20.7,-9.2677 -20.7,-20.7 0,-11.4323 9.2677,-20.7 20.7,-20.7 11.4323,0 20.7,9.2677 20.7,20.7 z m 0,180 c 0,11.4323 -9.2677,20.7 -20.7,20.7 -11.4323,0 -20.7,-9.2677 -20.7,-20.7 0,-11.4323 9.2677,-20.7 20.7,-20.7 11.4323,0 20.7,9.2677 20.7,20.7 z m 0,179.99993 c 0,11.43228 -9.2677,20.7 -20.7,20.7 -11.4323,0 -20.7,-9.26772 -20.7,-20.7 0,-11.43228 9.2677,-20.7 20.7,-20.7 11.4323,0 20.7,9.26772 20.7,20.7 z m 0,180.00004 c 0,11.4322 -9.2677,20.7 -20.7,20.7 -11.4323,0 -20.7,-9.2678 -20.7,-20.7 0,-11.4323 9.2677,-20.70004 20.7,-20.70004 11.4323,0 20.7,9.26774 20.7,20.70004 z m 0,180 c 0,11.4322 -9.2677,20.7 -20.7,20.7 -11.4323,0 -20.7,-9.2678 -20.7,-20.7 0,-11.4323 9.2677,-20.7 20.7,-20.7 11.4323,0 20.7,9.2677 20.7,20.7 z m -180.0001,-899.99997 c 0,11.4323 -9.2677,20.7 -20.7,20.7 -11.4323,0 -20.7,-9.2677 -20.7,-20.7 0,-11.4323 9.2677,-20.7 20.7,-20.7 11.4323,0 20.7,9.2677 20.7,20.7 z m 0,180 c 0,11.4323 -9.2677,20.7 -20.7,20.7 -11.4323,0 -20.7,-9.2677 -20.7,-20.7 0,-11.4323 9.2677,-20.7 20.7,-20.7 11.4323,0 20.7,9.2677 20.7,20.7 z m 0,180 c 0,11.4323 -9.2677,20.7 -20.7,20.7 -11.4323,0 -20.7,-9.2677 -20.7,-20.7 0,-11.4323 9.2677,-20.7 20.7,-20.7 11.4323,0 20.7,9.2677 20.7,20.7 z m 0,179.99997 c 0,11.4322 -9.2677,20.7 -20.7,20.7 -11.4323,0 -20.7,-9.2678 -20.7,-20.7 0,-11.4323 9.2677,-20.7 20.7,-20.7 11.4323,0 20.7,9.2677 20.7,20.7 z m 0,180 c 0,11.4322 -9.2677,20.7 -20.7,20.7 -11.4323,0 -20.7,-9.2678 -20.7,-20.7 0,-11.4323 9.2677,-20.7 20.7,-20.7 11.4323,0 20.7,9.2677 20.7,20.7 z m 0,180 c 0,11.4322 -9.2677,20.7 -20.7,20.7 -11.4323,0 -20.7,-9.2678 -20.7,-20.7 0,-11.4323 9.2677,-20.7 20.7,-20.7 11.4323,0 20.7,9.2677 20.7,20.7 z m -179.9999,-899.99997 c 0,11.4323 -9.2677,20.7 -20.7,20.7 -11.4323,0 -20.7,-9.2677 -20.7,-20.7 0,-11.4323 9.2677,-20.7 20.7,-20.7 11.4323,0 20.7,9.2677 20.7,20.7 z m 0,180 c 0,11.4323 -9.2677,20.7 -20.7,20.7 -11.4323,0 -20.7,-9.2677 -20.7,-20.7 0,-11.4323 9.2677,-20.7 20.7,-20.7 11.4323,0 20.7,9.2677 20.7,20.7 z m 0,180 c 0,11.4323 -9.2677,20.7 -20.7,20.7 -11.4323,0 -20.7,-9.2677 -20.7,-20.7 0,-11.4323 9.2677,-20.7 20.7,-20.7 11.4323,0 20.7,9.2677 20.7,20.7 z m 0,179.99987 c 0,11.4323 -9.2677,20.7 -20.7,20.7 -11.4323,0 -20.7,-9.2677 -20.7,-20.7 0,-11.4322 9.2677,-20.7 20.7,-20.7 11.4323,0 20.7,9.2678 20.7,20.7 z m 0,180 c 0,11.4323 -9.2677,20.7 -20.7,20.7 -11.4323,0 -20.7,-9.2677 -20.7,-20.7 0,-11.4322 9.2677,-20.7 20.7,-20.7 11.4323,0 20.7,9.2678 20.7,20.7 z m 0,180 c 0,11.4323 -9.2677,20.7 -20.7,20.7 -11.4323,0 -20.7,-9.2677 -20.7,-20.7 0,-11.4322 9.2677,-20.7 20.7,-20.7 11.4323,0 20.7,9.2678 20.7,20.7 z m -180,-899.99987 c 0,11.4323 -9.2677,20.7 -20.7,20.7 -11.4323,0 -20.7,-9.2677 -20.7,-20.7 0,-11.4323 9.2677,-20.7 20.7,-20.7 11.4323,0 20.7,9.2677 20.7,20.7 z m 0,180 c 0,11.4323 -9.2677,20.7 -20.7,20.7 -11.4323,0 -20.7,-9.2677 -20.7,-20.7 0,-11.4323 9.2677,-20.7 20.7,-20.7 11.4323,0 20.7,9.2677 20.7,20.7 z m 0,180 c 0,11.4323 -9.2677,20.7 -20.7,20.7 -11.4323,0 -20.7,-9.2677 -20.7,-20.7 0,-11.4323 9.2677,-20.7 20.7,-20.7 11.4323,0 20.7,9.2677 20.7,20.7 z m 0,179.99994 c 0,11.43228 -9.2677,20.7 -20.7,20.7 -11.4323,0 -20.7,-9.26772 -20.7,-20.7 0,-11.43228 9.2677,-20.7 20.7,-20.7 11.4323,0 20.7,9.26772 20.7,20.7 z m 0,180 c 0,11.43228 -9.2677,20.7 -20.7,20.7 -11.4323,0 -20.7,-9.26772 -20.7,-20.7 0,-11.43228 9.2677,-20.7 20.7,-20.7 11.4323,0 20.7,9.26772 20.7,20.7 z m 0,180.00003 c 0,11.4322 -9.2677,20.7 -20.7,20.7 -11.4323,0 -20.7,-9.2678 -20.7,-20.7 0,-11.4323 9.2677,-20.7 20.7,-20.7 11.4323,0 20.7,9.2677 20.7,20.7 z m -180,-899.99997 c 0,11.4323 -9.2677,20.7 -20.7,20.7 -11.4323,0 -20.7,-9.2677 -20.7,-20.7 0,-11.4323 9.2677,-20.7 20.7,-20.7 11.4323,0 20.7,9.2677 20.7,20.7 z m 0,180 c 0,11.4323 -9.2677,20.7 -20.7,20.7 -11.4323,0 -20.7,-9.2677 -20.7,-20.7 0,-11.4323 9.2677,-20.7 20.7,-20.7 11.4323,0 20.7,9.2677 20.7,20.7 z m 0,180 c 0,11.4323 -9.2677,20.7 -20.7,20.7 -11.4323,0 -20.7,-9.2677 -20.7,-20.7 0,-11.4323 9.2677,-20.7 20.7,-20.7 11.4323,0 20.7,9.2677 20.7,20.7 z m 0,179.99993 c 0,11.43228 -9.2677,20.7 -20.7,20.7 -11.4323,0 -20.7,-9.26772 -20.7,-20.7 0,-11.43228 9.2677,-20.7 20.7,-20.7 11.4323,0 20.7,9.26772 20.7,20.7 z m 0,180 c 0,11.43228 -9.2677,20.7 -20.7,20.7 -11.4323,0 -20.7,-9.26772 -20.7,-20.7 0,-11.43228 9.2677,-20.7 20.7,-20.7 11.4323,0 20.7,9.26772 20.7,20.7 z m 0,180.00004 c 0,11.4322 -9.2677,20.7 -20.7,20.7 -11.4323,0 -20.7,-9.2678 -20.7,-20.7 0,-11.4323 9.2677,-20.7 20.7,-20.7 11.4323,0 20.7,9.2677 20.7,20.7 z" />
  </g>
</svg>
